<?xml version="1.0" encoding="UTF-8"?>
<svg id="Layer_1" xmlns="http://www.w3.org/2000/svg" xmlns:xlink="http://www.w3.org/1999/xlink" viewBox="0 0 246.94 74.89">
  <defs>
    <style>
      .cls-1 {
        fill: none;
      }

      .cls-2 {
        fill: #231f20;
      }

      .cls-3 {
        fill: #cd163f;
      }

      .cls-4 {
        clip-path: url(#clippath-1);
      }

      .cls-5 {
        fill: #fff;
      }

      .cls-6 {
        clip-path: url(#clippath);
      }
    </style>
    <clipPath id="clippath">
      <rect class="cls-1" x="0" y="0" width="60.43" height="74.89"/>
    </clipPath>
    <clipPath id="clippath-1">
      <rect class="cls-1" x="0" y="0" width="60.43" height="74.89"/>
    </clipPath>
  </defs>
  <g id="Artwork_246">
    <g class="cls-6">
      <g class="cls-4">
        <path class="cls-2" d="M60.08,46.85c-.96-6.01-4.5-11.1-10.56-15.18,4.24-3.29,6.24-7.04,5.95-11.19-.16-7.31-3.48-16.7-18.26-20.08-.28-.07-.58-.08-.87-.06-3.73.33-7.69,2.63-12,6.99C22.48,1.76,18.24.33,15.46.02c-.85-.1-1.7.21-2.3.82L.79,13.47c-.83.85-1.03,2.13-.5,3.19l1.03,2.05c.63,1.25,2.08,1.84,3.41,1.38.31-.11.53-.16.68-.18.07.23.15.64.15,1.34l.05,39.71c-.24,2.23-.27,2.25-1.64,3.24-.59.42-1.32.95-2.23,1.71-.98.82-1.27,2.19-.72,3.34l1.94,4.05c.4.84,1.19,1.42,2.11,1.55.13.02.27.03.4.03.7,0,1.37-.26,1.89-.74.58-.28,3.59-1.26,17.46-1.26,4.67,0,10.27.11,16.64.32.93.04,1.81-.4,2.35-1.16,2.64-3.69,4.62-4.8,6.91-6.09,1.15-.65,2.46-1.38,3.86-2.45,4.82-3.66,6.67-9.27,5.49-16.67M25.78,27.42c.5-5.84,3.27-7.72,5.63-8.53,5.18.52,6.46,2.9,6.97,4.67.61,2.14.63,3.26.57,3.78l-13.17.08ZM25.77,45.03c.86-.12,1.96-.2,3.4-.2,1.33,0,2.84.07,4.49.21,1.4.12,5.6.48,8.59,9.25-.73,3.79-8.8,4.37-13.67,4.37h0c-1.44,0-3-.05-4.66-.14,1.45-3.16,2.06-7.63,1.86-13.49"/>
        <path class="cls-5" d="M58.25,47.14c-.99-6.2-5.06-11.37-12.11-15.39,5.27-3.29,7.78-7.05,7.47-11.19-.2-9.68-5.86-15.85-16.82-18.36-.09-.02-.19-.03-.29-.02-3.94.35-8.28,3.31-13.22,9.01-.62-5.67-3.31-8.81-8.03-9.33-.28-.03-.57.07-.77.27L2.12,14.77c-.28.28-.34.71-.17,1.06l1.03,2.05c.21.42.69.61,1.14.46.58-.2,1.08-.3,1.5-.3.53,0,1.77,0,1.81,3.21l.05,39.81c-.34,3.15-.7,3.41-2.41,4.65-.56.41-1.27.91-2.12,1.63-.33.27-.42.73-.24,1.11l1.94,4.05c.13.28.4.47.7.52.04,0,.09,0,.13,0,.26,0,.51-.11.69-.31.46-.51,3.2-1.7,18.66-1.7,4.69,0,10.31.11,16.7.33.31.01.6-.13.79-.39,2.88-4.02,5.13-5.28,7.51-6.62,1.15-.65,2.34-1.32,3.65-2.31,4.24-3.22,5.85-8.23,4.78-14.9M23.85,43.52c2.17-.6,5.54-.71,9.97-.33,4.67.4,8.05,3.97,10.32,10.92-.32,4.25-5.55,6.41-15.56,6.41h0c-2.36,0-5.01-.12-7.9-.37,2.61-2.8,3.65-8.29,3.17-16.62M39.93,29.19l-16.09.1c.02-6.71,2.43-10.74,7.35-12.28,4.98.4,7.92,2.38,8.97,6.04.68,2.36,1.17,5.3-.23,6.14"/>
        <path class="cls-3" d="M15.15,2.78c4.82.54,7.27,4.14,7.35,10.8,5.36-6.63,10.06-10.12,14.1-10.48,10.55,2.41,15.92,8.25,16.1,17.5.32,4.14-2.48,7.87-8.43,11.18,7.7,4,12.06,9.16,13.07,15.5,1.01,6.34-.47,11.01-4.43,14.02-3.96,3.01-6.96,3-11.35,9.13-22.36-.76-34.39-.2-36.08,1.67l-1.94-4.05c3.53-2.95,4.36-2.22,4.87-6.94l-.05-39.86c-.04-3.57-1.55-4.83-4.54-3.78l-1.03-2.05L15.15,2.78ZM22.87,42.86c.68,10.23-.88,16.22-4.7,17.99,17.64,1.8,26.61-.49,26.9-6.86-2.38-7.38-6.1-11.29-11.18-11.72-5.08-.43-8.75-.23-11.02.59M31.08,16.07c-5.65,1.69-8.37,6.41-8.16,14.15l17.23-.11c1.76-.79,2.06-3.23.89-7.32-1.17-4.09-4.49-6.33-9.96-6.72"/>
        <path class="cls-2" d="M52.89,71.52c0,1.11-.87,1.98-2,1.98s-2.01-.87-2.01-1.98.89-1.95,2.01-1.95,2,.87,2,1.95M49.37,71.52c0,.87.64,1.56,1.52,1.56s1.49-.69,1.49-1.55-.63-1.57-1.5-1.57-1.51.7-1.51,1.56M50.58,72.55h-.45v-1.95c.18-.04.43-.06.75-.06.37,0,.54.06.68.14.11.08.19.24.19.43,0,.21-.17.38-.4.45v.02c.19.07.3.21.36.48.06.3.1.42.14.49h-.49c-.06-.07-.1-.25-.16-.48-.04-.21-.15-.31-.4-.31h-.21v.79ZM50.59,71.44h.21c.25,0,.45-.08.45-.29,0-.18-.13-.3-.42-.3-.12,0-.2.01-.25.02v.56Z"/>
      </g>
    </g>
  </g>
  <g>
    <g>
      <path class="cls-2" d="M77.49,66.58c-5.54,0-8.64-3.47-8.64-8.94v-14.62h2.29v14.33c0,4.39,2.18,7.05,6.46,7.05s6.31-2.47,6.31-7.09v-14.29h2.33v14.25c0,5.72-2.99,9.31-8.75,9.31"/>
      <path class="cls-2" d="M100.88,66.1v-10.93c0-2.95-1.18-4.28-3.73-4.28-1.85,0-3.73,1-5.13,2.4v12.81h-2.29v-16.91l2.29-.48v2.77c1.77-1.77,3.99-2.77,5.76-2.77,3.4,0,5.39,2.1,5.39,5.8v11.59h-2.29Z"/>
    </g>
    <polygon class="cls-2" points="106.69 66.1 106.69 49.19 108.75 48.71 108.98 66.1 106.69 66.1"/>
    <polygon class="cls-2" points="120.77 66.13 118.7 66.13 112.02 49.19 114.49 49.19 119.85 63.14 125.02 49.19 127.42 49.19 120.77 66.13"/>
    <g>
      <path class="cls-2" d="M140.07,55.87c.04-.18.04-.55.04-.74,0-2.58-1.4-4.36-4.06-4.36-3.03,0-4.98,2.33-5.35,5.13l9.38-.04ZM130.54,57.9c.07,3.8,2.36,6.54,5.91,6.54,1.85,0,3.62-.55,4.91-1.4l.44,2.1c-1.44.89-3.32,1.44-5.43,1.44-4.87,0-8.16-3.66-8.16-8.79s3.4-9.08,7.98-9.08c3.73,0,6.17,2.44,6.17,6.24,0,.89-.15,1.96-.37,2.7l-11.45.07v.18Z"/>
      <path class="cls-2" d="M147.62,66.1h-2.29v-16.91l2.29-.48v3.62c1.11-2.18,2.77-3.62,4.99-3.62,1.11,0,2.18.33,2.95.78l-.59,2.14c-.74-.44-1.62-.74-2.58-.74-1.77,0-3.43,1.33-4.76,4.36v10.86Z"/>
      <path class="cls-2" d="M162.6,66.58c-1.99,0-4.1-.59-5.54-1.51l.63-2.1c1.44.96,3.25,1.55,4.99,1.55,2.03,0,3.8-1,3.8-2.84,0-2.03-2.14-2.62-4.25-3.29-2.33-.7-4.91-1.85-4.91-4.8s2.55-4.87,5.72-4.87c1.85,0,3.69.52,5.13,1.25l-.66,2.07c-1.4-.77-3.14-1.25-4.62-1.25-2.07,0-3.4.96-3.4,2.58,0,1.92,1.99,2.51,4.17,3.18,2.4.7,4.98,1.81,4.98,4.95s-2.66,5.1-6.06,5.1"/>
    </g>
    <polygon class="cls-2" points="172.07 66.1 172.07 49.19 174.35 48.71 174.35 66.1 172.07 66.1"/>
    <g>
      <path class="cls-2" d="M184.55,66.65c-3.21,0-4.65-1.77-4.54-5.32l.26-10.01-2.58-.15.11-1.44,2.55-.59.11-3.84h2.18l-.11,3.95h5.65l-.11,2.03h-5.61l-.26,10.12c-.07,2.14.7,3.18,2.47,3.18,1.11,0,2.22-.37,3.25-.81l.41,1.99c-1.18.55-2.55.89-3.77.89"/>
      <path class="cls-2" d="M199.38,65.91l-1.37,3.66c-1.55,4.14-3.18,5.32-5.46,5.32-1.29,0-2.25-.33-3.29-.78l.7-2.1c.81.44,1.66.74,2.58.74,1.29,0,2.25-.7,3.47-3.91l1.14-2.99-6.61-16.65h2.47l5.32,13.96,5.21-13.96h2.4l-6.57,16.73Z"/>
    </g>
    <polygon class="cls-2" points="108.75 45.66 106.69 45.66 106.69 43.44 108.75 42.92 108.75 45.66"/>
    <polygon class="cls-2" points="174.35 45.66 172.08 45.66 172.08 43.44 174.35 42.92 174.35 45.66"/>
  </g>
  <g>
    <path class="cls-2" d="M77.42,23.3h-4.14v6.28h4.47c3.03,0,4.51-1.07,4.51-3.18,0-2.29-1.99-3.1-4.84-3.1M77.53,13.74h-4.25v6.28h3.88c2.88,0,4.39-1.22,4.39-3.21s-1.4-3.06-4.02-3.06M86.8,26.59c0,3.8-2.29,6.61-8.97,6.61h-8.97V10.12h8.82c6.24,0,8.38,2.58,8.38,6.09,0,2.47-1.48,4.14-4.14,5.02,3.03.66,4.87,2.62,4.87,5.35"/>
    <path class="cls-2" d="M100.61,22.93v-.3c0-2.29-1-3.73-3.25-3.73-2.4,0-3.84,1.96-4.06,4.06l7.31-.04ZM93.19,25.63c.19,2.77,2.07,4.65,5.1,4.65,1.81,0,3.77-.59,5.32-1.55l.55,3.62c-1.62.89-3.88,1.4-6.17,1.4-5.46,0-9.08-3.47-9.08-8.9s3.69-9.23,8.79-9.23c4.5,0,7.02,2.73,7.02,6.9,0,.92-.15,2.1-.37,2.84-.04,0-11.15.15-11.15.15v.11Z"/>
    <path class="cls-2" d="M118.74,33.2v-10.38c0-2.51-1-3.36-2.95-3.36-1.51,0-2.92.78-3.77,1.59v12.15h-4.36v-16.95l4.36-.59v2.7c1.51-1.66,3.54-2.73,5.61-2.73,3.43,0,5.47,2.22,5.47,5.87v11.7h-4.36Z"/>
    <path class="cls-2" d="M137.56,22.93v-.3c0-2.29-1-3.73-3.25-3.73-2.4,0-3.84,1.96-4.06,4.06l7.31-.04ZM130.13,25.63c.18,2.77,2.07,4.65,5.1,4.65,1.81,0,3.77-.59,5.32-1.55l.55,3.62c-1.62.89-3.88,1.4-6.17,1.4-5.46,0-9.08-3.47-9.08-8.9s3.69-9.23,8.79-9.23c4.51,0,7.02,2.73,7.02,6.9,0,.92-.15,2.1-.37,2.84-.04,0-11.15.15-11.15.15v.11Z"/>
    <path class="cls-2" d="M153.17,19.09c-2.92,0-4.58,2.4-4.58,5.54,0,3.32,1.66,5.43,4.28,5.43,1.44,0,2.55-.52,3.51-1.4v-8.57c-.85-.63-1.92-1-3.21-1M156.38,8.53l4.36-.59v25.26h-4.36v-1.66c-1.14,1.11-2.7,2.22-4.8,2.22-4.51,0-7.42-3.66-7.42-8.94s3.77-9.19,8.6-9.19c1.22,0,2.55.22,3.62.55v-7.64Z"/>
    <polygon class="cls-2" points="164.52 33.2 164.52 16.29 168.88 15.66 168.88 33.2 164.52 33.2"/>
    <g>
      <path class="cls-2" d="M181,33.75c-5.54,0-8.82-3.43-8.82-9.01s3.62-9.12,8.97-9.12c2.33,0,4.32.52,5.87,1.44l-.92,3.51c-1.4-.89-3.03-1.37-4.62-1.37-3.14,0-4.84,2.14-4.84,5.43,0,3.47,1.96,5.5,4.84,5.5,1.77,0,3.4-.48,4.73-1.33l.7,3.54c-1.48.89-3.62,1.4-5.91,1.4"/>
      <path class="cls-2" d="M197.56,33.75c-3.8,0-5.8-1.66-5.65-5.76l.26-8.01-2.66-.29.11-2.77,2.66-.85.07-3.77h4.21l-.07,3.99h4.8l-.11,3.58h-4.95l-.22,7.86c-.04,1.59.77,2.33,2.25,2.33.89,0,1.77-.22,2.66-.52l.59,3.54c-1.29.44-2.47.66-3.95.66"/>
    </g>
    <polygon class="cls-2" points="204.83 33.2 204.83 16.29 209.19 15.66 209.19 33.2 204.83 33.2"/>
    <g>
      <path class="cls-2" d="M224.03,33.2v-10.38c0-2.51-1-3.36-2.95-3.36-1.51,0-2.92.78-3.77,1.59v12.15h-4.36v-16.95l4.36-.59v2.7c1.51-1.66,3.54-2.73,5.61-2.73,3.43,0,5.46,2.22,5.46,5.87v11.7h-4.36Z"/>
      <path class="cls-2" d="M242.84,22.93v-.3c0-2.29-1-3.73-3.25-3.73-2.4,0-3.84,1.96-4.06,4.06l7.31-.04ZM235.42,25.63c.19,2.77,2.07,4.65,5.1,4.65,1.81,0,3.77-.59,5.32-1.55l.55,3.62c-1.62.89-3.88,1.4-6.17,1.4-5.46,0-9.08-3.47-9.08-8.9s3.69-9.23,8.79-9.23c4.51,0,7.02,2.73,7.02,6.9,0,.92-.15,2.1-.37,2.84-.04,0-11.15.15-11.15.15v.11Z"/>
    </g>
    <polygon class="cls-2" points="164.52 12.53 164.52 8.53 168.88 7.94 168.88 12.53 164.52 12.53"/>
    <polygon class="cls-2" points="204.83 12.53 204.83 8.53 209.19 7.94 209.19 12.53 204.83 12.53"/>
  </g>
<!-- Code injected by live-server -->
<script>
	// <![CDATA[  <-- For SVG support
	if ('WebSocket' in window) {
		(function () {
			function refreshCSS() {
				var sheets = [].slice.call(document.getElementsByTagName("link"));
				var head = document.getElementsByTagName("head")[0];
				for (var i = 0; i < sheets.length; ++i) {
					var elem = sheets[i];
					var parent = elem.parentElement || head;
					parent.removeChild(elem);
					var rel = elem.rel;
					if (elem.href && typeof rel != "string" || rel.length == 0 || rel.toLowerCase() == "stylesheet") {
						var url = elem.href.replace(/(&|\?)_cacheOverride=\d+/, '');
						elem.href = url + (url.indexOf('?') >= 0 ? '&' : '?') + '_cacheOverride=' + (new Date().valueOf());
					}
					parent.appendChild(elem);
				}
			}
			var protocol = window.location.protocol === 'http:' ? 'ws://' : 'wss://';
			var address = protocol + window.location.host + window.location.pathname + '/ws';
			var socket = new WebSocket(address);
			socket.onmessage = function (msg) {
				if (msg.data == 'reload') window.location.reload();
				else if (msg.data == 'refreshcss') refreshCSS();
			};
			if (sessionStorage && !sessionStorage.getItem('IsThisFirstTime_Log_From_LiveServer')) {
				console.log('Live reload enabled.');
				sessionStorage.setItem('IsThisFirstTime_Log_From_LiveServer', true);
			}
		})();
	}
	else {
		console.error('Upgrade your browser. This Browser is NOT supported WebSocket for Live-Reloading.');
	}
	// ]]>
</script>
</svg>