<?xml version="1.0" encoding="UTF-8"?>
<svg id="Layer_1" xmlns="http://www.w3.org/2000/svg" viewBox="0 0 256.67 50.9">
  <defs>
    <style>
      .cls-1 {
        fill: #981b32;
      }
    </style>
  </defs>
  <rect x="79.56" width="1.5" height="37.57"/>
  <g>
    <path class="cls-1" d="M19.08,1.33c3.17,0,6,.67,8.33,2.08l1.67,1c.33.17.67.33.92.33.33,0,.58-.17.75-.42l.5-.83c.08-.17.25-.17.5-.17.5,0,.83.58.83,1.67v4.17l.17,1.92.25,1.17c.08.58.17,1.08.17,1.5,0,.67-.25,1-.75,1-.25,0-.42-.17-.5-.58-.17-.67-.58-1.67-1.42-3s-1.58-2.42-2.33-3.17c-2.92-3.25-6.16-4.83-9.83-4.83-3.25,0-5.83,1.33-7.91,4-2,2.67-3,6.08-3,10.33,0,5.5,1.67,9.91,4.92,13.25,2.5,2.42,5.16,3.67,8.08,3.67,1.75,0,3.58-.42,5.5-1.25s3.42-1.83,4.58-3.08l1.67-1.83c.25-.25.5-.42.67-.42.33,0,.5.17.5.58,0,.67-.67,1.83-2,3.33-3.5,4-7.91,6-13.08,6s-9.08-1.58-12.25-4.83S1.33,25.49,1.33,20.41c0-2.83.58-5.58,1.75-8.25s2.75-4.92,4.75-6.58c3.17-2.83,7-4.25,11.25-4.25Z"/>
    <path class="cls-1" d="M63.48,1.75c.08,0,.33,0,.58.08.25.08,1,.08,2,.17l2.75.17,2.5-.08c.83-.08,1.58-.17,2.25-.25.33,0,.58-.08.83-.08.5,0,.67.25.67.67,0,.33-.25.58-.67.67l-1,.17c-1.33.25-2,1.67-2,4.25v2.25l-.08,3.17c0,4.92-.25,8.91-.75,11.91s-1.25,5.33-2.33,7c-2.58,4-6.91,6-13.16,6-4.33,0-7.75-.83-10.16-2.5-3-2.33-4.58-6.66-4.58-13.08l.25-9.91-.08-4.67c0-1.17-.08-2-.33-2.5-.25-.5-.67-.92-1.42-1.25-.83-.42-1.75-.67-2.83-.83-.67-.08-1-.33-1-.75s.25-.67.83-.67c.17,0,.5,0,1.08.08,2.17.17,3.83.33,5,.33,1.67,0,3.5-.08,5.58-.25.83-.08,1.42-.08,1.75-.08.92,0,1.33.25,1.33.75,0,.25-.08.5-.17.58-.17.08-.5.17-1,.33-1.08.17-1.75.58-2.08,1.17s-.58,1.67-.67,3.33l-.42,6.41.08,4.5c0,4.17.25,7.08.67,8.83s1.33,3.25,2.67,4.5c2.08,1.92,4.75,2.83,7.91,2.83,3.33,0,6-1,8-2.92,1.33-1.33,2.33-3.25,2.92-5.75s.83-6.16.83-10.91v-2.08l-.08-5.25c-.08-1.58-.58-2.83-1.5-3.67-.92-.92-2.08-1.33-3.67-1.33-.67,0-1-.25-1-.75,0-.42.17-.58.5-.58Z"/>
  </g>
  <g>
    <path d="M255.08,33.07v3.67h-20.24c.17-.67.25-1.42.42-2.33.08-.75.17-1.67.33-2.75.08-1.08.17-2.25.17-3.58V10.5c0-1.33-.08-2.5-.17-3.58s-.25-2-.33-2.75c-.17-.83-.25-1.58-.42-2.33h20.24v3.67c-.75-.17-1.5-.25-2.33-.42-.75-.08-1.67-.17-2.67-.33-1.08-.08-2.25-.17-3.58-.17h-3.75v13.16h1.83c1.17,0,2.17-.08,3.08-.17s1.67-.17,2.33-.25c.75-.17,1.42-.25,2-.42v4.33c-.58-.08-1.25-.17-2-.33-.67-.08-1.42-.17-2.33-.25-.92-.08-1.92-.17-3.08-.17h-1.83v13.33h3.67c1.33,0,2.5,0,3.58-.17,1-.08,1.92-.17,2.67-.25.92,0,1.67-.17,2.42-.33Z"/>
    <path d="M227.76,34.41c.33,1.58.42,2.33.42,2.33h-5.58c0-.08-.33-.67-.92-1.67-.67-1-1.5-2.25-2.5-3.58l-15.08-19.83v16.41c0,1.33.08,2.5.17,3.58.08,1.08.17,2,.25,2.75.17.92.25,1.67.42,2.33h-5.41c.17-.67.33-1.42.5-2.33.08-.75.17-1.67.25-2.75s.17-2.25.17-3.58V10.5c-.08-1.33-.08-2.5-.17-3.58-.08-1.08-.17-2-.25-2.75-.17-.83-.25-1.58-.5-2.33h5.91c0,.08.17.33.5.83.33.5.83,1.25,1.42,2.08s1.33,1.83,2.17,2.92,1.75,2.17,2.67,3.33l11.66,15.16v-15.66c0-1.33-.08-2.5-.17-3.58s-.25-2-.33-2.75c-.17-.83-.25-1.58-.42-2.33h5.16c-.17.75-.25,1.5-.42,2.33-.08.75-.17,1.67-.33,2.75-.08,1.08-.17,2.25-.08,3.58v17.58c0,2.67.17,4.75.5,6.33Z"/>
    <path d="M183.77,1.83h8.91c-.08,0-.25.75-.5,2.33-.33,1.58-.42,3.67-.42,6.33v17.58c0,1.33.08,2.5.17,3.58.08,1.08.17,2,.33,2.75.17.92.25,1.67.5,2.33h-8.91c.17-.67.25-1.42.42-2.33.08-.75.17-1.67.33-2.75.08-1.08.17-2.25.17-3.58V10.5c0-1.33-.08-2.5-.17-3.58-.08-1.08-.25-2-.33-2.75-.17-.83-.33-1.67-.5-2.33Z"/>
    <path d="M180.11,33.16v3.58h-20.41c.17-.67.25-1.42.5-2.33.08-.75.17-1.67.33-2.75.08-1.08.17-2.25.17-3.58V10.5c0-1.33-.08-2.5-.17-3.58-.08-1.08-.25-2-.33-2.75-.17-.83-.33-1.58-.5-2.33h8.91c-.17.75-.33,1.5-.5,2.33-.08.75-.17,1.67-.25,2.75s-.17,2.25-.17,3.58v23.41h3.67c1.33,0,2.5,0,3.58-.17s2-.17,2.75-.25c.92-.08,1.75-.25,2.42-.33Z"/>
    <path d="M152.7,34.41c.33,1.58.42,2.33.42,2.33h-5.58c0-.08-.33-.67-.92-1.67-.67-1-1.5-2.25-2.5-3.58l-15.08-19.83v16.41c0,1.33.08,2.5.17,3.58.08,1.08.17,2,.25,2.75.17.92.25,1.67.42,2.33h-5.41c.17-.67.33-1.42.5-2.33.08-.75.17-1.67.25-2.75s.17-2.25.17-3.58V10.5c-.08-1.33-.08-2.5-.17-3.58-.08-1.08-.17-2-.25-2.75-.17-.83-.25-1.58-.5-2.33h5.91c0,.08.17.33.5.83.33.5.83,1.25,1.42,2.08s1.33,1.83,2.17,2.92,1.75,2.17,2.67,3.33l11.66,15.16v-15.66c0-1.33-.08-2.5-.17-3.58-.08-1.08-.25-2-.33-2.75-.17-.83-.25-1.58-.42-2.33h5.16c-.17.75-.25,1.5-.42,2.33-.08.75-.17,1.67-.33,2.75-.08,1.08-.17,2.25-.08,3.58v17.58c0,2.67.17,4.75.5,6.33Z"/>
    <path d="M118.21,12.16c.75,2.17,1.08,4.5,1.08,6.83,0,2.58-.42,5.08-1.17,7.33s-1.83,4.25-3.17,5.91-2.92,3-4.75,3.92c-1.83.92-3.83,1.42-6,1.42s-4.25-.5-6.08-1.58c-1.83-1.08-3.42-2.42-4.75-4.17s-2.33-3.67-3.08-5.91c-.75-2.25-1.08-4.58-1.08-7s.33-4.67,1.08-6.83,1.75-4.08,3.08-5.75,2.92-3,4.75-4,3.83-1.5,6.08-1.5,4.25.5,6.08,1.5c1.83,1,3.42,2.33,4.75,4,1.42,1.75,2.5,3.67,3.17,5.83ZM109.3,30.57c1.25-2.75,1.92-6.58,1.92-11.58-.08-5-.67-8.66-1.83-11s-2.92-3.58-5.08-3.58c-2.17.08-3.83,1.25-5,3.58s-1.83,6-1.83,11,.58,8.91,1.83,11.58,2.92,4.08,5,4.08,3.75-1.33,5-4.08Z"/>
  </g>
  <g>
    <polygon points="253.58 47.23 253.58 50.73 251.92 50.73 251.92 47.23 248.84 42.4 250.83 42.4 252.83 45.74 254.75 42.4 256.67 42.4 253.58 47.23"/>
    <polygon points="242.92 43.82 242.92 50.73 241.17 50.73 241.17 43.82 238.76 43.82 238.76 42.4 245.34 42.4 245.34 43.82 242.92 43.82"/>
    <rect x="232.76" y="42.4" width="1.67" height="8.33"/>
    <path d="M227.76,49.65c-.25.42-.67.75-1.17.92s-1.08.33-1.83.33c-1.08,0-1.83-.25-2.42-.75-.58-.5-.92-1.17-1-2.17l1.67-.17c.08.58.33.92.58,1.17.33.25.67.42,1.25.42.5,0,.92-.08,1.25-.33.25-.25.42-.5.42-.83,0-.17-.08-.33-.17-.5-.08-.17-.33-.25-.58-.33-.17-.08-.67-.17-1.33-.33-.92-.25-1.58-.5-1.92-.83-.5-.42-.75-1-.75-1.67,0-.42.08-.83.33-1.17s.58-.67,1-.83c.5-.17,1-.33,1.67-.33,1,0,1.83.25,2.33.67.5.42.83,1.08.83,1.83l-1.67.08c-.08-.42-.25-.75-.5-.92-.25-.17-.58-.25-1.08-.25s-.92.08-1.17.33c-.17.17-.25.33-.25.5s.08.33.25.5c.17.17.75.33,1.5.58.83.17,1.42.42,1.83.58s.67.5.92.83c.25.33.33.83.33,1.33.08.5-.08.92-.33,1.33Z"/>
    <path d="M215.18,44.9c0-.25-.08-.5-.25-.67s-.33-.25-.67-.33h-2.58v2.08h1.25c.83,0,1.33,0,1.5-.08.17-.08.33-.17.5-.33.25-.25.25-.42.25-.67ZM215.6,47.82c.25.25.58.67.92,1.33l1,1.58h-2l-1.25-1.83c-.42-.67-.75-1.08-.92-1.25s-.33-.25-.5-.33c-.17-.08-.5-.08-.83-.08h-.33v3.5h-1.67v-8.33h3.58c.92,0,1.5.08,1.92.25s.75.42,1,.83c.25.42.33.83.33,1.33,0,.67-.17,1.17-.58,1.58-.33.42-.92.67-1.67.75.5.17.83.33,1,.67Z"/>
    <polygon points="199.02 50.73 199.02 42.4 205.27 42.4 205.27 43.82 200.77 43.82 200.77 45.65 204.93 45.65 204.93 47.07 200.77 47.07 200.77 49.4 205.43 49.4 205.43 50.73 199.02 50.73"/>
    <polygon points="191.1 48.57 193.1 42.4 194.94 42.4 191.94 50.73 190.1 50.73 187.19 42.4 188.94 42.4 191.1 48.57"/>
    <rect x="181.44" y="42.4" width="1.67" height="8.33"/>
    <polygon points="174.86 47.98 174.86 42.4 176.44 42.4 176.44 50.73 174.78 50.73 171.36 45.32 171.36 50.73 169.86 50.73 169.86 42.4 171.44 42.4 174.86 47.98"/>
    <path d="M164.78,46.82c0,1-.08,1.75-.17,2.08-.08.42-.25.75-.5,1.08-.25.25-.58.5-1,.67-.42.17-.92.25-1.58.25-.75,0-1.42-.08-1.83-.25-.42-.17-.75-.42-1-.75-.25-.25-.42-.58-.5-.92-.08-.5-.17-1.17-.17-2.08v-4.42h1.67v4.5c0,.75,0,1.17.08,1.42.08.33.25.58.5.83.25.17.67.33,1.08.33.5,0,.83-.08,1.08-.25.25-.17.42-.42.42-.75.08-.25.08-.75.08-1.42v-4.58h1.67v4.25s.17,0,.17,0Z"/>
    <polygon points="142.29 47.07 142.29 49.4 146.95 49.4 146.95 50.73 140.62 50.73 140.62 42.4 146.79 42.4 146.79 43.82 142.29 43.82 142.29 45.65 146.45 45.65 146.45 47.07 142.29 47.07"/>
    <polygon points="136.12 49.4 136.12 50.73 130.21 50.73 130.21 42.49 131.87 42.49 131.87 49.4 136.12 49.4"/>
    <polygon points="125.71 49.4 125.71 50.73 119.88 50.73 119.88 42.49 121.54 42.49 121.54 49.4 125.71 49.4"/>
    <rect x="113.21" y="42.4" width="1.67" height="8.33"/>
    <polygon points="105.3 48.57 107.38 42.4 109.13 42.4 106.22 50.73 104.38 50.73 101.38 42.4 103.22 42.4 105.3 48.57"/>
    <path d="M92.47,42.57c.5-.17,1-.33,1.67-.33,1.08,0,1.83.25,2.33.67.5.42.83,1.08.83,1.83l-1.67.08c-.08-.42-.25-.75-.5-.92-.25-.17-.58-.25-1.08-.25s-.83.08-1.17.33c-.17.17-.25.33-.25.5s.08.33.25.5c.25.17.75.33,1.58.58.83.17,1.42.42,1.83.58s.67.5.92.83c.25.33.33.83.33,1.33s-.17.92-.42,1.33-.67.75-1.17.92-1.08.33-1.83.33c-1.08,0-1.83-.25-2.42-.75-.58-.5-.92-1.17-1-2.17l1.67-.17c.08.58.33.92.58,1.17.33.25.67.42,1.25.42s.92-.08,1.25-.33c.25-.25.42-.5.42-.83,0-.17-.08-.33-.17-.5-.08-.17-.33-.25-.58-.33-.17-.08-.67-.17-1.33-.33-.92-.25-1.5-.5-1.92-.83-.5-.42-.75-1-.75-1.67,0-.42.08-.83.33-1.17.25-.33.58-.67,1-.83Z"/>
    <polygon points="86.72 49.4 86.72 50.73 80.89 50.73 80.89 42.49 82.56 42.49 82.56 49.4 86.72 49.4"/>
    <polygon points="76.31 49.4 76.31 50.73 70.48 50.73 70.48 42.49 72.14 42.49 72.14 49.4 76.31 49.4"/>
    <polygon points="61.06 45.65 65.23 45.65 65.23 47.07 61.06 47.07 61.06 49.4 65.73 49.4 65.73 50.73 59.4 50.73 59.4 42.4 65.56 42.4 65.56 43.82 61.06 43.82 61.06 45.65"/>
    <path d="M52.65,44.74c0-.25-.08-.5-.25-.67-.17-.17-.33-.25-.67-.33h-2.42v1.92h2.33c.25,0,.5-.17.67-.33.25-.08.33-.33.33-.58ZM52.98,48.23c0-.25-.08-.5-.17-.67-.17-.17-.33-.33-.5-.42-.25-.08-.75-.17-1.5-.17h-1.33v2.25h1.58c.58,0,1,0,1.17-.08.25,0,.42-.17.58-.33.08,0,.17-.25.17-.58ZM50.57,50.73h-2.83v-8.33h3.33c.67,0,1.17,0,1.5.08s.58.17.92.33.5.42.67.67c.17.25.25.58.25,1s-.08.75-.33,1.08c-.25.33-.5.58-.83.75.5.17.92.42,1.17.75s.42.75.42,1.25c0,.42-.08.75-.25,1.08-.17.33-.42.67-.75.83s-.67.33-1.17.42c-.33.08-1,.08-2.08.08Z"/>
    <path d="M41.32,44.99c0-.33-.08-.58-.25-.75-.25-.17-.42-.33-.75-.33-.17,0-.58-.08-1.25-.08h-.83v2.33h.92c.67,0,1.08,0,1.33-.17.25-.08.42-.25.5-.42.25-.08.33-.33.33-.58ZM42.57,43.32c.33.42.5,1,.5,1.67,0,.5-.08.92-.25,1.25s-.42.67-.67.83c-.33.17-.58.33-.92.42-.42.08-1,.08-1.75.08h-1.08v3.17h-1.67v-8.33h2.67c1,0,1.67,0,2,.08.42.17.83.42,1.17.83Z"/>
    <polygon points="30.16 44.15 28.49 50.73 26.82 50.73 25.24 44.15 25.24 50.73 23.66 50.73 23.66 42.4 26.16 42.4 27.66 48.07 29.16 42.4 31.74 42.4 31.74 50.73 30.16 50.73 30.16 44.15"/>
    <path d="M16.41,47.48l-1.17-3.08-1.17,3.08h2.33ZM16.16,42.4l3.33,8.33h-1.83l-.75-1.83h-3.33l-.67,1.92h-1.75l3.25-8.33h1.75v-.08Z"/>
    <path d="M3.92,42.24c1,0,1.83.33,2.5.92.33.33.67.83.83,1.5l-1.67.42c-.08-.42-.33-.75-.58-1-.33-.25-.67-.42-1.17-.42-.67,0-1.17.25-1.5.67-.42.42-.58,1.17-.58,2.17,0,1.08.17,1.83.58,2.25s.92.67,1.5.67c.42,0,.83-.17,1.17-.42.33-.25.58-.75.67-1.33l1.67.5c-.25.92-.67,1.58-1.25,2s-1.33.67-2.25.67c-1.08,0-2-.42-2.75-1.17-.67-.75-1.08-1.83-1.08-3.08,0-1.42.33-2.5,1.08-3.25.67-.67,1.67-1.08,2.83-1.08Z"/>
  </g>
<!-- Code injected by live-server -->
<script>
	// <![CDATA[  <-- For SVG support
	if ('WebSocket' in window) {
		(function () {
			function refreshCSS() {
				var sheets = [].slice.call(document.getElementsByTagName("link"));
				var head = document.getElementsByTagName("head")[0];
				for (var i = 0; i < sheets.length; ++i) {
					var elem = sheets[i];
					var parent = elem.parentElement || head;
					parent.removeChild(elem);
					var rel = elem.rel;
					if (elem.href && typeof rel != "string" || rel.length == 0 || rel.toLowerCase() == "stylesheet") {
						var url = elem.href.replace(/(&|\?)_cacheOverride=\d+/, '');
						elem.href = url + (url.indexOf('?') >= 0 ? '&' : '?') + '_cacheOverride=' + (new Date().valueOf());
					}
					parent.appendChild(elem);
				}
			}
			var protocol = window.location.protocol === 'http:' ? 'ws://' : 'wss://';
			var address = protocol + window.location.host + window.location.pathname + '/ws';
			var socket = new WebSocket(address);
			socket.onmessage = function (msg) {
				if (msg.data == 'reload') window.location.reload();
				else if (msg.data == 'refreshcss') refreshCSS();
			};
			if (sessionStorage && !sessionStorage.getItem('IsThisFirstTime_Log_From_LiveServer')) {
				console.log('Live reload enabled.');
				sessionStorage.setItem('IsThisFirstTime_Log_From_LiveServer', true);
			}
		})();
	}
	else {
		console.error('Upgrade your browser. This Browser is NOT supported WebSocket for Live-Reloading.');
	}
	// ]]>
</script>
</svg>