<?xml version="1.0" encoding="UTF-8"?>
<svg id="Layer_1" xmlns="http://www.w3.org/2000/svg" viewBox="0 0 253.78 62.77">
  <defs>
    <style>
      .cls-1 {
        fill: #3d1152;
      }
    </style>
  </defs>
  <g>
    <path class="cls-1" d="M0,20.55c0-4.17,1.01-9.35,4.82-13.58C7.98,3.45,12.93,1.67,17.33.71c2.68-.6,5.24-.71,7.68-.71,2.68,0,5.54.36,6.73.83.54.18,1.79-.36,2.2-.54.24-.06.54-.06,1.43.3.48.12.48.3.42.54-1.19,3.22-1.25,6.08-1.01,10.13,0,.12-.18.24-.83.24-1.07.06-1.43-.18-1.55-.48-.18-.66-.83-2.5-1.31-3.57-.42-1.01-.71-1.85-1.79-2.8-1.07-1.01-3.87-2.26-6.85-2.26-3.34,0-6.97,1.55-9.59,4.88-2.98,3.75-3.99,8.58-3.99,13.28,0,6.79,3.69,17.33,14.53,17.33,3.99,0,7.03-2.74,8.7-4.65,1.13-1.37,1.73-2.86,2.14-3.63.06-.12.3-.24.95.36.71.42.83.6.77,1.13-.6,3.51-1.91,6.49-2.74,7.86-.42.54-.6.54-1.25.6-1.73,0-4.94,1.01-9.17,1.01C6.37,40.56,0,29.84,0,20.61v-.06Z"/>
    <path class="cls-1" d="M58.44,0c.6,0,.66.12.95,1.01,1.79,5.24,3.04,8.52,5.12,14.06,2.03,5.36,6.08,15.07,7.03,17.15,1.55,3.28,2.44,4.82,5.9,5.54.06-.12-.36,1.91-.83,1.97-6.08-.06-7.21-.12-9.23-.12-1.91,0-4.47.18-5.12.18-.24,0-.36-.06-.42-.24-.12-.3-.65-1.55-.54-1.67,2.44-.65,2.8-1.01,2.8-2.2,0-1.43-2.2-7.03-2.5-7.68-.48-1.13-.95-1.49-1.31-1.49-2.14,0-8.58-.06-11.32.18-1.01.06-1.31.54-1.73,1.61-.6,1.55-2.03,4.82-2.03,6.61,0,1.49.89,2.08,3.69,2.68.48.12-.18,1.91-.48,1.97-3.75-.06-7.15-.06-8.34-.06-1.07,0-1.97.06-2.2,0-.3,0-.36-.06-.42-.24-.18-.3-.66-1.55-.36-1.67,3.1-.83,3.81-3.34,5.12-6.14,1.37-2.92,8.46-19,11.56-26.51.54-1.37,1.01-2.8,1.37-3.51.12-.42.3-.71.54-.83.66-.3,1.79-.6,2.68-.6h.06ZM50.81,23.47c.66,0,1.73.06,3.45.06,1.91,0,2.98,0,4.47-.06.6,0,1.01-.54.95-.71-2.14-6.55-3.4-9.89-4.41-12.45-.18-.36-.54-.42-.66-.18-2.03,4.47-2.8,6.49-5.18,12.63-.12.3.48.71,1.31.71h.06Z"/>
    <path class="cls-1" d="M79.23,1.55c-.06-.36.3-.48.66-.48,2.62-.06,5.54-.12,8.16-.18,3.69-.24,5.12-.3,7.39-.3,4.05,0,7.56.42,11.26,2.86,2.44,1.61,4.23,4.71,4.23,7.27,0,5.24-3.99,7.45-6.08,8.76-.24.18-.42.78-.3,1.19.42,1.61,1.79,5,3.93,8.46,2.38,3.93,6.13,7.86,9.65,9.35.71.3.71.77.54,1.67-.06.65-.54.71-.77.71-5.54-.3-9.89-1.67-13.7-5.54-2.44-2.5-4.05-5.72-5.54-9.17-.95-2.08-1.85-3.34-4.77-3.34-.95,0-1.55.06-2.2.18-.3.06-.48.65-.48,1.07,0,5.18.12,8.28.18,10.54.06,1.07.24,1.31.54,1.55.6.48,3.34.77,4.77,1.19.18.3-.06,1.79-.3,2.02-.06.12-.36.12-.95.12s-6.85-.06-9.89-.06c-2.03,0-3.22.18-4.71.18-.6,0-.83,0-.89-.18-.18-.48-.42-1.49-.3-1.91,1.25-.3,2.74-.71,3.28-1.25.71-.89.89-4.77.89-12.39v-7.45c0-3.51-.12-7.8-.18-9.71-.06-2.26-.24-2.26-4.05-3.34l-.36-1.85ZM102.4,11.44c0-5.12-3.45-8.52-7.03-8.52-1.19,0-1.73.18-2.74.54-.6.24-.95.66-1.07,1.25-.24,1.79-.3,4.29-.36,9.41-.06,6.02-.06,6.08.42,6.19.48.12,1.43.12,2.56.12,2.62,0,4.94-.77,6.37-2.56,1.13-1.49,1.85-3.75,1.85-6.37v-.06Z"/>
    <path class="cls-1" d="M150.71,29.19c.3,0,1.25.36,1.67.54.18.12.42.48.3.77-.95,3.1-1.49,5.66-1.97,8.04-.12.78-.42.95-1.07,1.07-.54.06-1.25.06-3.75.06s-5.24-.18-15.9-.18c-3.63,0-6.73.3-8.04.42-.42,0-.71,0-.83-.12-.18-.48-.42-1.55-.3-1.91,2.56-.48,4.41-1.19,4.71-2.8.18-1.13.36-2.86.36-8.46v-11.73c0-5-.24-8.16-.54-10.07-.18-1.07-.65-1.43-4.76-1.31-.12,0-.36-.36-.18-.95l.42-1.25c.06-.24.12-.24.24-.24,2.26.06,4.59.12,6.97.06,3.75-.06,7.45-.24,10.25-.42.3.06.54,1.85.48,2.14-2.14.42-4.88.66-5.24,2.68-.3,1.61-.42,4.05-.36,10.3l.06,7.45c.06,8.58.12,10.48.24,11.62.06,1.13.3,1.49,1.25,1.79.95.3,1.79.42,4.47.42,4.11,0,7.8-.54,9.59-3.63.48-.77.89-1.97,1.31-3.87.12-.36.24-.42.6-.42h.06Z"/>
    <path class="cls-1" d="M174.47,0c11.08,0,20.85,8.52,20.85,19.36,0,7.33-3.22,12.81-7.03,16.02-4.41,3.81-9.53,5.18-12.63,5.18-6.79,0-13.58-2.56-17.81-7.33-2.98-3.34-5.06-8.64-5.06-13.46,0-5.12,2.14-10.25,6.37-14.06,4.05-3.75,9.77-5.72,15.25-5.72h.06ZM172.99,2.26c-3.04,0-5.84,1.55-7.86,4.05-2.62,3.28-3.51,7.39-3.51,12.87,0,5.78,1.97,10.78,4.71,13.82,3.45,3.87,6.61,5.12,10.13,5.12,4.71,0,10.13-5.78,10.13-16.26,0-5.42-.95-11.14-4.53-15.19-1.91-2.14-5.06-4.41-8.99-4.41h-.06Z"/>
    <path class="cls-1" d="M207.24,31.63c-1.85-4.47-5.06-12.57-9.29-22.58-1.97-4.77-2.44-5.3-5.54-5.84-.36-.06-.6-.12-.6-.6.06-.42.36-.89.48-1.13.18-.36.71-.54,1.37-.54.95,0,3.87.12,5.42.12,2.62,0,5.18-.12,7.8-.12.65,0,.89,1.49.89,1.85s-.12.42-.54.48c-2.38.24-2.8.48-2.56,1.49.12.6.48,1.85.89,2.98,2.74,7.15,5.42,13.4,8.88,21.09.12.24.48.54.66.24,1.25-2.5,4.53-10.84,6.31-15.25.18-.48.3-1.01.06-1.67-1.85-5.06-2.2-6.19-2.8-7.27-.66-1.31-1.19-1.61-3.81-1.73-.18,0-.36-.06-.3-.48.18-1.43.6-1.73,1.25-1.73,1.49,0,2.74.12,6.61.12,3.16,0,5.78-.24,6.49-.18.48.18.95,1.79.71,2.03-3.28.42-3.28.77-2.56,2.8,2.38,6.85,5.06,14.89,8.64,23.05.06.18.48.06.6-.12,1.31-2.5,8.7-20.67,8.7-24.24,0-.54-.6-.83-1.37-.95-1.49-.24-2.2-.36-2.74-.54-.3-.06-.36-.12-.36-.48,0-.6.18-1.61.65-1.61.6,0,4.41.24,6.43.24,2.5,0,3.69-.06,4.65-.12.48,0,1.19.06,1.37.71l.12.77c.06.36,0,.48-.3.48-3.69.36-3.63,1.13-6.2,6.55-1.73,3.63-6.25,14.95-9.71,23.47-.65,1.67-1.79,3.81-3.04,6.79-.24.66-1.25.83-1.67.83-.83,0-1.13-.48-1.37-1.31-.36-1.07-.89-2.74-1.91-5.48-1.13-2.98-3.87-11.26-6.19-16.68-1.07,2.38-4.41,9.65-7.39,16.5-.83,1.91-1.55,3.63-2.56,5.96-.3.71-.54.89-.71.95-.36.06-.89.06-1.67.06-.3,0-.48-.12-.66-.6-.42-.89-1.37-3.93-3.16-8.34Z"/>
  </g>
  <g>
    <path class="cls-1" d="M23.57,58.21v-7.05h1.47v7.02c0,2.18,1.02,3.22,3.18,3.22s3.16-1.04,3.16-3.22v-7.02h1.42v7.05c0,3.06-1.5,4.56-4.62,4.56s-4.62-1.5-4.62-4.56Z"/>
    <path class="cls-1" d="M47.64,51.16h1.45l6.78,9.01v-9.01h1.42v11.41h-1.38l-6.85-9.2v9.2h-1.42v-11.41Z"/>
    <path class="cls-1" d="M72.44,51.16h1.47v11.41h-1.47v-11.41Z"/>
    <path class="cls-1" d="M87.5,51.16h1.57l3.54,9.22,3.54-9.22h1.52l-4.43,11.41h-1.33l-4.43-11.41Z"/>
    <path class="cls-1" d="M111.28,51.16h8.49v1.35h-7.02v3.51h6.19v1.35h-6.19v3.86h7.19v1.35h-8.66v-11.41Z"/>
    <path class="cls-1" d="M134.25,51.16h4.82c2.63,0,3.99,1.12,3.99,3.34,0,1.82-.93,2.9-2.71,3.23l3.54,4.84h-1.83l-3.48-4.74h-2.87v4.74h-1.47v-11.41ZM139.07,56.48c1.73,0,2.51-.61,2.51-1.99s-.78-1.99-2.51-1.99h-3.35v3.98h3.35Z"/>
    <path class="cls-1" d="M156.99,61.62v-1.64c.97.92,2.46,1.43,4.03,1.43,1.88,0,2.92-.73,2.92-1.95,0-.97-.66-1.56-2.23-1.88l-1.78-.38c-2.09-.45-2.9-1.54-2.9-2.97,0-2.02,1.59-3.27,4.31-3.27,1.43,0,2.75.35,3.51.95v1.59c-.83-.76-2.14-1.18-3.53-1.18-1.78,0-2.78.69-2.78,1.83,0,.85.55,1.4,2.14,1.73l1.82.38c2.07.43,2.96,1.54,2.96,3.13,0,2.16-1.61,3.39-4.43,3.39-1.64,0-3.15-.41-4.03-1.16Z"/>
    <path class="cls-1" d="M179.66,51.16h1.47v11.41h-1.47v-11.41Z"/>
    <path class="cls-1" d="M198.74,52.52h-3.91v-1.37h9.28v1.37h-3.91v10.05h-1.47v-10.05Z"/>
    <path class="cls-1" d="M222.17,57.52v5.05h-1.47v-5.03l-4.36-6.38h1.76l3.35,4.91,3.35-4.91h1.71l-4.36,6.36Z"/>
  </g>
<!-- Code injected by live-server -->
<script>
	// <![CDATA[  <-- For SVG support
	if ('WebSocket' in window) {
		(function () {
			function refreshCSS() {
				var sheets = [].slice.call(document.getElementsByTagName("link"));
				var head = document.getElementsByTagName("head")[0];
				for (var i = 0; i < sheets.length; ++i) {
					var elem = sheets[i];
					var parent = elem.parentElement || head;
					parent.removeChild(elem);
					var rel = elem.rel;
					if (elem.href && typeof rel != "string" || rel.length == 0 || rel.toLowerCase() == "stylesheet") {
						var url = elem.href.replace(/(&|\?)_cacheOverride=\d+/, '');
						elem.href = url + (url.indexOf('?') >= 0 ? '&' : '?') + '_cacheOverride=' + (new Date().valueOf());
					}
					parent.appendChild(elem);
				}
			}
			var protocol = window.location.protocol === 'http:' ? 'ws://' : 'wss://';
			var address = protocol + window.location.host + window.location.pathname + '/ws';
			var socket = new WebSocket(address);
			socket.onmessage = function (msg) {
				if (msg.data == 'reload') window.location.reload();
				else if (msg.data == 'refreshcss') refreshCSS();
			};
			if (sessionStorage && !sessionStorage.getItem('IsThisFirstTime_Log_From_LiveServer')) {
				console.log('Live reload enabled.');
				sessionStorage.setItem('IsThisFirstTime_Log_From_LiveServer', true);
			}
		})();
	}
	else {
		console.error('Upgrade your browser. This Browser is NOT supported WebSocket for Live-Reloading.');
	}
	// ]]>
</script>
</svg>