<?xml version="1.0" encoding="UTF-8"?>
<svg id="Layer_1" xmlns="http://www.w3.org/2000/svg" viewBox="0 0 261.04 40.93">
  <defs>
    <style>
      .cls-1 {
        fill: #003055;
      }

      .cls-2 {
        fill: #e6b220;
      }
    </style>
  </defs>
  <g>
    <path class="cls-1" d="M24.23,4.12c-1.5-1.99-4.52-3.13-8.3-3.13C10.61.99.99,6.66.99,20.16c0,12.29,7.85,19.79,17.57,19.79,8.57,0,14.97-5.62,15.93-15.74.08-.88.13-.08.13-1.02h-10.38v.12c0,1.11-.08,1.66-.24,2.6-.5,2.82-1.8,4.7-4.19,4.7-3.19,0-4.44-3.35-4.44-7.79v-5.3c0-4.45,1.24-7.79,4.44-7.79,2.57,0,3.88,2.17,4.29,5.34.1.77.15.36.15,1.22v.16h10.38V1.32h-10.38v2.8Z"/>
    <path class="cls-1" d="M57.65,1.32l-.05,3.05c-1.51-2.4-4.92-3.38-8.29-3.38-7.63,0-13.18,4.93-13.18,11.48,0,14.59,18.15,11.09,18.15,15.59,0,1.65-1.11,2.85-2.79,2.85-3.06,0-5.41-1.8-5.41-5.54h-9.94v13.64h10.12v-3.05c1.64,2.5,5.32,4,8.7,4,3.7,0,6.85-1.31,9.11-3.4v-14.71h-6.11s.08-6.07-.09-6.13c-4.2-1.38-8.14-1.85-8.14-3.94,0-1.65,1.11-2.85,2.79-2.85,3.06,0,5.28,1.8,5.28,5.54h6.27v-6.69h3.12s0-6.45,0-6.45h-9.52Z"/>
    <path class="cls-1" d="M92.56,1.32h-23.96v6.46h3.36v6.6h6.05l.07,7.45h-6.11v17.16h16.6v-9.64h-3.59v-5.24h7.59c7.32,0,11.8-4.9,11.8-11.39,0-6.45-4.48-11.4-11.8-11.4ZM90.69,15.81c-.72.9-1.88,1.35-3.46,1.35h-2.26v-8.39h2.26c1.59,0,2.74.45,3.46,1.35.59.77.89,1.72.89,2.86s-.3,2.07-.89,2.84Z"/>
    <path class="cls-2" d="M92.56.33h-35.89v.97s-.02.67-.02.67C54.87.71,52.33,0,49.31,0c-6.77,0-12.15,3.77-13.71,9.17V.33h-12.35v1.55c-1.82-1.21-4.37-1.88-7.31-1.88-2.61,0-6.66,1.27-10.17,4.82C3.14,7.48,0,12.29,0,20.16c0,6.13,1.87,11.38,5.41,15.18,3.36,3.61,8.03,5.6,13.15,5.6,8.72,0,14.91-5.43,16.59-14.33v13.38h12.09v-1.57c1.99,1.56,4.82,2.52,7.71,2.52,3.75,0,7.22-1.3,9.78-3.66l.32-.29v-16.13h-6.1c0-.57,0-1.32,0-2.06,0-.89,0-1.61-.02-2.13-.01-.49-.03-.89-.12-1.21h6.24v-6.69h2.14s.45,0,.45,0h3.36v6.6h6.06l.05,5.47h-6.1v19.14h18.57v-11.62h-3.6v-3.27h6.6c7.53,0,12.79-5.09,12.79-12.38,0-7.29-5.26-12.37-12.79-12.37ZM34.49,24.2c-.97,10.12-7.37,15.74-15.93,15.74C8.84,39.94.99,32.45.99,20.16.99,6.66,10.61.99,15.94.99c3.77,0,6.79,1.13,8.3,3.13V1.32h10.38v15.13h-10.38v-.16c0-.87-.05-.46-.15-1.22-.41-3.17-1.72-5.34-4.29-5.34-3.19,0-4.44,3.35-4.44,7.79v5.3c0,4.44,1.24,7.79,4.44,7.79,2.39,0,3.69-1.88,4.19-4.7.16-.94.24-1.49.24-2.6v-.12h10.38c0,.95-.04.15-.13,1.03ZM35.47,24.37s0-.05,0-.07c0-.08.01-.14.02-.18.11-.24.11-.51.11-.94v-.99h-12.36v1.11c0,1.03-.07,1.51-.23,2.43-.69,3.89-2.6,3.89-3.22,3.89-3,0-3.45-4.27-3.45-6.81v-5.29c0-2.54.45-6.81,3.45-6.81,1.81,0,2.93,1.5,3.31,4.48.05.34.08.51.12.64v.03s.02.1.02.42v1.15h12.36v-1.16c1.15,4.42,4.3,6.71,7.65,8.09h-7.13s-.66,0-.66,0ZM67.18,7.78h-3.12s0,6.68,0,6.68h-6.27c0-3.75-2.22-5.54-5.28-5.54-1.68,0-2.79,1.2-2.79,2.85,0,2.09,3.94,2.57,8.14,3.94.18.06.09,6.13.09,6.13h6.11v14.71c-2.26,2.09-5.41,3.4-9.11,3.4-3.37,0-7.05-1.5-8.7-4v3.05h-10.12v-13.64h9.94c0,3.75,2.35,5.54,5.41,5.54,1.68,0,2.79-1.2,2.79-2.85,0-4.5-18.15-1-18.15-15.59,0-6.55,5.55-11.48,13.18-11.48,3.37,0,6.78.98,8.29,3.38l.05-3.05h9.53v6.46h0ZM56.79,14.34c-.52-.16-1.03-.3-1.53-.44-2.25-.63-4.58-1.29-4.58-2.15,0-1.13.71-1.86,1.81-1.86,2.74,0,4.26,1.58,4.29,4.45ZM47.06,25.62c.58.16,1.15.3,1.69.44,2.23.56,4.54,1.15,4.54,1.99,0,1.13-.71,1.86-1.81,1.86-2.72,0-4.32-1.56-4.42-4.29ZM92.56,24.1h-7.59v5.24h3.59v9.64h-16.6v-17.16h6.11l-.07-7.45h-6.05v-6.59h-3.36V1.32h23.96c7.32,0,11.8,4.95,11.8,11.39,0,6.5-4.49,11.4-11.81,11.4Z"/>
    <path class="cls-2" d="M87.23,8.77h-2.26v8.4h2.26c1.59,0,2.74-.45,3.46-1.35.59-.76.89-1.71.89-2.84s-.3-2.1-.89-2.86c-.72-.9-1.88-1.35-3.46-1.35ZM89.91,15.21c-.52.64-1.4.96-2.69.96h-1.27v-6.42h1.27c1.28,0,2.17.32,2.69.98.45.58.67,1.32.67,2.25,0,.91-.22,1.64-.68,2.23Z"/>
  </g>
  <g>
    <path class="cls-1" d="M245.85,32.41h14.46v-3.86h-10.19V8.44h-4.27v23.98ZM226.11,23.27l3.76-9.75,3.69,9.75h-7.45ZM217.71,32.41h4.77l2.17-5.48h10.39l2.23,5.48h4.88l-10.33-23.98h-3.69l-10.43,23.98ZM201.69,21.85h4.1c1.74,0,3.02.25,3.84.74.82.5,1.24,1.38,1.24,2.64,0,.79-.17,1.42-.51,1.88-.34.46-.77.82-1.29,1.07-.52.25-1.09.4-1.71.48-.62.07-1.2.1-1.74.1h-3.93v-6.91h0ZM201.69,12.1h3.52c1.63,0,2.8.25,3.54.76s1.1,1.28,1.1,2.32c0,.9-.36,1.63-1.07,2.18-.71.55-1.78.83-3.2.83h-3.89v-6.09ZM197.43,32.41h8.63c1.13,0,2.24-.11,3.33-.34s2.06-.6,2.91-1.13c.85-.53,1.53-1.23,2.05-2.1.52-.87.78-1.96.78-3.27,0-.77-.13-1.49-.39-2.15-.26-.67-.62-1.25-1.07-1.76s-1-.93-1.64-1.25-1.34-.54-2.08-.63v-.07c1.24-.39,2.25-1.02,3.01-1.9s1.15-2,1.15-3.35c0-1.08-.22-2.01-.64-2.77s-.99-1.39-1.67-1.88c-.69-.48-1.47-.84-2.35-1.05-.88-.22-1.77-.32-2.68-.32h-9.35v23.96h0ZM171.98,16.9c.4-1.04.95-1.95,1.67-2.73s1.58-1.39,2.59-1.83c1-.44,2.13-.66,3.37-.66s2.37.22,3.39.66c1.02.44,1.89,1.05,2.61,1.83.72.78,1.28,1.69,1.67,2.73s.59,2.15.59,3.35c0,1.29-.2,2.47-.59,3.56s-.95,2.02-1.67,2.81c-.72.79-1.59,1.41-2.61,1.86s-2.14.68-3.39.68-2.37-.23-3.37-.68c-1.01-.45-1.87-1.07-2.59-1.86s-1.28-1.73-1.67-2.81c-.4-1.08-.59-2.27-.59-3.56,0-1.19.2-2.31.59-3.35M167.87,25.64c.63,1.54,1.5,2.85,2.62,3.95,1.12,1.1,2.45,1.94,4,2.54s3.25.9,5.1.9c1.87-.02,3.59-.34,5.15-.96s2.9-1.49,4.03-2.59,2.01-2.43,2.64-3.96c.63-1.53.95-3.24.95-5.11s-.32-3.66-.95-5.22c-.63-1.56-1.51-2.89-2.64-4-1.13-1.11-2.47-1.95-4.03-2.52-1.56-.57-3.27-.85-5.15-.83-1.85,0-3.55.3-5.1.9s-2.88,1.45-4,2.56c-1.12,1.11-1.99,2.45-2.62,4.01-.63,1.57-.95,3.31-.95,5.23s.32,3.57.95,5.11M149.61,32.41h14.46v-3.86h-10.19V8.44h-4.27v23.98h0ZM143.55,18.39h-9.18v3.86h4.91v5.65c-.74.43-1.6.74-2.56.95-.96.2-1.98.31-3.07.31-1.24,0-2.37-.23-3.37-.68-1.01-.45-1.87-1.07-2.59-1.86s-1.28-1.73-1.67-2.81c-.4-1.08-.59-2.27-.59-3.56,0-1.19.2-2.31.59-3.35s.95-1.95,1.67-2.73c.72-.78,1.58-1.39,2.59-1.83,1.01-.44,2.13-.66,3.37-.66s2.38.2,3.47.61c1.1.4,2.03.98,2.79,1.73l3.15-3.18c-1.27-1.13-2.7-1.91-4.3-2.35-1.6-.44-3.32-.66-5.15-.66s-3.55.3-5.1.9-2.88,1.45-4,2.56c-1.12,1.11-1.99,2.45-2.62,4.01-.63,1.57-.95,3.31-.95,5.23s.32,3.58.95,5.11c.63,1.54,1.5,2.85,2.62,3.95,1.12,1.1,2.45,1.94,4,2.54s3.25.9,5.1.9c3.66,0,6.97-.79,9.92-2.37v-12.26h0Z"/>
    <rect class="cls-2" x="120.32" y=".25" width="140.71" height="1.88"/>
    <rect class="cls-2" x="120.32" y="38.37" width="140.71" height="1.88"/>
  </g>
<!-- Code injected by live-server -->
<script>
	// <![CDATA[  <-- For SVG support
	if ('WebSocket' in window) {
		(function () {
			function refreshCSS() {
				var sheets = [].slice.call(document.getElementsByTagName("link"));
				var head = document.getElementsByTagName("head")[0];
				for (var i = 0; i < sheets.length; ++i) {
					var elem = sheets[i];
					var parent = elem.parentElement || head;
					parent.removeChild(elem);
					var rel = elem.rel;
					if (elem.href && typeof rel != "string" || rel.length == 0 || rel.toLowerCase() == "stylesheet") {
						var url = elem.href.replace(/(&|\?)_cacheOverride=\d+/, '');
						elem.href = url + (url.indexOf('?') >= 0 ? '&' : '?') + '_cacheOverride=' + (new Date().valueOf());
					}
					parent.appendChild(elem);
				}
			}
			var protocol = window.location.protocol === 'http:' ? 'ws://' : 'wss://';
			var address = protocol + window.location.host + window.location.pathname + '/ws';
			var socket = new WebSocket(address);
			socket.onmessage = function (msg) {
				if (msg.data == 'reload') window.location.reload();
				else if (msg.data == 'refreshcss') refreshCSS();
			};
			if (sessionStorage && !sessionStorage.getItem('IsThisFirstTime_Log_From_LiveServer')) {
				console.log('Live reload enabled.');
				sessionStorage.setItem('IsThisFirstTime_Log_From_LiveServer', true);
			}
		})();
	}
	else {
		console.error('Upgrade your browser. This Browser is NOT supported WebSocket for Live-Reloading.');
	}
	// ]]>
</script>
</svg>