<?xml version="1.0" encoding="UTF-8"?>
<svg id="Layer_1" xmlns="http://www.w3.org/2000/svg" viewBox="0 0 258.71 79.68">
  <defs>
    <style>
      .cls-1 {
        fill: #002d5b;
      }

      .cls-2 {
        fill: #ae842d;
      }
    </style>
  </defs>
  <g>
    <path class="cls-2" d="M67.05,0v3.27c9.92.68,10.14.9,10.14,7.21v36.51c0,10.71-1.69,17.47-5.07,21.97-3.49,4.51-8.46,6.76-14.99,6.76s-11.38-2.25-14.88-6.76c-3.38-4.51-5.07-11.27-5.07-21.97V10.48c0-6.31.34-6.54,10.14-7.21V0H15.88v3.27c9.92.68,10.14.9,10.14,7.21v38.99c.11,6.65,1.13,12.62,3.04,16.45,5.18,11.04,17.02,13.75,28.06,13.75s22.99-2.59,28.18-13.75c1.92-3.94,3.04-9.92,3.04-16.68V10.48c0-6.31.34-6.54,10.14-7.21V0h-31.44Z"/>
    <g>
      <path class="cls-1" d="M121.58,37.85c0,18.89-16.96,30.11-34.42,30.11-.92,0-1.84-.03-2.75-.09.31-.53.6-1.1.87-1.68,1.29-2.65,2.22-6.22,2.69-10.32,9.62-.42,16.98-8.27,16.98-18.01s-7.79-17.95-17.79-17.95-17.87,7.94-17.87,17.95c0,6.22,3.01,11.67,7.7,14.91-.37,5.5-1.32,9.74-2.87,13.05-11.99-4.1-21.37-13.91-21.37-27.96,0-18.9,16.96-30.03,34.41-30.03s34.42,11.13,34.42,30.03"/>
      <path class="cls-1" d="M52.05,9.35H0v56.9h52.05v-12.85H15.31v-9.86h10.7v-12.63h-10.7v-8.82h36.73v-12.75ZM47.7,43.55v-12.63h-10.6v12.63h10.6Z"/>
    </g>
  </g>
  <g>
    <path class="cls-2" d="M145.17,71.36c0,1.71-.89,2.59-2.34,2.59s-2.35-.93-2.35-2.66v-5.29h-1.63v5.35c0,2.7,1.54,4.09,3.96,4.09s4-1.4,4-4.17v-5.28h-1.63v5.35ZM159.67,72.43l-4.98-6.43h-1.51v9.3h1.61v-6.62l5.13,6.62h1.37v-9.3h-1.61v6.43ZM167.88,75.3h1.63v-9.3h-1.63v9.3ZM179.93,73.15l-2.8-7.15h-1.81l3.87,9.37h1.44l3.87-9.37h-1.77l-2.79,7.15ZM191.83,71.34h4.66v-1.46h-4.66v-2.42h5.26v-1.46h-6.9v9.3h6.96v-1.46h-5.33v-2.5ZM210.82,68.95c0-1.82-1.32-2.95-3.45-2.95h-4.15v9.3h1.63v-3.24h2.05l2.29,3.24h1.93l-2.51-3.52c1.3-.36,2.22-1.29,2.22-2.83ZM204.86,70.61v-3.12h2.38c1.21,0,1.93.53,1.93,1.55,0,.96-.74,1.57-1.91,1.57h-2.39ZM220.54,69.91c-1.78-.43-2.21-.74-2.21-1.47,0-.62.56-1.12,1.51-1.12.85,0,1.69.33,2.52.96l.88-1.24c-.94-.76-2.02-1.17-3.37-1.17-1.85,0-3.18,1.09-3.18,2.71,0,1.73,1.12,2.31,3.1,2.79,1.73.4,2.1.76,2.1,1.44,0,.72-.64,1.18-1.65,1.18-1.16,0-2.05-.44-2.94-1.21l-.98,1.17c1.12,1,2.46,1.49,3.88,1.49,1.95,0,3.32-1.04,3.32-2.79,0-1.55-1.02-2.26-2.99-2.74ZM229.66,75.3h1.63v-9.3h-1.63v9.3ZM237.24,67.52h2.95v7.79h1.65v-7.79h2.95v-1.51h-7.55v1.51ZM256.84,66l-2.63,4.12-2.6-4.12h-1.93l3.69,5.63v3.67h1.65v-3.71l3.69-5.59h-1.87Z"/>
    <g>
      <path class="cls-1" d="M150.94,25.71c-.15,0-.21.09-.28.4-.15,1.04-.52,1.5-1.23,1.81-.71.28-1.99.28-2.7.28-2.67,0-3.16-.34-3.22-2.08-.03-.52,0-3.56,0-4.44v-2.18c0-.09.03-.18.18-.18.46,0,3.34.03,4.08.12,1.04.12,1.29.43,1.38.8.12.34.12.61.12.86,0,.15.06.25.18.25.18,0,.24-.28.24-.49,0-.18.06-1.16.12-1.69.06-.86.21-1.29.21-1.44s-.06-.21-.15-.21-.21.15-.4.34c-.28.28-.67.31-1.32.37-.61.06-4.17.06-4.51.06-.15,0-.15-.09-.15-.28v-7.08c0-.18.03-.28.15-.28.31,0,3.43.03,3.89.09,1.47.18,1.75.37,1.93.8.12.31.15.74.15.92,0,.21.06.34.21.34.12,0,.21-.15.25-.28.06-.31.12-1.47.15-1.72.06-.74.21-1.04.21-1.23,0-.12-.03-.25-.12-.25-.12,0-.25.09-.37.12-.21.03-.7.12-1.23.15-.61.03-6.25,0-6.44,0-.15,0-1.9-.06-3.13-.06-.31,0-.43.06-.43.21,0,.09.12.21.21.21.25,0,.71.03.92.06.89.12,1.04.55,1.1,1.44.06.83.06,1.56.06,5.61v4.6c0,2.51,0,4.57-.15,5.64-.12.77-.18,1.29-.7,1.38-.25.03-.58.12-.83.12-.15,0-.21.12-.21.21,0,.15.15.21.43.21.43,0,1.04-.03,1.56-.06.58-.03,1.1-.03,1.16-.03.4,0,1.1,0,2.24.06,1.1.03,2.67.09,4.69.09,1.04,0,1.32,0,1.5-.67.15-.55.37-2.33.37-2.51s-.03-.4-.18-.4ZM172.89,28.81c-.28,0-.67-.03-1.07-.15-.58-.18-1.32-.52-2.3-2.85-1.66-3.95-5.98-14.71-6.47-15.82-.28-.58-.37-.95-.64-.95-.18,0-.31.15-.64,1.01l-6.35,16.31c-.52,1.32-1.04,2.24-2.27,2.39-.21.03-.61.06-.8.06-.12,0-.25.09-.25.21,0,.15.18.21.52.21,1.1,0,2.45-.09,2.73-.09.31,0,1.78.09,2.42.09.25,0,.4-.06.4-.21,0-.12-.06-.21-.28-.21h-.25c-.46,0-.92-.18-.92-.7,0-.46.15-1.1.4-1.75l1.53-4.17c.06-.15.15-.21.28-.21h6.22c.15,0,.18.03.24.15l2.42,5.98c.18.43-.09.64-.25.7-.12.06-.18.06-.18.18,0,.15.43.15.95.18,1.87.06,3.86.06,4.26.06.31,0,.61-.06.61-.21s-.18-.21-.34-.21ZM164.77,20.9h-5.46c-.09,0-.12-.06-.09-.18l2.51-7.14c.15-.4.31-.4.46,0l2.67,7.14c.03.12.03.18-.09.18ZM180.52,17.92l-.77-.52c-2.67-1.81-3.49-2.76-3.49-4.41,0-1.84,1.62-2.82,3.59-2.82,2.42,0,3.31.98,3.49,1.29.15.28.37.98.4,1.29.03.21.06.34.25.34s.21-.18.21-.58c0-1.78.12-2.64.12-2.76,0-.15-.06-.18-.28-.18s-.43,0-.95-.12c-.64-.15-1.72-.31-2.79-.31-3.56,0-5.98,1.84-5.98,4.9,0,1.81.95,3.4,3.86,5.58l1.23.92c2.39,1.78,3.4,2.67,3.4,4.54,0,1.96-1.38,3.46-4.05,3.46-1.81,0-3.83-.67-4.26-2.58-.09-.37-.09-.74-.09-.95s-.09-.31-.25-.31-.21.15-.21.43c-.03.43-.15,1.47-.15,2.76,0,.7.03.8.4.98,1.1.52,2.67.71,3.92.71,1.47,0,3.16-.18,4.29-.92,1.93-1.26,2.51-2.91,2.51-4.44,0-2.24-1.13-4.05-4.41-6.28ZM203.02,9.34c-.12,0-.37.06-.77.12-.43.06-1.04.12-1.93.12h-10.18c-.31,0-1.35-.03-2.12-.12-.74-.09-1.01-.31-1.2-.31-.09,0-.21.34-.28.49-.03.21-.58,2.54-.58,2.82,0,.15.12.21.18.21.12,0,.21-.03.28-.25.09-.18.12-.37.43-.83.4-.61,1.04-.8,2.73-.83l3.89-.06v10.94c0,2.51,0,4.57-.12,5.64-.09.77-.25,1.29-.8,1.41-.25.06-.55.12-.8.12-.15,0-.21.09-.21.18,0,.15.12.21.43.21.8,0,2.67-.09,2.79-.09.15,0,1.87.09,3.34.09.31,0,.43-.09.43-.21,0-.09-.03-.21-.21-.21-.25,0-.86-.06-1.23-.12-.83-.12-.95-.61-1.04-1.38-.12-1.07-.12-3.13-.12-5.64v-10.94l3.37.06c2.57.06,3.16.64,3.25,1.44l.03.28c.03.37.09.46.21.46s.25-.12.25-.34c0-.31.09-2.18.09-2.97,0-.15,0-.31-.12-.31ZM216.28,25.71c-.15,0-.21.09-.28.4-.15,1.04-.52,1.5-1.23,1.81-.71.28-1.99.28-2.7.28-2.67,0-3.16-.34-3.22-2.08-.03-.52,0-3.56,0-4.44v-2.18c0-.09.03-.18.18-.18.46,0,3.34.03,4.08.12,1.04.12,1.29.43,1.38.8.12.34.12.61.12.86,0,.15.06.25.18.25.18,0,.24-.28.24-.49,0-.18.06-1.16.12-1.69.06-.86.21-1.29.21-1.44s-.06-.21-.15-.21-.21.15-.4.34c-.28.28-.67.31-1.32.37-.61.06-4.17.06-4.51.06-.15,0-.15-.09-.15-.28v-7.08c0-.18.03-.28.15-.28.31,0,3.43.03,3.89.09,1.47.18,1.75.37,1.93.8.12.31.15.74.15.92,0,.21.06.34.21.34.12,0,.21-.15.25-.28.06-.31.12-1.47.15-1.72.06-.74.21-1.04.21-1.23,0-.12-.03-.25-.12-.25-.12,0-.25.09-.37.12-.21.03-.7.12-1.23.15-.61.03-6.25,0-6.44,0-.15,0-1.9-.06-3.13-.06-.31,0-.43.06-.43.21,0,.09.12.21.21.21.25,0,.71.03.92.06.89.12,1.04.55,1.1,1.44.06.83.06,1.56.06,5.61v4.6c0,2.51,0,4.57-.15,5.64-.12.77-.18,1.29-.7,1.38-.25.03-.58.12-.83.12-.15,0-.21.12-.21.21,0,.15.15.21.43.21.43,0,1.04-.03,1.56-.06.58-.03,1.1-.03,1.16-.03.4,0,1.1,0,2.24.06,1.1.03,2.67.09,4.69.09,1.04,0,1.32,0,1.5-.67.15-.55.37-2.33.37-2.51s-.03-.4-.18-.4ZM258.16,9.53c-1.1,0-1.99.06-2.3.06s-1.59-.06-2.82-.06c-.31,0-.52.03-.52.18,0,.09.03.25.21.25.21,0,.83.03,1.32.12.83.15.98.74,1.01,2.42l.28,13.06c-.83-.86-3.71-3.95-6.38-6.71-4.17-4.29-8.09-8.46-8.52-8.89-.28-.28-.74-.8-1.04-.8-.21,0-.37.28-.37,1.32v14.93c0,2.18-.08,2.95-.62,3.2-.04.02-.3.13-.7.02-.61-.16-1.41-.55-2.55-1.72-1.56-1.62-3.43-3.98-5.64-6.74,2.51-2.15,3.31-4.02,3.31-5.95,0-1.81-1.2-3.07-1.87-3.56-1.41-.98-3.31-1.13-5.03-1.13-.83,0-3.1.06-3.37.06-.15,0-1.96-.06-3.19-.06-.31,0-.43.06-.43.21,0,.09.12.21.21.21.25,0,.71.03.92.06.89.12,1.04.55,1.1,1.44.06.83.06,1.56.06,5.61v4.6c0,2.51,0,4.57-.15,5.64-.12.77-.18,1.26-.7,1.38-.25.06-.58.12-.83.12-.15,0-.21.12-.21.21,0,.15.15.21.43.21.83,0,2.64-.09,2.67-.09.12,0,1.84.09,3.31.09.31,0,.43-.09.43-.21,0-.09-.03-.21-.21-.21-.24,0-.83-.06-1.2-.12-.83-.12-.98-.61-1.07-1.38-.12-1.07-.12-3.1-.12-5.61v-.61c0-.15.06-.21.18-.21l3.43.06c.18,0,.25.03.37.15.58.7,1.78,2.39,2.91,3.8,1.53,1.96,2.51,3.22,3.68,3.83.67.37,1.35.52,2.88.52h.38s0,0,0,0c1.21,0,2.33-.09,2.57-.09s1.32.09,2.85.09c.31,0,.49-.06.49-.21,0-.12-.09-.21-.21-.21-.25,0-.86-.03-1.35-.15-.74-.18-.98-.83-1.04-2.97l-.31-12.29c.83.92,3.86,4.11,6.99,7.39,2.85,2.97,6.74,6.8,7.02,7.05,1.5,1.38,1.78,1.59,2.05,1.59.18,0,.21-.15.21-1.87l.06-15.27c0-1.56.06-2.08.95-2.27.31-.06.52-.06.64-.06.18,0,.31-.15.31-.25,0-.15-.21-.18-.49-.18ZM228.75,19.55c-.64.43-1.38.46-2.02.46-1.2,0-2.58-.18-2.97-.4-.12-.09-.18-.18-.18-.34v-8.37c0-.15.09-.25.21-.31.28-.06,1.13-.15,1.93-.15,2.88,0,4.66,1.87,4.66,5.12,0,1.99-.7,3.37-1.62,3.98Z"/>
      <path class="cls-1" d="M148.82,35.62c-7.4,0-10.63,5.94-10.63,10.11,0,4.66,3.14,10.17,10.47,10.17,6.45,0,10.75-4.78,10.75-10.57s-4.57-9.71-10.6-9.71ZM149.43,54.83c-4.84,0-8.46-3.78-8.46-9.8,0-5.63,3.23-8.43,7.7-8.43,4.23,0,8.01,3.26,8.01,9.47,0,7.49-4.84,8.77-7.25,8.77ZM191.01,52.06c-.15,0-.21.09-.27.4-.15,1.03-.52,1.49-1.22,1.8-.7.27-1.98.27-2.68.27-2.65,0-3.14-.34-3.2-2.07-.03-.52,0-3.53,0-4.41v-2.16c0-.09.03-.18.18-.18.46,0,3.32.03,4.05.12,1.04.12,1.28.43,1.37.79.12.33.12.61.12.85,0,.15.06.24.18.24.18,0,.24-.27.24-.49,0-.18.06-1.16.12-1.67.06-.85.21-1.28.21-1.43s-.06-.21-.15-.21-.21.15-.4.33c-.27.27-.67.3-1.31.37-.61.06-4.14.06-4.48.06-.15,0-.15-.09-.15-.27v-7.03c0-.18.03-.27.15-.27.3,0,3.41.03,3.87.09,1.46.18,1.74.36,1.92.79.12.3.15.73.15.91,0,.21.06.33.21.33.12,0,.21-.15.24-.27.06-.3.12-1.46.15-1.7.06-.73.21-1.04.21-1.22,0-.12-.03-.24-.12-.24-.12,0-.24.09-.37.12-.21.03-.7.12-1.22.15-.61.03-6.21,0-6.39,0-.15,0-1.89-.06-3.11-.06-.3,0-.43.06-.43.21,0,.09.12.21.21.21.24,0,.7.03.91.06.88.12,1.04.55,1.1,1.43.06.82.06,1.55.06,5.57v4.57c0,2.5,0,4.54-.15,5.6-.12.76-.18,1.28-.7,1.37-.15.02-.72.05-.86.03-.67-.09-1.55-.33-2.98-1.8-1.55-1.61-3.41-3.96-5.6-6.7,2.5-2.13,3.29-3.99,3.29-5.91,0-1.8-1.19-3.05-1.86-3.53-1.4-.97-3.29-1.13-4.99-1.13-.82,0-3.07.06-3.35.06-.15,0-1.95-.06-3.17-.06-.3,0-.43.06-.43.21,0,.09.12.21.21.21.24,0,.7.03.91.06.88.12,1.04.55,1.1,1.43.06.82.06,1.55.06,5.57v4.57c0,2.5,0,4.54-.15,5.6-.12.76-.18,1.25-.7,1.37-.24.06-.58.12-.82.12-.15,0-.21.12-.21.21,0,.15.15.21.43.21.82,0,2.62-.09,2.65-.09.12,0,1.83.09,3.29.09.3,0,.43-.09.43-.21,0-.09-.03-.21-.21-.21-.24,0-.82-.06-1.19-.12-.82-.12-.97-.61-1.07-1.37-.12-1.07-.12-3.08-.12-5.57v-.61c0-.15.06-.21.18-.21l3.41.06c.18,0,.24.03.37.15.58.7,1.77,2.38,2.89,3.78,1.52,1.95,2.5,3.2,3.65,3.81.67.37,1.34.52,2.86.52h1.36s0,0,0,0c0,0,.01,0,.02,0,.43,0,1.04-.03,1.55-.06.58-.03,1.1-.03,1.16-.03.4,0,1.1,0,2.22.06,1.1.03,2.65.09,4.66.09,1.04,0,1.31,0,1.49-.67.15-.55.37-2.31.37-2.5s-.03-.4-.18-.4ZM170.15,45.94c-.64.43-1.37.46-2.01.46-1.19,0-2.56-.18-2.95-.4-.12-.09-.18-.18-.18-.33v-8.31c0-.15.09-.24.21-.3.27-.06,1.13-.15,1.92-.15,2.86,0,4.63,1.86,4.63,5.08,0,1.98-.7,3.35-1.61,3.96ZM213.01,45.85c-.82,0-2.5.06-2.62.06-.15,0-1.95-.06-3.17-.06-.3,0-.43.03-.43.21,0,.09.12.21.21.21.24,0,.7.03.91.06,1.1.21,1.16.52,1.16,2.62v4.48c0,.49-.21.61-.55.79-.7.4-1.95.49-2.89.49-2.47,0-4.72-.73-6.85-2.71-.94-.88-2.83-3.5-2.83-7.16,0-3.01,1.1-5.33,2.65-6.52,2.04-1.55,3.99-1.67,5.6-1.67,3.47,0,5.51,1.04,6.18,2.01.43.61.58,1.37.61,1.7,0,.24.03.4.18.4.18,0,.3-.12.3-.55,0-2.59.15-3.29.15-3.65,0-.12-.06-.24-.34-.24-.67,0-1.61-.15-2.16-.27-.52-.12-2.41-.43-4.11-.43-2.04,0-4.72.18-7.12,1.64-2.38,1.43-4.48,4.35-4.48,8.49,0,3.23,1.55,6,3.2,7.37,2.98,2.53,6.79,2.77,8.83,2.77,1.55,0,3.99-.27,5.69-1.16.34-.18.37-.21.37-1.4v-2.89c0-1.1,0-1.86.03-2.68.06-.91.27-1.31,1-1.43.3-.06.49-.06.67-.06.09,0,.21-.12.21-.21,0-.18-.12-.21-.43-.21ZM225.64,35.62c-7.4,0-10.63,5.94-10.63,10.11,0,4.66,3.14,10.17,10.47,10.17,6.45,0,10.75-4.78,10.75-10.57s-4.57-9.71-10.6-9.71ZM226.25,54.83c-4.84,0-8.46-3.78-8.46-9.8,0-5.63,3.23-8.43,7.7-8.43,4.23,0,8.01,3.26,8.01,9.47,0,7.49-4.84,8.77-7.25,8.77ZM258.16,35.98c-1.1,0-1.98.06-2.28.06s-1.58-.06-2.8-.06c-.3,0-.52.03-.52.18,0,.09.03.24.21.24.21,0,.82.03,1.31.12.82.15.97.73,1,2.41l.27,12.97c-.82-.85-3.68-3.93-6.33-6.67-4.14-4.26-8.04-8.4-8.46-8.83-.27-.27-.73-.79-1.04-.79-.21,0-.37.27-.37,1.31v14.83c0,2.34-.09,3.04-.76,3.23-.4.12-.88.15-1.1.15-.12,0-.21.09-.21.21,0,.18.15.21.43.21,1.22,0,2.34-.09,2.59-.09s1.31.09,2.83.09c.3,0,.49-.06.49-.21,0-.12-.09-.21-.21-.21-.24,0-.85-.03-1.34-.15-.73-.18-.97-.82-1.04-2.95l-.3-12.21c.82.91,3.84,4.08,6.94,7.34,2.83,2.95,6.7,6.76,6.97,7,1.49,1.37,1.77,1.58,2.04,1.58.18,0,.21-.15.21-1.86l.06-15.16c0-1.55.06-2.07.94-2.25.3-.06.52-.06.64-.06.18,0,.3-.15.3-.24,0-.15-.21-.18-.49-.18Z"/>
    </g>
  </g>
<!-- Code injected by live-server -->
<script>
	// <![CDATA[  <-- For SVG support
	if ('WebSocket' in window) {
		(function () {
			function refreshCSS() {
				var sheets = [].slice.call(document.getElementsByTagName("link"));
				var head = document.getElementsByTagName("head")[0];
				for (var i = 0; i < sheets.length; ++i) {
					var elem = sheets[i];
					var parent = elem.parentElement || head;
					parent.removeChild(elem);
					var rel = elem.rel;
					if (elem.href && typeof rel != "string" || rel.length == 0 || rel.toLowerCase() == "stylesheet") {
						var url = elem.href.replace(/(&|\?)_cacheOverride=\d+/, '');
						elem.href = url + (url.indexOf('?') >= 0 ? '&' : '?') + '_cacheOverride=' + (new Date().valueOf());
					}
					parent.appendChild(elem);
				}
			}
			var protocol = window.location.protocol === 'http:' ? 'ws://' : 'wss://';
			var address = protocol + window.location.host + window.location.pathname + '/ws';
			var socket = new WebSocket(address);
			socket.onmessage = function (msg) {
				if (msg.data == 'reload') window.location.reload();
				else if (msg.data == 'refreshcss') refreshCSS();
			};
			if (sessionStorage && !sessionStorage.getItem('IsThisFirstTime_Log_From_LiveServer')) {
				console.log('Live reload enabled.');
				sessionStorage.setItem('IsThisFirstTime_Log_From_LiveServer', true);
			}
		})();
	}
	else {
		console.error('Upgrade your browser. This Browser is NOT supported WebSocket for Live-Reloading.');
	}
	// ]]>
</script>
</svg>