<?xml version="1.0" encoding="UTF-8"?>
<svg id="Layer_1" data-name="Layer 1" xmlns="http://www.w3.org/2000/svg" viewBox="0 0 291.07 75.58">
  <defs>
    <style>
      .cls-1 {
        fill: #231f20;
      }

      .cls-2 {
        fill: #0033a1;
      }
    </style>
  </defs>
  <polygon class="cls-2" points="21.93 33.21 17.82 33.21 17.82 11.28 21.93 11.28 21.93 5.8 2.74 5.8 2.74 11.28 6.85 11.28 6.85 33.21 12.34 38.69 21.93 38.69 21.93 33.21"/>
  <polygon class="cls-2" points="35.64 38.69 45.24 38.69 50.72 33.21 50.72 11.28 54.83 11.28 54.83 5.8 35.64 5.8 35.64 11.28 39.75 11.28 39.75 33.21 35.64 33.21 35.64 38.69"/>
  <polygon class="cls-2" points="55.17 43.83 67.16 31.84 72.64 31.84 72.64 26.36 52.09 26.36 52.09 31.84 54.14 31.84 45.92 40.06 34.27 40.06 34.27 31.84 38.38 31.84 38.38 26.36 19.19 26.36 19.19 31.84 23.3 31.84 23.3 56.51 19.19 56.51 19.19 62 38.38 62 38.38 56.51 34.27 56.51 34.27 48.29 45.92 48.29 54.14 56.51 52.09 56.51 52.09 62 72.64 62 72.64 56.51 67.85 56.51 55.17 43.83"/>
  <path class="cls-2" d="M69.22,53.78l-9.94-9.94,9.25-9.25h6.86v-10.97h-21.93v-9.58h4.11V3.06h-24.67v10.96h4.11v9.58h-16.45v-9.58h4.11V3.06H0v10.96h4.11v20.56h0l6.85,6.86h9.58v12.34h-4.11v10.96h24.69v-10.96h-4.11v-2.74h7.54l4.78,4.8v8.91h26.05v-10.96h-6.16ZM74.02,63.35h-23.3v-8.23h0l-5.48-5.48h-9.58v5.48h4.1v8.23h-21.94v-8.23h4.11v-15.06h-10.28l-6.17-6.2V12.65H1.37V4.43h21.93v8.23h-4.11v12.33h19.19v-12.33h-4.11V4.43h21.93v8.23h-4.11v12.33h21.93v8.23h-6.17l-10.63,10.63,11.31,11.31h5.49v8.21Z"/>
  <path class="cls-1" d="M99.16,3.76v-.73h6.56v.73l-2.61.79v10.67c0,3.85-2.56,7.03-7.23,7.03s-7.44-2.08-7.44-6.43V4.29l-2.91-.53v-.73h8.94v.73l-3.21.53v10.91c0,4.15,2.11,5.67,5.53,5.67,3.23,0,5-2.5,5-5.63V4.56l-2.62-.79Z"/>
  <path class="cls-1" d="M118.43,20.61l2.08.53v.62h-6.47v-.62l2-.53v-7.53c0-2.03-.82-3.2-2.7-3.2-1.18,0-2.25.53-3.44,1.35v9.38l1.97.53v.62h-6.44v-.62l2.09-.53v-10.04l-2.06-.94v-.5l4.16-1.04.26.24-.21,2.2.27.06c1.76-1.65,3.2-2.47,4.79-2.47,2.32,0,3.71,1.41,3.71,4.08v8.41Z"/>
  <path class="cls-1" d="M122.25,9.65v-.5l4.32-1.06.12.09v12.43l1.97.53v.62h-6.44v-.62l2.08-.53v-10.04l-2.06-.92ZM125.48,1.03c.93,0,1.69.76,1.69,1.69,0,1.05-.84,1.9-1.88,1.91-.93,0-1.69-.76-1.69-1.69,0-.02,0-.03,0-.05,0-1.03.83-1.86,1.85-1.88"/>
  <polygon class="cls-1" points="136.48 18.67 136.74 18.67 138.21 14.87 139.83 10.05 137.8 9.2 137.8 8.59 143.3 8.59 143.3 9.2 141.15 10.11 136.3 22.08 135.48 22.08 130.34 9.82 128.51 9.2 128.51 8.59 134.98 8.59 134.98 9.2 133.07 9.82 136.48 18.67"/>
  <path class="cls-1" d="M145.8,14.41c-.12,3.67,1.44,5.94,4.91,5.94,1.38,0,2.41-.41,4.06-1.38l.23.62c-1.82,1.73-3.46,2.64-5.37,2.64-3.76,0-6.38-2.76-6.38-6.85s2.82-7.27,6.44-7.27,5.41,3.03,5.41,6.29h-9.29ZM152.38,13.35c-.12-2.85-1.09-4.35-2.97-4.35s-3.41,1.88-3.58,4.56l6.55-.21Z"/>
  <path class="cls-1" d="M164.94,11.7c-.83,0-1.51-.67-1.51-1.5,0-.15.02-.29.06-.44-.97-.15-2.25,1.03-2.94,2.25v8.6l2.17.53v.62h-6.64v-.62l2.08-.53v-10.04l-2.06-.94v-.5l4.15-1.06.26.24-.21,2.57.29.09c1.27-2.03,2.41-2.85,3.79-2.85,1.27,0,2.12.76,2.12,1.85.07.88-.58,1.65-1.45,1.72-.04,0-.09,0-.13,0"/>
  <path class="cls-1" d="M171.99,22.11c-1.49.02-2.97-.25-4.35-.79v-3.7l.7-.06c.99,2.7,2.17,3.72,4.15,3.72,1.69,0,2.7-.85,2.7-2.44,0-1.13-.82-1.82-3.3-2.76s-4.06-1.85-4.06-3.94c0-2.2,1.88-4.03,4.7-4.03,1.29-.01,2.57.2,3.79.62l.09,3.26-.62.15c-1.13-2.35-2.14-3.21-3.79-3.21-1.21-.09-2.26.82-2.35,2.03,0,1.13.79,1.76,3.05,2.62,3.21,1.21,4.44,2.17,4.44,4.23,0,2.65-2.2,4.32-5.17,4.32"/>
  <path class="cls-1" d="M178.91,9.65v-.5l4.32-1.06.12.09v12.43l1.97.53v.62h-6.41v-.62l2.08-.53v-10.04l-2.08-.92ZM182.15,1.03c.93,0,1.69.76,1.69,1.69,0,1.05-.84,1.9-1.88,1.91-.93,0-1.69-.76-1.69-1.69,0-.02,0-.03,0-.05,0-1.03.83-1.86,1.85-1.88"/>
  <path class="cls-1" d="M190.9,21.99c-1.88,0-2.88-1.13-2.88-3.38v-8.7h-2.25v-.62l2.5-1.13,1.35-3.5h.77v3.79h4.51v1.47h-4.51v7.89c0,1.06.15,1.74.76,2.15.38.26.86.35,1.88.35.65-.01,1.3-.07,1.94-.17v.52c-1.21.81-2.63,1.28-4.08,1.35"/>
  <path class="cls-1" d="M202.37,24.05c-1.18,2.88-2.32,3.88-3.97,3.88-1.38,0-1.97-.86-1.97-1.65.02-.8.69-1.43,1.49-1.41,0,0,0,0,.01,0,.91,0,1.41.53,2.03,1.35.65-.67,1.17-1.46,1.53-2.32l.86-1.94-5.07-12.14-1.79-.61v-.62h6.32v.62l-1.76.61,3.47,9.12h.15l3.12-8.88-2.15-.85v-.62h5.44v.62l-2,.91-5.69,13.94Z"/>
  <path class="cls-1" d="M220.42,22.23c-4.06,0-6.35-3.03-6.35-7.05,0-3.76,2.56-7.06,6.76-7.06s6.32,2.94,6.32,6.96c0,3.76-2.5,7.14-6.73,7.14M220.51,8.99c-2.03,0-3.71,1.85-3.71,6.26s1.85,6.08,3.91,6.08c2.17,0,3.71-1.85,3.71-6.26s-1.69-6.08-3.91-6.08"/>
  <path class="cls-1" d="M233.3,10.01v10.6l2.53.53v.62h-7v-.62l2.08-.53v-10.6h-2.64v-.56l2.64-.76v-1.42c0-2.88.74-4.56,2.25-5.85,1.01-.91,2.32-1.41,3.67-1.41,1.53,0,2.35.77,2.35,1.65.05.75-.52,1.39-1.26,1.44-.06,0-.12,0-.17,0-.91,0-1.56-.5-2.44-2.03-1.32.82-2,2.15-2,5.03v2.68h3.63v1.25h-3.65Z"/>
  <polygon class="cls-1" points="116.91 61.93 121.24 63.43 121.24 64.72 107.83 64.72 107.83 63.53 111.34 62.29 101.08 48.8 96.9 48.8 96.9 62.5 102.06 63.43 102.06 64.72 86.44 64.72 86.44 63.43 92.06 62.5 92.06 34.02 86.44 33.09 86.44 31.79 102.06 31.79 102.06 33.09 96.9 34.02 96.9 46.78 101.44 46.78 112.01 34.69 108.14 33.09 108.14 31.79 119.69 31.79 119.69 33.09 115.06 34.95 104.23 46.27 116.91 61.93"/>
  <path class="cls-1" d="M125.39,51.8c-.2,6.46,2.53,10.44,8.61,10.44,2.42,0,4.23-.72,7.12-2.43l.41,1.09c-3.2,3.05-6.08,4.65-9.44,4.65-6.6,0-11.19-4.86-11.19-12.05s4.9-12.77,11.27-12.77,9.56,5.32,9.56,11.06h-16.34ZM136.94,49.94c-.2-5.01-1.9-7.65-5.21-7.65s-5.98,3.31-6.29,8.01l11.5-.36Z"/>
  <path class="cls-1" d="M167.28,62.71l3.66.93v1.09h-11.34v-1.09l3.5-.93v-13.23c0-3.57-1.44-5.63-4.74-5.63-2.06,0-3.92.94-6.03,2.38v16.49l3.45.93v1.09h-11.27v-1.09l3.66-.93v-17.63l-3.63-1.65v-.88l7.27-1.86.46.41-.36,3.88.47.1c3.09-2.89,5.63-4.34,8.4-4.34,4.07,0,6.5,2.48,6.5,7.18v14.78Z"/>
  <path class="cls-1" d="M180.43,65.13c-3.3,0-5.07-1.96-5.07-5.94v-15.3h-3.97v-1.08l4.38-2.02,2.37-6.15h1.34v6.67h7.94v2.58h-7.94v13.85c0,1.86.26,3.05,1.34,3.77.67.47,1.49.62,3.3.62,1.13-.02,2.26-.12,3.38-.31l.05.93c-2.25,1.4-4.74,2.38-7.17,2.38"/>
  <path class="cls-1" d="M215.39,62.76v.93l-7.32,1.81-.46-.36.36-3.83-.46-.1c-3.1,2.9-5.26,4.34-8.36,4.34-4.38,0-6.55-3.26-6.55-7.44v-13.39l-3.61-1.55v-.62l7.32-1.86.47.41v15.45c0,3.98,1.49,5.84,4.69,5.84,2.06,0,4.02-.93,6.08-2.33v-15.35l-3.66-1.55v-.62l7.37-1.86.47.41v20.85l3.66.81Z"/>
  <path class="cls-1" d="M234.51,48.49c-1.64-.02-2.96-1.36-2.94-3.01,0-.03,0-.07,0-.1-.04-1,.29-1.97.93-2.74-.75-.24-1.53-.36-2.32-.36-4.02,0-8.36,3.31-8.36,10.7,0,5.99,3.87,9.51,8.67,9.51,2.63,0,4.28-.72,6.86-2.07l.52.68c-2.58,2.94-5.72,4.45-9.13,4.45-6.65,0-11.27-4.76-11.27-11.68,0-7.54,5.21-13.13,12.69-13.13,4.51,0,7.12,2.07,7.12,4.65,0,1.76-1.19,3.1-2.78,3.1"/>
  <polygon class="cls-1" points="261.84 62.55 264.73 63.64 264.73 64.72 254.83 64.72 254.83 63.64 256.99 62.55 250.29 53.56 247.87 53.56 247.87 62.71 250.96 63.64 250.96 64.72 240.03 64.72 240.03 63.64 243.69 62.71 243.69 31.07 239.67 29.36 239.67 28.43 247.41 26.42 247.87 26.78 247.87 51.8 250.29 51.8 256.99 44.31 254.21 42.49 254.21 41.56 263.8 41.56 263.8 42.65 260.35 43.99 252.82 51.13 261.84 62.55"/>
  <path class="cls-1" d="M277.61,68.75c-2.06,5.07-4.07,6.83-6.96,6.83-2.42,0-3.45-1.5-3.45-2.9.03-1.41,1.2-2.52,2.61-2.49,0,0,.01,0,.02,0,1.6,0,2.47.94,3.56,2.38,1.14-1.18,2.04-2.57,2.68-4.08l1.49-3.41-8.92-21.35-3.15-1.09v-1.09h11.09v1.08l-3.09,1.09,6.08,16.02h.26l5.46-15.61-3.76-1.5v-1.08h9.54v1.08l-3.5,1.61-9.96,24.51Z"/>
<!-- Code injected by live-server -->
<script>
	// <![CDATA[  <-- For SVG support
	if ('WebSocket' in window) {
		(function () {
			function refreshCSS() {
				var sheets = [].slice.call(document.getElementsByTagName("link"));
				var head = document.getElementsByTagName("head")[0];
				for (var i = 0; i < sheets.length; ++i) {
					var elem = sheets[i];
					var parent = elem.parentElement || head;
					parent.removeChild(elem);
					var rel = elem.rel;
					if (elem.href && typeof rel != "string" || rel.length == 0 || rel.toLowerCase() == "stylesheet") {
						var url = elem.href.replace(/(&|\?)_cacheOverride=\d+/, '');
						elem.href = url + (url.indexOf('?') >= 0 ? '&' : '?') + '_cacheOverride=' + (new Date().valueOf());
					}
					parent.appendChild(elem);
				}
			}
			var protocol = window.location.protocol === 'http:' ? 'ws://' : 'wss://';
			var address = protocol + window.location.host + window.location.pathname + '/ws';
			var socket = new WebSocket(address);
			socket.onmessage = function (msg) {
				if (msg.data == 'reload') window.location.reload();
				else if (msg.data == 'refreshcss') refreshCSS();
			};
			if (sessionStorage && !sessionStorage.getItem('IsThisFirstTime_Log_From_LiveServer')) {
				console.log('Live reload enabled.');
				sessionStorage.setItem('IsThisFirstTime_Log_From_LiveServer', true);
			}
		})();
	}
	else {
		console.error('Upgrade your browser. This Browser is NOT supported WebSocket for Live-Reloading.');
	}
	// ]]>
</script>
</svg>