<?xml version="1.0" encoding="UTF-8"?>
<svg id="Layer_1" xmlns="http://www.w3.org/2000/svg" viewBox="0 0 229.64 95.55">
  <defs>
    <style>
      .cls-1 {
        fill: none;
        stroke: #8c734b;
        stroke-miterlimit: 10;
        stroke-width: 2.76px;
      }

      .cls-2 {
        fill: #8c734b;
      }
    </style>
  </defs>
  <polygon class="cls-2" points="76.75 27.69 74.27 25.75 79.31 24.58 74.18 23.22 77.02 21.53 73.95 20.74 83.68 15.74 73.09 18.4 74.76 16.07 71.89 16.41 74.54 12.15 70.11 14.69 70.69 11.71 68.08 13.27 68.93 8.26 65.89 12.23 65.43 8.96 63.55 11.77 62.33 0 62.31 0 61.09 11.77 59.21 8.96 58.75 12.23 55.71 8.26 56.55 13.27 53.95 11.71 54.53 14.69 50.1 12.15 52.75 16.41 49.88 16.07 50.95 17.57 76.75 27.69"/>
  <rect class="cls-2" x="8.53" y="45.71" width="11.56" height="43.82"/>
  <rect class="cls-2" x="26.59" y="45.71" width="11.56" height="43.82"/>
  <rect class="cls-2" x="44.65" y="45.71" width="11.56" height="43.82"/>
  <rect class="cls-2" x="62.71" y="45.71" width="11.56" height="43.82"/>
  <rect class="cls-2" x=".23" y="31.86" width="82.47" height="11.68"/>
  <polygon class="cls-2" points="75.45 91.58 7.55 91.58 6.11 95.55 76.9 95.55 75.45 91.58"/>
  <polygon class="cls-1" points="7.32 28.36 75.12 28.36 41.37 15.02 7.32 28.36"/>
  <g>
    <path class="cls-2" d="M134.17,76.88c-1.28,0-5.53.28-7.95.71v-7.73c-4.04,4.04-10.92,7.02-17.52,8.3-9.01-1.77-13.2-8.58-13.2-11.78v-27.03c0-2.84-.57-4.33-.92-5.6l-5.11-.29v-1.91h6.1c3.9,0,6.24,0,10.78-.35l-.07,1.99-3.76.5c-.5,1.63-.85,3.48-.85,6.74v23.98c0,5.68,6.1,9.22,10.43,9.22,2.84,0,10.85-3.55,14.19-8.37l-.07-27.17c0-1.42-.28-3.4-.5-4.68l-5.96-.21v-1.91h6.6c2.2,0,5.18,0,11-.28v1.84l-3.76.57c-.5.78-1.06,3.69-1.06,6.1v31.64c0,1.91.35,2.76.78,3.83h5.82v1.92h-4.97Z"/>
    <path class="cls-2" d="M183.54,33.46c-.5,1.49-.71,4.12-.71,6.74v38.02h-2.41c-.35-.99-1.2-2.48-2.41-4.04l-29.51-36.82v31.28c0,2.27.07,4.47.43,6.1l6.17.21v1.92h-5.46c-2.84,0-4.11,0-8.65.35v-1.91l3.33-.36c.64-1.63,1.06-4.97,1.06-8.3v-31.43c-.85-1.13-2.55-2.06-6.17-2.48v-1.85c3.12.28,4.97.36,7.94.36h4.4l27.67,35.04v-27.95c0-1.92-.64-3.41-1.21-4.9l-4.82-.64v-1.92c4.82.28,6.17.36,8.37.36h4.97v1.91l-2.98.28Z"/>
    <path class="cls-2" d="M214.41,77.66c-17.17,0-25.54-10.71-25.54-24.47,0-9.72,7.88-22.56,24.33-22.56,2.62,0,9.36,1.28,12.84,2.48v-1.7h2.55v11.21h-2.55v-4.26c-3.19-3.12-8.8-6.1-13.41-6.1-11.35,0-16.74,11.63-16.74,21,0,10.36,5.82,22.63,18.59,22.63,2.13,0,8.58-1.84,11.78-6.46v-5.25h2.34v9.65c-3.55,1.99-10.43,3.83-14.19,3.83Z"/>
    <path class="cls-2" d="M93.46,88.92c-.54,0-1.05-.02-1.57-.07v4.66c0,.28.02.69.09,1.01l1.76.07v.58h-1.96c-.97,0-1.74.02-3.12.11v-.58l1.08-.17c.26-.77.26-1.42.26-2.32v-8.1c0-.73-.04-1.57-.17-2.17h-1.5v-.58h2.62c.88,0,1.93-.22,3.2-.22,2.75,0,4.96,1.2,4.96,3.85,0,1.91-1.01,3.93-5.65,3.93ZM93.46,81.85c-.56,0-1.14.11-1.48.17-.09.43-.09.88-.09,1.29v4.9c.36.06.97.08,1.5.08,2.11,0,3.76-.99,3.76-3.22,0-2.66-2.36-3.22-3.7-3.22Z"/>
    <path class="cls-2" d="M115.08,95.41c-1.57-.15-2.99-.24-5.27-.24-1.65,0-2.83.02-4.34.11v-.58l1.08-.17c.28-.54.41-1.22.41-1.98v-8.29c0-.95,0-1.29-.15-2.15l-1.53-.11v-.6c1.27.11,2.3.13,2.62.13,3.42,0,5.03,0,6.75-.17l-.15,2.69h-.58v-1.35c-.79-.49-1.46-.52-2.84-.52h-2.08c-.11.41-.15.84-.15,1.27v4.08h2.02c.97,0,1.63,0,2.26-.34,0-.39.04-.73.04-1.1h.71c-.08.6-.11,1.23-.11,1.89s.02,1.35.11,2.02h-.71l-.11-1.27c-.56-.3-1.44-.45-2.19-.45h-2.02v4.15c0,1.01.02,1.38.15,2.02h2.86c1.83,0,2.21-.15,2.84-.64l.32-1.85h.62l-.56,3.46Z"/>
    <path class="cls-2" d="M136.5,95.17c-1.12,0-2.13.02-3.31.11v-.6l1.18-.11c.19-.56.28-1.7.3-2.26l-.39-7.76-4.32,9.65c-.11.22-.15.43-.15.67,0,.08,0,.13.02.21l-.69.26-4.25-10.64-.34,7.71c-.02.3-.04.58-.04.92,0,.47,0,.77.06,1.18l1.85.07v.58h-1.31c-.88,0-1.68.02-3.14.11v-.58l.99-.13c.3-.43.39-1.44.45-2.45l.62-9.28c-.37-.64-.88-.84-2.06-.99v-.6c1.46.09,2.73.11,3.8.11,0,.82.34,1.59.73,2.56l3.35,8.21,4.32-9.67v-1.2c.6.04,1.08.06,1.46.06.64,0,1.31-.02,2.15-.04v.67l-1.46.06c-.06.37-.04.54-.06.92l.36,9.82c.02.86.07,1.33.22,1.78l1.29.07v.58h-1.63Z"/>
    <path class="cls-2" d="M151.39,95.26c-1.59,0-2.9-.09-4.17-.09-.88,0-1.33,0-2.58.11l-.02-.58,1.31-.17c.22-.62.37-1.16.37-2.15v-8.25c0-.77-.04-1.66-.17-2.19h-1.5v-.58h2.43c.75,0,2.21-.19,3.4-.19,2.9,0,4.47,1.83,4.47,3.35,0,2.02-1.61,3.05-3.5,3.42,2.75.37,4.49,1.4,4.49,3.48,0,2.43-2.06,3.85-4.51,3.85ZM149.37,81.9c-.32,0-.6.02-1.09.21-.09.48-.09.71-.09,1.2v4.34h1.05c2.43,0,3.61-1.35,3.61-2.96,0-1.83-1.18-2.79-3.48-2.79ZM149.59,88.28h-1.4v4.21c0,.71.02,1.52.13,1.78.52.24,1.01.34,1.63.34,2.51,0,3.87-1.53,3.87-3.31,0-2.04-2.53-3.03-4.23-3.03Z"/>
    <path class="cls-2" d="M173.86,95.26c-1.27,0-2.6-.58-3.33-1.65l-3.11-4.62h-1.4v4.53c0,.28.04.69.11,1.01l1.74.07v.58h-1.95c-1.1,0-2.17.02-3.48.11v-.6l1.35-.15c.17-.49.32-.92.32-2.15v-8.27c0-.73-.04-1.57-.15-2.17h-1.53v-.58h2.64c.99,0,1.89-.19,3.2-.19,2.36,0,4.68,1.16,4.68,3.82,0,1.96-1.05,2.88-3.76,3.83.41.32.86.82,1.27,1.42l2.17,3.24c.6.9,1.27,1.12,2.26,1.12v.56c-.28.06-.67.11-1.03.11ZM167.87,81.94c-.54,0-.71,0-1.74.17-.11.34-.11.95-.11,1.55v4.71h1.66c1.35,0,3.31-.8,3.31-3.24,0-2.15-1.27-3.18-3.12-3.18Z"/>
    <path class="cls-2" d="M187.51,95.47c-4.15,0-7.26-3.44-7.26-7.33s3.31-6.98,7.17-6.98c4.06,0,7.2,3.37,7.2,7.26s-3.2,7.05-7.11,7.05ZM187.21,81.79c-3.39,0-4.77,3.01-4.77,6.12s1.76,6.79,5.16,6.79,4.94-2.77,4.94-5.91c0-3.46-1.74-7-5.33-7Z"/>
    <path class="cls-2" d="M210.69,95.28l-5.97-6.98-.02,5.31c0,.28.04.58.11.92l1.44.07v.58h-1.83c-1.05,0-1.68,0-3.07.11v-.58l1.2-.17c.15-.49.26-.92.26-2.15l.02-8.27c0-.75-.04-1.31-.17-2.11l-1.31-.11v-.6c1.74.07,2.92.07,4.77.07v.58l-1.12.06c-.28,1.01-.28,2.04-.28,3.01v2.75l3.98-3.8c.82-.79,1.22-1.07,1.4-1.96l-1.12-.11v-.63c.69.04,1.25.09,2.02.09h1.83v.58l-.82.06-5.54,5.37,6.08,7.15,1.08.07v.58c-.9,0-1.89,0-2.92.11Z"/>
    <path class="cls-2" d="M229.08,95.41c-1.57-.15-2.99-.24-5.26-.24-1.66,0-2.84.02-4.34.11v-.58l1.07-.17c.28-.54.41-1.22.41-1.98v-8.29c0-.95,0-1.29-.15-2.15l-1.53-.11v-.6c1.27.11,2.3.13,2.62.13,3.42,0,5.03,0,6.74-.17l-.15,2.69h-.58v-1.35c-.79-.49-1.46-.52-2.83-.52h-2.08c-.11.41-.15.84-.15,1.27v4.08h2.02c.97,0,1.63,0,2.26-.34,0-.39.04-.73.04-1.1h.71c-.09.6-.11,1.23-.11,1.89s.02,1.35.11,2.02h-.71l-.11-1.27c-.56-.3-1.44-.45-2.19-.45h-2.02v4.15c0,1.01.02,1.38.15,2.02h2.86c1.83,0,2.21-.15,2.83-.64l.32-1.85h.62l-.56,3.46Z"/>
  </g>
<!-- Code injected by live-server -->
<script>
	// <![CDATA[  <-- For SVG support
	if ('WebSocket' in window) {
		(function () {
			function refreshCSS() {
				var sheets = [].slice.call(document.getElementsByTagName("link"));
				var head = document.getElementsByTagName("head")[0];
				for (var i = 0; i < sheets.length; ++i) {
					var elem = sheets[i];
					var parent = elem.parentElement || head;
					parent.removeChild(elem);
					var rel = elem.rel;
					if (elem.href && typeof rel != "string" || rel.length == 0 || rel.toLowerCase() == "stylesheet") {
						var url = elem.href.replace(/(&|\?)_cacheOverride=\d+/, '');
						elem.href = url + (url.indexOf('?') >= 0 ? '&' : '?') + '_cacheOverride=' + (new Date().valueOf());
					}
					parent.appendChild(elem);
				}
			}
			var protocol = window.location.protocol === 'http:' ? 'ws://' : 'wss://';
			var address = protocol + window.location.host + window.location.pathname + '/ws';
			var socket = new WebSocket(address);
			socket.onmessage = function (msg) {
				if (msg.data == 'reload') window.location.reload();
				else if (msg.data == 'refreshcss') refreshCSS();
			};
			if (sessionStorage && !sessionStorage.getItem('IsThisFirstTime_Log_From_LiveServer')) {
				console.log('Live reload enabled.');
				sessionStorage.setItem('IsThisFirstTime_Log_From_LiveServer', true);
			}
		})();
	}
	else {
		console.error('Upgrade your browser. This Browser is NOT supported WebSocket for Live-Reloading.');
	}
	// ]]>
</script>
</svg>