<?xml version="1.0" encoding="UTF-8"?>
<svg id="Layer_1" xmlns="http://www.w3.org/2000/svg" viewBox="0 0 288.23 34.94">
  <defs>
    <style>
      .cls-1 {
        fill: #ef3829;
      }
    </style>
  </defs>
  <g>
    <path class="cls-1" d="M8.86,2.13l-1.86,1.17c-.42-1.05-1.13-1.57-2.11-1.57-.53,0-.96.17-1.3.52-.33.33-.49.73-.49,1.2,0,.56.23.99.68,1.31.22.15.82.46,1.8.92,1.18.55,1.99,1.02,2.44,1.42.68.61,1.03,1.45,1.03,2.5,0,.63-.13,1.21-.39,1.76-.26.55-.63,1-1.1,1.37-.79.61-1.84.92-3.15.92-1.21,0-2.21-.27-3.02-.81-.42-.28-.76-.61-1.01-.98-.1-.14-.22-.36-.36-.66l1.96-1.21c.23.59.56,1.05.98,1.36.42.31.93.47,1.51.47.63,0,1.13-.18,1.51-.53.37-.35.56-.81.56-1.38,0-.51-.17-.92-.5-1.24-.26-.25-.94-.62-2.02-1.12-1.11-.5-1.88-.99-2.33-1.47-.64-.66-.96-1.47-.96-2.41,0-1.02.37-1.88,1.11-2.58.77-.74,1.82-1.1,3.15-1.1,1.25,0,2.22.29,2.92.87.38.32.7.74.97,1.26Z"/>
    <path class="cls-1" d="M17.34,0c1.74,0,3.19.5,4.34,1.5.69.6,1.2,1.34,1.53,2.21.33.87.5,1.91.5,3.12s-.17,2.25-.5,3.12-.84,1.6-1.53,2.21c-1.14,1-2.62,1.5-4.43,1.5s-3.29-.5-4.43-1.5c-.7-.61-1.21-1.35-1.54-2.22-.33-.87-.49-1.92-.49-3.16,0-2.35.68-4.1,2.03-5.27,1.16-1,2.66-1.5,4.52-1.5ZM17.2,1.84c-1.14,0-2.05.42-2.72,1.25-.75.93-1.13,2.17-1.13,3.74s.38,2.81,1.13,3.74c.67.83,1.6,1.25,2.78,1.25s2.11-.42,2.78-1.25c.75-.93,1.13-2.17,1.13-3.72s-.38-2.84-1.13-3.76c-.68-.83-1.62-1.25-2.84-1.25Z"/>
    <path class="cls-1" d="M26.13.29h2.36v7.74c0,.74.03,1.27.08,1.57.13.79.46,1.36,1.01,1.72.51.33,1.13.5,1.87.5s1.37-.17,1.88-.5c.54-.36.88-.93,1.01-1.72.05-.33.08-.85.08-1.57V.29h2.36v7.71c0,.93-.04,1.62-.12,2.07-.24,1.21-.83,2.12-1.77,2.74-.87.56-2.01.84-3.42.84-2.33,0-3.91-.75-4.73-2.24-.3-.54-.49-1.23-.56-2.05-.02-.26-.03-.72-.03-1.36V.29Z"/>
    <path class="cls-1" d="M44.05,2.12v11.26h-2.36V2.12h-3.68V.29h9.74v1.83h-3.7Z"/>
    <path class="cls-1" d="M59.7.29v13.09h-2.36v-5.68h-5.86v5.68h-2.36V.29h2.36v5.53h5.86V.29h2.36Z"/>
    <path class="cls-1" d="M65.39,5.84h4.89v1.78h-4.89v3.91h5.61v1.84h-7.97V.29h7.25v1.84h-4.89v3.71Z"/>
    <path class="cls-1" d="M73.35,13.37V.29h3.85c1.37,0,2.34.14,2.91.42.52.25.93.64,1.23,1.15.33.57.5,1.21.5,1.92,0,1.01-.32,1.87-.95,2.58-.33.38-.83.73-1.51,1.05l3.68,5.96h-2.77l-3.26-5.58h-1.35v5.58h-2.34ZM75.69,6.01h1.08c.61.04,1.15-.06,1.63-.31.64-.32.96-.92.96-1.81,0-.66-.2-1.13-.6-1.42-.25-.18-.54-.28-.87-.31-.2-.02-.43-.03-.71-.03-.12,0-.3,0-.57,0h-.92v3.86Z"/>
    <path class="cls-1" d="M96.5.29v13.09h-2.31l-6.81-9.33v9.33h-2.31V.29h2.24l6.87,9.42V.29h2.31Z"/>
    <path class="cls-1" d="M107.1.29v13.09h-2.36V.29h2.36Z"/>
    <path class="cls-1" d="M112.79.29v11.25h5.08v1.84h-7.44V.29h2.36Z"/>
    <path class="cls-1" d="M121.94.29v11.25h5.08v1.84h-7.44V.29h2.36Z"/>
    <path class="cls-1" d="M131.09.29v13.09h-2.36V.29h2.36Z"/>
    <path class="cls-1" d="M145.85.29v13.09h-2.31l-6.81-9.33v9.33h-2.31V.29h2.24l6.87,9.42V.29h2.31Z"/>
    <path class="cls-1" d="M154.88,0c1.74,0,3.19.5,4.34,1.5.69.6,1.2,1.34,1.53,2.21.33.87.5,1.91.5,3.12s-.17,2.25-.5,3.12c-.33.87-.84,1.6-1.53,2.21-1.14,1-2.62,1.5-4.43,1.5s-3.29-.5-4.43-1.5c-.7-.61-1.21-1.35-1.54-2.22-.33-.87-.49-1.92-.49-3.16,0-2.35.68-4.1,2.03-5.27,1.16-1,2.66-1.5,4.52-1.5ZM154.74,1.84c-1.14,0-2.05.42-2.72,1.25-.75.93-1.13,2.17-1.13,3.74s.38,2.81,1.13,3.74c.67.83,1.6,1.25,2.78,1.25s2.11-.42,2.78-1.25c.75-.93,1.13-2.17,1.13-3.72s-.38-2.84-1.13-3.76c-.68-.83-1.62-1.25-2.84-1.25Z"/>
    <path class="cls-1" d="M166.16.29v13.09h-2.36V.29h2.36Z"/>
    <path class="cls-1" d="M177.06,2.13l-1.86,1.17c-.42-1.05-1.12-1.57-2.11-1.57-.53,0-.97.17-1.3.52-.33.33-.49.73-.49,1.2,0,.56.23.99.68,1.31.22.15.82.46,1.8.92,1.18.55,1.99,1.02,2.44,1.42.68.61,1.03,1.45,1.03,2.5,0,.63-.13,1.21-.39,1.76-.26.55-.63,1-1.1,1.37-.79.61-1.84.92-3.15.92-1.21,0-2.22-.27-3.02-.81-.42-.28-.76-.61-1.01-.98-.1-.14-.22-.36-.36-.66l1.96-1.21c.23.59.56,1.05.98,1.36.42.31.93.47,1.51.47.63,0,1.13-.18,1.51-.53.37-.35.55-.81.55-1.38,0-.51-.17-.92-.5-1.24-.26-.25-.94-.62-2.02-1.12-1.11-.5-1.88-.99-2.33-1.47-.64-.66-.96-1.47-.96-2.41,0-1.02.37-1.88,1.11-2.58.77-.74,1.82-1.1,3.15-1.1,1.25,0,2.22.29,2.92.87.38.32.7.74.97,1.26Z"/>
    <path class="cls-1" d="M184.54.29h2.36v7.74c0,.74.03,1.27.08,1.57.13.79.46,1.36,1.01,1.72.51.33,1.13.5,1.87.5s1.37-.17,1.88-.5c.54-.36.88-.93,1.01-1.72.05-.33.08-.85.08-1.57V.29h2.36v7.71c0,.93-.04,1.62-.12,2.07-.24,1.21-.83,2.12-1.77,2.74-.87.56-2.01.84-3.42.84-2.33,0-3.91-.75-4.73-2.24-.3-.54-.49-1.23-.55-2.05-.02-.26-.03-.72-.03-1.36V.29Z"/>
    <path class="cls-1" d="M209.82.29v13.09h-2.31l-6.81-9.33v9.33h-2.31V.29h2.24l6.87,9.42V.29h2.31Z"/>
    <path class="cls-1" d="M215.51.29v13.09h-2.36V.29h2.36Z"/>
    <path class="cls-1" d="M219.61.29l3.49,9.77,3.97-9.77h2.31l-5.43,13.09h-2.11l-4.77-13.09h2.53Z"/>
    <path class="cls-1" d="M233.01,5.84h4.89v1.78h-4.89v3.91h5.61v1.84h-7.97V.29h7.25v1.84h-4.89v3.71Z"/>
    <path class="cls-1" d="M240.97,13.37V.29h3.85c1.37,0,2.34.14,2.91.42.52.25.93.64,1.23,1.15.33.57.5,1.21.5,1.92,0,1.01-.32,1.87-.95,2.58-.33.38-.83.73-1.5,1.05l3.68,5.96h-2.77l-3.26-5.58h-1.35v5.58h-2.34ZM243.31,6.01h1.08c.61.04,1.15-.06,1.63-.31.64-.32.96-.92.96-1.81,0-.66-.2-1.13-.6-1.42-.25-.18-.54-.28-.87-.31-.2-.02-.44-.03-.71-.03-.12,0-.3,0-.57,0h-.92v3.86Z"/>
    <path class="cls-1" d="M260.25,2.13l-1.86,1.17c-.42-1.05-1.12-1.57-2.11-1.57-.53,0-.97.17-1.3.52-.33.33-.49.73-.49,1.2,0,.56.23.99.68,1.31.22.15.82.46,1.8.92,1.18.55,1.99,1.02,2.44,1.42.68.61,1.03,1.45,1.03,2.5,0,.63-.13,1.21-.39,1.76-.26.55-.63,1-1.1,1.37-.79.61-1.84.92-3.15.92-1.21,0-2.22-.27-3.02-.81-.42-.28-.76-.61-1.01-.98-.1-.14-.22-.36-.36-.66l1.96-1.21c.23.59.56,1.05.98,1.36.42.31.93.47,1.51.47.63,0,1.13-.18,1.51-.53.37-.35.55-.81.55-1.38,0-.51-.17-.92-.5-1.24-.26-.25-.94-.62-2.02-1.12-1.11-.5-1.88-.99-2.33-1.47-.64-.66-.96-1.47-.96-2.41,0-1.02.37-1.88,1.11-2.58.77-.74,1.82-1.1,3.15-1.1,1.25,0,2.22.29,2.92.87.38.32.7.74.97,1.26Z"/>
    <path class="cls-1" d="M265.32.29v13.09h-2.36V.29h2.36Z"/>
    <path class="cls-1" d="M272.73,2.12v11.26h-2.36V2.12h-3.68V.29h9.74v1.83h-3.7Z"/>
    <path class="cls-1" d="M285.78.29h2.45l-4.5,7.46v5.63h-2.36v-5.58l-4.56-7.51h2.68l3.21,5.3,3.09-5.3Z"/>
  </g>
  <g>
    <path class="cls-1" d="M74.12,26.57h5v2.95h-5v1.96h5.79v3.14h-9.85v-13.09h9.06v3.14h-5v1.89Z"/>
    <path class="cls-1" d="M81.97,21.53h6.15c1.5,0,2.79.36,3.87,1.07.89.59,1.52,1.37,1.89,2.34.28.75.42,1.73.42,2.94,0,1.33-.2,2.47-.61,3.41s-1.03,1.7-1.86,2.29c-.66.46-1.55.77-2.65.94-.46.06-.9.1-1.32.1h-5.89v-13.09ZM86.03,24.68v6.8h.93c.54,0,.94-.05,1.21-.13.63-.2,1.1-.61,1.41-1.24.31-.63.47-1.38.47-2.24,0-.69-.11-1.29-.32-1.78-.21-.5-.52-.85-.91-1.06-.41-.22-1.05-.33-1.94-.33h-.85Z"/>
    <path class="cls-1" d="M99.19,21.53l1.58,6.49,2.2-6.49h3.5l1.78,6.62,2.34-6.62h4.05l-4.36,13.09h-3.69l-2.1-6.77-2.51,6.77h-3.77l-3.29-13.09h4.28Z"/>
    <path class="cls-1" d="M122.74,21.53l4.04,13.09h-4.2l-.53-1.95h-4.23l-.65,1.95h-3.81l4.72-13.09h4.66ZM121.36,29.94l-1.17-4.07-1.44,4.07h2.61Z"/>
    <path class="cls-1" d="M128.13,34.62v-13.09h5.58c.93,0,1.58.02,1.93.08,1.09.17,1.94.64,2.55,1.41.53.66.8,1.51.8,2.55,0,.77-.17,1.48-.52,2.11-.2.37-.44.68-.72.92-.15.14-.39.32-.74.55l2.74,5.47h-4.65l-1.91-4.7h-1.06v4.7h-4ZM132.13,26.96h.97c.29.01.57,0,.81-.05.33-.06.57-.22.74-.48.1-.17.15-.36.15-.59,0-.59-.32-.94-.96-1.05-.24-.05-.58-.07-1.03-.07-.09,0-.18,0-.27,0l-.42.03v2.2Z"/>
    <path class="cls-1" d="M141.45,21.53h6.15c1.5,0,2.79.36,3.87,1.07.89.59,1.52,1.37,1.89,2.34.28.75.42,1.73.42,2.94,0,1.33-.21,2.47-.61,3.41-.41.94-1.03,1.7-1.86,2.29-.66.46-1.55.77-2.65.94-.46.06-.9.1-1.32.1h-5.89v-13.09ZM145.5,24.68v6.8h.93c.54,0,.94-.05,1.21-.13.63-.2,1.1-.61,1.41-1.24.31-.63.47-1.38.47-2.24,0-.69-.11-1.29-.32-1.78s-.52-.85-.91-1.06c-.41-.22-1.06-.33-1.94-.33h-.85Z"/>
    <path class="cls-1" d="M166.17,24.16l-3.5,1.34c-.14-.49-.36-.85-.64-1.08-.36-.3-.77-.45-1.24-.45-.34,0-.64.08-.91.24-.33.2-.5.46-.5.8,0,.38.23.66.68.85.35.14.7.25,1.05.33l1.19.25c1.14.24,2.02.59,2.63,1.05.42.31.74.74.98,1.29.22.51.33,1.04.33,1.61,0,1.46-.61,2.63-1.84,3.52-.52.37-1.04.63-1.57.77-.74.19-1.59.28-2.57.28-1.25,0-2.26-.17-3.03-.51-.92-.39-1.63-.93-2.13-1.63-.22-.3-.44-.76-.68-1.39l3.83-1.1c.16.42.33.71.5.89.4.42.97.63,1.7.63.38,0,.7-.07.96-.22.26-.15.39-.37.39-.68,0-.44-.27-.76-.81-.96-.28-.1-.93-.26-1.97-.46-.53-.11-1.05-.3-1.56-.57s-.92-.58-1.23-.92c-.31-.35-.55-.75-.72-1.22-.18-.47-.26-.94-.26-1.42,0-.86.27-1.65.81-2.37.91-1.21,2.5-1.81,4.77-1.81,1.86,0,3.22.35,4.06,1.06.44.36.76.75.99,1.16.09.17.19.41.3.74Z"/>
    <path class="cls-1" d="M171.13,21.53l2.31,8.27,2.86-8.27h3.98l-4.96,13.09h-4.33l-4.21-13.09h4.35Z"/>
    <path class="cls-1" d="M185.09,21.53v13.09h-4.06v-13.09h4.06Z"/>
    <path class="cls-1" d="M191.76,21.53v9.94h4.69v3.14h-8.74v-13.09h4.06Z"/>
    <path class="cls-1" d="M201.94,21.53v9.94h4.69v3.14h-8.74v-13.09h4.06Z"/>
    <path class="cls-1" d="M212.13,26.57h5v2.95h-5v1.96h5.79v3.14h-9.85v-13.09h9.06v3.14h-5v1.89Z"/>
  </g>
<!-- Code injected by live-server -->
<script>
	// <![CDATA[  <-- For SVG support
	if ('WebSocket' in window) {
		(function () {
			function refreshCSS() {
				var sheets = [].slice.call(document.getElementsByTagName("link"));
				var head = document.getElementsByTagName("head")[0];
				for (var i = 0; i < sheets.length; ++i) {
					var elem = sheets[i];
					var parent = elem.parentElement || head;
					parent.removeChild(elem);
					var rel = elem.rel;
					if (elem.href && typeof rel != "string" || rel.length == 0 || rel.toLowerCase() == "stylesheet") {
						var url = elem.href.replace(/(&|\?)_cacheOverride=\d+/, '');
						elem.href = url + (url.indexOf('?') >= 0 ? '&' : '?') + '_cacheOverride=' + (new Date().valueOf());
					}
					parent.appendChild(elem);
				}
			}
			var protocol = window.location.protocol === 'http:' ? 'ws://' : 'wss://';
			var address = protocol + window.location.host + window.location.pathname + '/ws';
			var socket = new WebSocket(address);
			socket.onmessage = function (msg) {
				if (msg.data == 'reload') window.location.reload();
				else if (msg.data == 'refreshcss') refreshCSS();
			};
			if (sessionStorage && !sessionStorage.getItem('IsThisFirstTime_Log_From_LiveServer')) {
				console.log('Live reload enabled.');
				sessionStorage.setItem('IsThisFirstTime_Log_From_LiveServer', true);
			}
		})();
	}
	else {
		console.error('Upgrade your browser. This Browser is NOT supported WebSocket for Live-Reloading.');
	}
	// ]]>
</script>
</svg>