<?xml version="1.0" encoding="UTF-8"?>
<svg id="Layer_1" xmlns="http://www.w3.org/2000/svg" viewBox="0 0 276.57 61.08">
  <defs>
    <style>
      .cls-1 {
        fill: #231f20;
      }

      .cls-2 {
        fill: #e81727;
      }
    </style>
  </defs>
  <path class="cls-2" d="M6.82,12.99c0-6.16,6.69-8.9,11.95-8.9,4.46,0,9.81,3.03,12.03,11.59l.82,3.49h3.48V3.37c-4.3-1.94-9.53-3.37-15.86-3.37C7.76,0,0,6.75,0,16.7c0,19.99,30.3,13.5,30.3,30.2,0,7.25-4.99,10.15-12.67,10.15-10.26,0-12.16-10.71-13.31-18.18H.84v17.48c3.71,2.53,10.8,4.73,15.69,4.73,12.99,0,21.94-7.93,21.94-18.56,0-9.28-4.39-13.02-16.87-17.75-11.39-4.3-14.78-5.45-14.78-11.78M84.56,4.29h5.23V1.35h-16.1v2.94h6.35v38.6c0,8.77-4.57,14.17-12.59,14.17-5.31,0-11.14-3.29-11.14-13.58V4.29h6.33V1.35h-21.01v2.94h5.03v39.41c0,11.64,6.78,17.38,20.45,17.38,11.58,0,17.45-8.32,17.45-18.11V4.29ZM140.41,4.29V1.35h-16.1v2.94h6.35v38.6c0,8.77-4.57,14.17-12.59,14.17-5.31,0-11.14-3.29-11.14-13.58V4.29h6.33V1.35h-21.01v2.94h5.03v39.41c0,11.64,6.78,17.38,20.45,17.38,11.58,0,17.45-8.32,17.45-18.11V4.29h5.23Z"/>
  <path class="cls-1" d="M276.57,46.82h-2.77l-2.89,6.34-2.89-6.34h-2.89l4.39,8.5v5.16h2.65v-5.18l4.39-8.48ZM262.72,46.82h-10.14v2.08h3.68v11.58h2.63v-11.58h3.56l.28-2.08ZM248.37,46.82h-2.61v13.66h2.61v-13.66ZM236.25,46.53c-2.69,0-4.64,1.5-4.64,3.77,0,2.08,1.25,3.22,4.11,4.11,2.13.65,2.71,1.17,2.71,2.31,0,1.32-1.05,2.04-2.51,2.04s-2.51-.51-3.5-1.36l-1.36,1.5c1.13,1.11,2.75,1.88,4.92,1.88,3.26,0,5.18-1.74,5.18-4.19s-1.66-3.56-4.05-4.31c-2.27-.71-2.81-1.15-2.81-2.13,0-1.07.89-1.62,2.11-1.62,1.13,0,2.08.36,3.06,1.17l1.28-1.48c-1.19-1.09-2.51-1.68-4.51-1.68M220.48,48.72h1.4c1.9,0,2.75.63,2.75,2.12,0,1.64-.91,2.29-2.53,2.29h-1.62v-4.41ZM225.16,60.48h3l-3.58-5.95c1.86-.73,2.77-1.82,2.77-3.7,0-2.71-1.84-4.01-5.42-4.01h-4.07v13.66h2.61v-5.47h1.66l3.02,5.47ZM212.95,46.82h-7.93v13.66h8v-1.96h-5.4v-4.01h4.39v-1.94h-4.39v-3.81h5.04l.28-1.94ZM201.13,46.82h-2.67l-2.89,11.35-2.96-11.35h-2.81l4.17,13.66h3.1l4.05-13.66ZM185.93,46.82h-2.61v13.66h2.61v-13.66ZM177.75,46.82h-2.37v6.4c0,1.94.24,3.91.36,4.66l-4.76-11.07h-3.3v13.66h2.37v-5.57c0-2.53-.22-4.27-.36-5.47l4.68,11.05h3.38v-13.66ZM162.29,46.82h-2.63v9.05c0,1.92-.77,2.87-2.47,2.87s-2.45-.95-2.45-2.87v-9.05h-2.61v9.19c0,2.81,1.7,4.76,5.06,4.76s5.1-2.02,5.1-4.76v-9.19Z"/>
  <path class="cls-1" d="M200.69,37.76h2.63v-13.66h-2.63v5.47h-4.86v-5.47h-2.61v13.66h2.61v-6.11h4.86v6.11ZM181.7,32.62l1.74-6.52,1.76,6.52h-3.5ZM186.56,37.76h2.77l-4.23-13.66h-3.22l-4.25,13.66h2.71l.85-3.16h4.53l.85,3.16ZM176.44,24.11h-10.14v2.08h3.68v11.58h2.63v-11.58h3.56l.28-2.08ZM162.29,24.11h-2.63v9.05c0,1.92-.77,2.87-2.47,2.87s-2.45-.95-2.45-2.87v-9.05h-2.61v9.19c0,2.81,1.7,4.76,5.06,4.76s5.1-2.02,5.1-4.76v-9.19Z"/>
  <path class="cls-1" d="M263.01,1.39h-2.37v6.4c0,1.94.24,3.91.36,4.66l-4.76-11.07h-3.3v13.66h2.37v-5.57c0-2.53-.22-4.27-.36-5.47l4.68,11.05h3.38V1.39ZM241.09,3.29h1.4c1.9,0,2.75.63,2.75,2.11,0,1.64-.91,2.29-2.53,2.29h-1.62V3.29ZM245.78,15.04h3l-3.58-5.95c1.86-.73,2.77-1.82,2.77-3.7,0-2.71-1.84-4.01-5.42-4.01h-4.07v13.66h2.61v-5.47h1.66l3.02,5.47ZM233.56,1.39h-7.93v13.66h8v-1.96h-5.4v-4.01h4.39v-1.94h-4.39v-3.81h5.04l.28-1.94ZM217.45,15.04h2.63V1.39h-2.63v5.48h-4.86V1.39h-2.61v13.66h2.61v-6.11h4.86v6.11ZM205.91,1.39h-10.14v2.08h3.68v11.58h2.63V3.46h3.56l.28-2.08ZM191.76,1.39h-2.63v9.05c0,1.92-.77,2.87-2.47,2.87s-2.45-.95-2.45-2.87V1.39h-2.61v9.19c0,2.81,1.7,4.76,5.06,4.76s5.1-2.02,5.1-4.76V1.39ZM171.01,3.09c2.06,0,3.22,1.46,3.22,5.12s-1.19,5.14-3.22,5.14-3.24-1.44-3.24-5.12,1.21-5.14,3.24-5.14M171.01,1.09c-3.66,0-5.99,2.65-5.99,7.14s2.33,7.11,5.99,7.11,5.97-2.63,5.97-7.13-2.31-7.12-5.97-7.12M156.26,1.09c-2.69,0-4.64,1.5-4.64,3.77,0,2.08,1.25,3.22,4.11,4.11,2.13.65,2.71,1.17,2.71,2.31,0,1.32-1.05,2.04-2.51,2.04s-2.51-.51-3.5-1.36l-1.36,1.5c1.13,1.11,2.75,1.88,4.92,1.88,3.26,0,5.18-1.74,5.18-4.19s-1.66-3.56-4.05-4.31c-2.27-.71-2.81-1.15-2.81-2.13,0-1.07.89-1.62,2.11-1.62,1.13,0,2.08.36,3.06,1.17l1.28-1.48c-1.19-1.09-2.51-1.68-4.51-1.68"/>
<!-- Code injected by live-server -->
<script>
	// <![CDATA[  <-- For SVG support
	if ('WebSocket' in window) {
		(function () {
			function refreshCSS() {
				var sheets = [].slice.call(document.getElementsByTagName("link"));
				var head = document.getElementsByTagName("head")[0];
				for (var i = 0; i < sheets.length; ++i) {
					var elem = sheets[i];
					var parent = elem.parentElement || head;
					parent.removeChild(elem);
					var rel = elem.rel;
					if (elem.href && typeof rel != "string" || rel.length == 0 || rel.toLowerCase() == "stylesheet") {
						var url = elem.href.replace(/(&|\?)_cacheOverride=\d+/, '');
						elem.href = url + (url.indexOf('?') >= 0 ? '&' : '?') + '_cacheOverride=' + (new Date().valueOf());
					}
					parent.appendChild(elem);
				}
			}
			var protocol = window.location.protocol === 'http:' ? 'ws://' : 'wss://';
			var address = protocol + window.location.host + window.location.pathname + '/ws';
			var socket = new WebSocket(address);
			socket.onmessage = function (msg) {
				if (msg.data == 'reload') window.location.reload();
				else if (msg.data == 'refreshcss') refreshCSS();
			};
			if (sessionStorage && !sessionStorage.getItem('IsThisFirstTime_Log_From_LiveServer')) {
				console.log('Live reload enabled.');
				sessionStorage.setItem('IsThisFirstTime_Log_From_LiveServer', true);
			}
		})();
	}
	else {
		console.error('Upgrade your browser. This Browser is NOT supported WebSocket for Live-Reloading.');
	}
	// ]]>
</script>
</svg>