<?xml version="1.0" encoding="UTF-8"?>
<svg id="Layer_1" xmlns="http://www.w3.org/2000/svg" viewBox="0 0 283.42 73.04">
  <defs>
    <style>
      .cls-1 {
        fill: #005ea7;
      }

      .cls-2 {
        fill: #fbd00b;
      }
    </style>
  </defs>
  <g>
    <path class="cls-2" d="M15.87,73.04v-5.59h2.14c4.03-.08,5.84-.33,6.74-.58,1.73-.41,1.73-.99,1.73-1.15v-20.97l2.22.08h1.4c6.99,0,12.75-.58,17.19-1.73l2.71-.74v6.66c6.66-.08,9.62-.82,10.94-1.4,1.97-.9,3.45-2.55,4.52-5.02l.58-1.32h6.58v22.21h-6.83l-.41-1.56c-.66-2.47-2.06-4.19-4.11-5.18-1.48-.66-4.61-1.48-11.27-1.64v11.1h0s.16.08.41.16c.58.16,2.39.49,7.4.49,7.48,0,13.57-.66,18.18-1.89,4.44-1.23,8.47-3.54,12.01-6.99l.66-.58h7.48l-6.58,15.54H15.87v.08ZM82.58,47.37l-.58-1.32c-1.32-3.04-3.45-5.02-6.5-6.09-3.13-1.15-7.16-1.64-13.98-1.81l-3.78-.08,2.06-3.21c.25-.33.49-.82.66-1.23l.41-1.56h28.38v15.3h-6.66ZM30.76,43.76c-.74,0-2.14-.08-2.22-.08l-2.14-.08v-4.19c0-.49-.58-.82-1.81-1.15-.82-.25-2.63-.49-6.66-.58l-2.14-.08v-5.59h29.12l.66,1.07c.33.58,1.23,2.22,1.23,3.54v.33c-.16,1.73-.99,2.96-2.8,4.28l-.08.08-.08.08c-2.71,1.56-7.07,2.39-13.08,2.39Z"/>
    <path class="cls-1" d="M92.86,59.63h-3.37c-3.78,3.7-8.06,6.17-12.91,7.48-4.85,1.32-11.1,1.97-18.75,1.97-4.11,0-6.74-.25-8.06-.66-1.32-.41-1.97-1.23-1.97-2.39v-13.16c6.91,0,11.68.66,14.31,1.89,2.63,1.23,4.44,3.45,5.26,6.5h3.04v-17.77h-3.04c-1.32,2.96-3.21,5.02-5.59,6.17-2.47,1.15-7.16,1.64-13.98,1.64v-6.09c-4.61,1.23-10.53,1.81-17.68,1.81h-1.48v18.75c0,1.56-1.07,2.63-3.29,3.21-1.4.41-3.87.58-7.24.66v1.32h70.07l4.69-11.35h0ZM83.97,45.15h3.04v-10.94h-24.51c-.16.58-.49,1.23-.9,1.81,7.57.16,11.51.82,14.64,1.89,3.62,1.32,6.25,3.7,7.73,7.24h0ZM44.66,36.6c0-.9-.9-2.47-.9-2.47h-25.74v1.32c3.45.08,5.84.33,7.16.66,2.3.58,3.45,1.64,3.45,3.21v2.14s1.4.08,2.14.08c5.59,0,9.62-.74,12.01-2.14,1.4-1.07,1.73-1.81,1.89-2.8h0Z"/>
    <path class="cls-2" d="M30.1,47.54c-2.55,0-5.18-.08-7.73-.33-2.63-.25-5.26-.58-7.81-1.07l-2.39-.41c-.49-.08-.99-.16-1.48-.16-.49-.08-.82-.08-1.15-.08-.9,0-1.32.08-1.4.16-.25.16-.41.41-.58.82l-.58,1.15H0v-19.57h7.16l.58,1.32c1.81,4.03,4.61,6.91,8.64,8.8,4.19,1.89,9.05,2.88,14.48,2.88,6.5,0,9.46-.99,10.86-1.81,1.56-.9,2.47-1.89,2.47-2.63,0-.9-.82-1.73-2.47-2.47-1.48-.66-4.69-1.64-9.54-2.8l-7.98-1.97c-8.22-1.97-13.9-3.95-17.44-6C2.8,21.06.82,18.01.82,14.39s2.55-7.24,7.57-10.2C12.99,1.4,19.82,0,29.28,0c4.61,0,9.21.33,13.49,1.07,5.68.9,6.74.99,6.91.99,1.07,0,1.48-.16,1.56-.16.25-.16.41-.41.58-.74l.58-1.15h7.16v17.68h-6.91l-.58-1.15c-1.4-2.63-4.03-5.02-7.81-6.99-3.78-2.06-8.55-3.04-14.06-3.04-3.87,0-6.83.49-8.96,1.48-.74.33-2.39,1.15-2.39,2.06,0,.41,0,1.4,2.06,2.3,2.14.9,7.07,2.3,14.64,4.11l9.29,2.22c4.28,1.07,7.73,2.22,10.36,3.54,5.35,2.71,8.06,6.17,8.06,10.28,0,3.87-2.88,7.48-8.55,10.61-5.18,2.96-13.32,4.44-24.59,4.44Z"/>
    <path class="cls-1" d="M2.06,45.32h3.54c.33-.66.82-1.15,1.23-1.48.49-.33,1.4-.58,2.63-.58.33,0,.82,0,1.32.08s1.07.08,1.64.16l2.39.41c2.47.49,5.02.82,7.57.99,2.55.25,5.1.33,7.57.33,10.86,0,18.75-1.4,23.69-4.11,4.93-2.71,7.4-5.59,7.4-8.64,0-3.29-2.3-6.09-6.91-8.39-2.47-1.23-5.76-2.3-9.87-3.37l-9.29-2.22c-7.73-1.89-12.75-3.29-14.97-4.28-2.3-.9-3.45-2.39-3.45-4.28,0-1.56,1.23-2.96,3.62-4.03,2.39-1.15,5.76-1.64,9.87-1.64,5.92,0,10.94,1.07,15.13,3.29,4.11,2.22,7.07,4.85,8.72,7.9h3.45V2.22h-3.7c-.33.66-.74,1.15-1.23,1.48-.49.41-1.48.58-2.8.58-.58,0-3.04-.33-7.24-.99-4.28-.66-8.64-.99-13.16-.99-8.96,0-15.54,1.32-19.9,3.87-4.36,2.63-6.5,5.35-6.5,8.39,0,2.8,1.64,5.18,4.85,7.07,3.29,1.89,8.88,3.87,16.78,5.76l7.98,1.97c5.02,1.23,8.31,2.14,9.95,2.96,2.47,1.15,3.7,2.63,3.7,4.44,0,1.56-1.15,3.04-3.54,4.44-2.39,1.4-6.33,2.14-12.01,2.14s-10.94-.99-15.38-3.04c-4.44-2.06-7.73-5.35-9.71-9.87H1.89v14.89h.16Z"/>
  </g>
  <g>
    <path class="cls-1" d="M109.47,18.92c-.33-1.15-.82-2.39-2.55-2.39-1.15,0-1.81.82-1.81,1.81,0,1.07.74,1.64,2.22,2.47,1.97.99,3.13,1.89,3.13,3.7,0,2.06-1.73,3.54-4.19,3.54-1.15,0-2.14-.33-2.96-.58-.08-.41-.41-2.06-.49-2.96l.66-.16c.33,1.15,1.32,2.96,3.13,2.96,1.15,0,1.89-.74,1.89-1.89s-.66-1.73-2.22-2.55c-1.89-.99-3.04-1.89-3.04-3.7s1.4-3.29,4.03-3.29c1.15,0,2.14.25,2.47.33.08.66.16,1.48.33,2.63l-.58.08Z"/>
    <path class="cls-1" d="M116.13,19.57c2.47,0,4.03,1.81,4.03,4.03,0,2.88-2.14,4.36-4.11,4.36-2.63,0-4.19-2.06-4.19-4.11,0-2.8,2.3-4.28,4.28-4.28ZM115.89,20.23c-.9,0-1.73.9-1.73,3.04s.82,3.95,2.06,3.95c.82,0,1.64-.58,1.64-3.13,0-2.39-.66-3.87-1.97-3.87Z"/>
    <path class="cls-1" d="M130.28,27.31c-.99.16-2.06.41-3.21.66v-1.32c-.82.66-1.56,1.32-2.55,1.32-1.4,0-2.3-.9-2.3-2.63v-3.62c0-.9-.08-.99-.58-1.07l-.41-.08v-.58c.9,0,2.22-.16,3.04-.33-.08.66-.08,1.56-.08,2.71v2.55c0,1.32.66,1.73,1.4,1.73.58,0,1.07-.16,1.48-.66v-4.28c0-.9-.16-.99-.66-1.07l-.58-.08v-.58c1.07-.08,2.55-.16,3.21-.33v5.92c0,.9.08,1.07.74,1.15h.41v.58h.08Z"/>
    <path class="cls-1" d="M134.88,27.72c-.33.16-.58.25-.74.25-1.32,0-2.06-.66-2.06-2.22v-5.1h-1.15l-.08-.25.49-.66h.74v-1.48c.49-.41,1.23-.9,1.81-1.32l.25.08c0,.58-.08,1.56-.08,2.71h1.89c.16.16.08.66-.16.82h-1.73v4.44c0,1.4.58,1.64.99,1.64.33,0,.66-.08.9-.25l.16.58-1.23.74Z"/>
    <path class="cls-1" d="M141.88,27.72v-.58c.9-.08.99-.25.99-1.32v-3.13c0-1.4-.58-1.97-1.48-1.97-.49,0-1.07.16-1.48.66v4.44c0,1.07.08,1.15.99,1.32v.58h-4.11v-.58c.9-.08,1.15-.16,1.15-1.32v-8.39c0-.9-.08-1.07-1.15-1.23v-.58c1.15-.08,2.39-.33,3.21-.58v5.76c.66-.66,1.56-1.23,2.47-1.23,1.56,0,2.47.99,2.47,3.04v3.21c0,1.15.16,1.23,1.07,1.32v.58h-4.11Z"/>
    <path class="cls-1" d="M153.8,26.07c-1.15,1.56-2.47,1.89-3.21,1.89-2.3,0-3.7-1.81-3.7-3.87,0-1.23.58-2.47,1.32-3.21.82-.82,1.81-1.32,2.8-1.32,1.73,0,2.88,1.4,2.88,2.88,0,.33,0,.58-.25.66-.33.08-2.8.25-4.69.33,0,2.06,1.23,3.04,2.55,3.04.74,0,1.4-.25,2.06-.82l.25.41ZM150.59,20.31c-.74,0-1.4.82-1.56,2.22.82,0,1.64,0,2.47-.08.25,0,.41-.08.41-.33,0-.9-.49-1.81-1.32-1.81Z"/>
    <path class="cls-1" d="M160.79,27.96c-.41,0-.82-.16-.99-.33-.25-.25-.33-.49-.49-.74-.66.49-1.56,1.07-1.97,1.07-1.48,0-2.39-1.15-2.39-2.3,0-.9.41-1.4,1.4-1.81,1.07-.41,2.47-.82,2.88-1.15v-.66c0-1.07-.41-1.64-1.32-1.64-.33,0-.58.16-.74.41-.25.25-.33.66-.41,1.15-.08.41-.33.58-.66.58-.41,0-.99-.41-.99-.9,0-.33.25-.49.58-.82.74-.49,1.73-1.07,2.8-1.23.66,0,1.23.16,1.73.49.74.58.99,1.23.99,2.14v3.29c0,.82.33,1.07.58,1.07.16,0,.41-.08.58-.16l.16.58-1.73.99ZM159.31,23.44c-.33.16-.82.41-1.23.66-.58.33-.99.66-.99,1.23,0,.99.74,1.4,1.15,1.4.33,0,.74-.08,1.07-.41v-2.88Z"/>
    <path class="cls-1" d="M168.19,22.04c-.41-1.15-.99-1.81-1.89-1.81-.58,0-.99.41-.99.99,0,.66.49.99,1.4,1.48,1.48.66,2.39,1.23,2.39,2.63,0,1.73-1.64,2.63-3.13,2.63-.9,0-1.89-.33-2.22-.49-.08-.41-.25-1.56-.33-2.22l.58-.08c.33,1.15,1.07,2.14,2.22,2.14.66,0,1.07-.41,1.07-1.07s-.33-1.07-1.4-1.56c-1.23-.58-2.3-1.23-2.3-2.63s1.15-2.47,2.96-2.47c.82,0,1.48.16,1.89.25.08.49.16,1.64.25,2.06l-.49.16Z"/>
    <path class="cls-1" d="M173.95,27.72c-.33.16-.58.25-.74.25-1.32,0-2.06-.66-2.06-2.22v-5.1h-1.15l-.08-.25.49-.66h.74v-1.48c.49-.41,1.23-.9,1.81-1.32l.25.08c0,.58-.08,1.56-.08,2.71h1.89c.16.16.08.66-.16.82h-1.73v4.44c0,1.4.58,1.64.99,1.64.33,0,.66-.08.9-.25l.16.58-1.23.74Z"/>
    <path class="cls-1" d="M183,26.07c-1.15,1.56-2.47,1.89-3.21,1.89-2.3,0-3.7-1.81-3.7-3.87,0-1.23.58-2.47,1.32-3.21.82-.82,1.81-1.32,2.8-1.32,1.73,0,2.88,1.4,2.88,2.88,0,.33,0,.58-.25.66-.33.08-2.8.25-4.69.33,0,2.06,1.23,3.04,2.55,3.04.74,0,1.4-.25,2.06-.82l.25.41ZM179.79,20.31c-.74,0-1.4.82-1.56,2.22.82,0,1.64,0,2.47-.08.25,0,.41-.08.41-.33-.08-.9-.58-1.81-1.32-1.81Z"/>
    <path class="cls-1" d="M188.59,27.72h-4.52v-.58c.99-.08,1.15-.16,1.15-1.32v-3.87c0-.99-.08-1.07-.99-1.23v-.49c1.07-.16,1.97-.33,2.96-.74v1.97c.74-1.15,1.4-1.89,2.22-1.89.66,0,1.15.41,1.15.99,0,.74-.49,1.15-.82,1.32-.25.08-.41.08-.49-.08-.33-.25-.49-.49-.82-.49s-.82.33-1.15,1.15v3.37c0,1.15.08,1.15,1.4,1.32v.58h-.08Z"/>
    <path class="cls-1" d="M196.32,27.72v-.58c.82-.08.9-.16.9-1.4v-3.04c0-1.23-.58-1.81-1.4-1.81-.58,0-1.07.25-1.56.66v4.28c0,1.15.08,1.23.9,1.32v.58h-4.03v-.58c.99-.16,1.15-.16,1.15-1.4v-3.7c0-1.07-.16-1.15-.99-1.32v-.58c.99-.16,2.14-.33,3.04-.66v1.32c.33-.25.74-.49,1.15-.82.49-.33.9-.49,1.4-.49,1.48,0,2.39,1.07,2.39,2.88v3.37c0,1.15.08,1.23,1.07,1.32v.58h-4.03v.08Z"/>
    <path class="cls-1" d="M211.7,15.79c3.21,0,5.92,2.39,5.92,5.92,0,3.87-2.71,6.25-6.09,6.25s-6.09-2.63-6.09-6.09c.08-3.04,2.3-6.09,6.25-6.09ZM211.46,16.53c-1.89,0-3.45,1.73-3.45,5.02s1.4,5.68,3.87,5.68c1.89,0,3.29-1.64,3.29-5.02.08-3.54-1.56-5.68-3.7-5.68Z"/>
    <path class="cls-1" d="M228.15,27.72h-2.96c-.08-.08-2.47-3.45-2.55-3.54-.16-.25-.33-.33-.41-.33h-.25v1.97c0,1.15.08,1.23,1.15,1.4v.58h-4.28v-.66c1.07-.16,1.15-.16,1.15-1.4v-8.31c0-1.07-.08-1.15-1.15-1.32v-.49c1.07-.08,2.22-.33,3.13-.58v8.31c.49-.08.74-.41,1.07-.66.41-.41,1.07-1.23,1.32-1.64.25-.41,0-.58-.74-.74v-.58l3.78-.16v.58c-1.15.16-1.64.41-2.3,1.07-.33.33-.82.99-1.32,1.48.41.66,2.14,2.88,2.71,3.45.66.74.9.82,1.64.9v.66h0Z"/>
    <path class="cls-1" d="M227.99,27.72v-.58c1.07-.16,1.15-.25,1.15-1.4v-8.31c0-.99-.08-1.07-1.15-1.32v-.49c1.15-.08,2.39-.33,3.13-.58v10.77c0,1.15.08,1.23,1.15,1.4v.58h-4.28v-.08Z"/>
    <path class="cls-1" d="M239.09,27.96c-.41,0-.82-.16-.99-.33-.25-.25-.33-.49-.49-.74-.66.49-1.56,1.07-1.97,1.07-1.48,0-2.39-1.15-2.39-2.3,0-.9.41-1.4,1.4-1.81,1.07-.41,2.47-.82,2.88-1.15v-.66c0-1.07-.41-1.64-1.32-1.64-.33,0-.58.16-.74.41-.25.25-.33.66-.41,1.15-.08.41-.33.58-.66.58-.41,0-.99-.41-.99-.9,0-.33.25-.49.58-.82.74-.49,1.73-1.07,2.8-1.23.66,0,1.23.16,1.73.49.74.58.99,1.23.99,2.14v3.29c0,.82.33,1.07.58,1.07.16,0,.41-.08.58-.16l.16.58-1.73.99ZM237.53,23.44c-.33.16-.82.41-1.23.66-.58.33-.99.66-.99,1.23,0,.99.74,1.4,1.15,1.4.33,0,.74-.08,1.07-.41,0-.9,0-2.06,0-2.88Z"/>
    <path class="cls-1" d="M246.41,27.72v-.58c.9-.08.99-.25.99-1.32v-3.13c0-1.4-.58-1.97-1.48-1.97-.49,0-1.07.16-1.48.66v4.44c0,1.07.08,1.15.99,1.32v.58h-4.11v-.58c.9-.08,1.15-.16,1.15-1.32v-8.39c0-.9-.08-1.07-1.15-1.23v-.58c1.15-.08,2.39-.33,3.21-.58v5.76c.66-.66,1.56-1.23,2.47-1.23,1.56,0,2.47.99,2.47,3.04v3.21c0,1.15.16,1.23,1.07,1.32v.58h-4.11Z"/>
    <path class="cls-1" d="M255.71,19.57c2.47,0,4.03,1.81,4.03,4.03,0,2.88-2.14,4.36-4.11,4.36-2.63,0-4.19-2.06-4.19-4.11.08-2.8,2.39-4.28,4.28-4.28ZM255.54,20.23c-.9,0-1.73.9-1.73,3.04s.82,3.95,2.06,3.95c.82,0,1.64-.58,1.64-3.13,0-2.39-.74-3.87-1.97-3.87Z"/>
    <path class="cls-1" d="M270.84,27.72v-.58c.82-.08.99-.16.99-1.32v-3.04c0-1.4-.58-1.89-1.4-1.89-.49,0-.99.16-1.56.66,0,.25.08.49.08.74v3.62c0,1.07.08,1.15.99,1.23v.58h-3.95v-.58c.9-.08.99-.16.99-1.23v-3.21c0-1.32-.49-1.81-1.32-1.81-.58,0-1.07.25-1.56.66v4.36c0,1.07.08,1.15.9,1.23v.58h-4.03v-.58c1.07-.08,1.15-.16,1.15-1.32v-3.78c0-1.07,0-1.15-.9-1.32v-.49c.99-.08,1.89-.33,2.96-.66v1.4c.41-.25.74-.49,1.15-.82.49-.33.9-.49,1.48-.49.99,0,1.64.58,1.97,1.4.49-.33.82-.66,1.32-.9.41-.25.9-.49,1.4-.49,1.48,0,2.39,1.07,2.39,2.88v3.45c0,1.07.08,1.15.99,1.23v.58h-4.03v-.08Z"/>
    <path class="cls-1" d="M281.7,27.96c-.41,0-.82-.16-.99-.33-.25-.25-.33-.49-.49-.74-.66.49-1.56,1.07-1.97,1.07-1.48,0-2.39-1.15-2.39-2.3,0-.9.41-1.4,1.4-1.81,1.07-.41,2.47-.82,2.88-1.15v-.66c0-1.07-.41-1.64-1.32-1.64-.33,0-.58.16-.74.41-.25.25-.33.66-.41,1.15-.08.41-.33.58-.66.58-.41,0-.99-.41-.99-.9,0-.33.25-.49.58-.82.74-.49,1.73-1.07,2.8-1.23.66,0,1.23.16,1.73.49.74.58.99,1.23.99,2.14v3.29c0,.82.33,1.07.58,1.07.16,0,.41-.08.58-.16l.16.58-1.73.99ZM280.21,23.44c-.33.16-.82.41-1.23.66-.58.33-.99.66-.99,1.23,0,.99.74,1.4,1.15,1.4.33,0,.74-.08,1.07-.41,0-.9,0-2.06,0-2.88Z"/>
    <path class="cls-1" d="M140.56,36.6c-.33-1.15-.82-2.39-2.55-2.39-1.15,0-1.81.82-1.81,1.81,0,1.07.74,1.64,2.22,2.47,1.97.99,3.13,1.89,3.13,3.62,0,2.06-1.73,3.54-4.19,3.54-1.15,0-2.14-.33-2.96-.58-.08-.41-.41-2.06-.49-2.96l.82-.16c.33,1.15,1.32,2.96,3.13,2.96,1.15,0,1.89-.74,1.89-1.89s-.66-1.73-2.22-2.55c-1.89-.99-3.04-1.89-3.04-3.7s1.4-3.29,4.03-3.29c1.15,0,2.14.25,2.47.33.08.66.16,1.48.33,2.63l-.74.16Z"/>
    <path class="cls-1" d="M146.73,45.4c-.33.16-.58.25-.74.25-1.32,0-2.06-.66-2.06-2.22v-5.1h-1.15l-.08-.25.49-.66h.74v-1.48c.49-.41,1.23-.9,1.81-1.32l.25.08c0,.58-.08,1.56-.08,2.71h1.89c.16.16.08.66-.16.82h-1.73v4.52c0,1.4.58,1.64.99,1.64.33,0,.66-.08.9-.25l.16.58-1.23.66Z"/>
    <path class="cls-1" d="M154.79,45.65c-.41,0-.82-.16-.99-.33-.25-.25-.33-.49-.49-.74-.66.49-1.56,1.07-1.97,1.07-1.48,0-2.39-1.15-2.39-2.3,0-.9.41-1.4,1.4-1.81,1.07-.41,2.47-.82,2.88-1.15v-.66c0-1.07-.41-1.64-1.32-1.64-.33,0-.58.16-.74.41-.25.25-.33.66-.41,1.15-.08.41-.33.58-.66.58-.41,0-.99-.41-.99-.9,0-.33.25-.49.58-.82.74-.49,1.73-1.07,2.8-1.23.66,0,1.23.16,1.73.49.74.58.99,1.23.99,2.14v3.21c0,.82.33,1.07.58,1.07.16,0,.41-.08.58-.16l.16.58-1.73,1.07ZM153.23,41.04c-.33.16-.82.41-1.23.66-.58.33-.99.66-.99,1.23,0,.99.74,1.4,1.15,1.4.33,0,.74-.08,1.07-.41v-2.88Z"/>
    <path class="cls-1" d="M160.96,45.4c-.33.16-.58.25-.74.25-1.32,0-2.06-.66-2.06-2.22v-5.1h-1.15l-.08-.25.49-.66h.74v-1.48c.49-.41,1.23-.9,1.81-1.32l.25.08c0,.58-.08,1.56-.08,2.71h1.89c.16.16.08.66-.16.82h-1.64v4.52c0,1.4.58,1.64.99,1.64.33,0,.66-.08.9-.25l.16.58-1.32.66Z"/>
    <path class="cls-1" d="M169.92,43.76c-1.15,1.56-2.47,1.89-3.21,1.89-2.3,0-3.7-1.81-3.7-3.87,0-1.23.58-2.47,1.32-3.21.82-.82,1.81-1.32,2.8-1.32,1.73,0,2.88,1.4,2.88,2.88,0,.33,0,.58-.25.66-.33.08-2.8.25-4.69.33,0,2.06,1.23,3.04,2.55,3.04.74,0,1.4-.25,2.06-.82l.25.41ZM166.71,37.92c-.74,0-1.4.82-1.56,2.22.82,0,1.64,0,2.47-.08.25,0,.41-.08.41-.33,0-.82-.49-1.81-1.32-1.81Z"/>
    <path class="cls-1" d="M187.52,34.3c-1.15.08-1.48.41-1.56,1.15,0,.49-.08,1.15-.08,2.55v2.22c0,1.64-.25,3.13-1.23,4.28-.82.9-2.06,1.23-3.37,1.23-1.15,0-2.3-.25-3.13-.9-1.07-.82-1.56-1.97-1.56-4.03v-4.61c0-1.64-.16-1.73-1.56-1.89v-.58h5.26v.58c-1.4.08-1.56.25-1.56,1.89v4.69c0,2.22,1.07,3.62,3.04,3.62,2.3,0,3.21-1.56,3.21-4.36v-2.14c0-1.4-.08-2.06-.08-2.55-.08-.82-.58-1.07-1.81-1.15v-.58h4.44v.58h0Z"/>
    <path class="cls-1" d="M193.36,45.4v-.58c.82-.08.9-.16.9-1.4v-3.04c0-1.23-.58-1.81-1.4-1.81-.58,0-1.07.25-1.56.66v4.28c0,1.15.08,1.23.9,1.32v.58h-4.03v-.58c.99-.16,1.15-.16,1.15-1.4v-3.7c0-1.07-.16-1.15-.99-1.32v-.58c.99-.16,2.14-.33,3.04-.66v1.32c.33-.25.74-.49,1.15-.82.49-.33.9-.49,1.4-.49,1.48,0,2.39,1.07,2.39,2.88v3.37c0,1.15.08,1.23,1.07,1.32v.58h-4.03v.08Z"/>
    <path class="cls-1" d="M198.3,45.4v-.58c.99-.08,1.15-.16,1.15-1.48v-3.54c0-1.15-.08-1.23-.99-1.4v-.58c1.07-.16,2.06-.41,3.04-.66v6.17c0,1.23.08,1.32,1.15,1.48v.58h-4.36ZM200.27,35.86c-.66,0-1.15-.49-1.15-1.15s.58-1.15,1.23-1.15,1.15.49,1.15,1.15-.58,1.15-1.23,1.15Z"/>
    <path class="cls-1" d="M211.54,38c-.99.16-1.07.33-1.48,1.23-.58,1.4-1.56,3.7-2.63,6.33h-.66c-.82-2.14-1.73-4.28-2.55-6.42-.33-.9-.49-1.07-1.48-1.23v-.58h4.19v.58c-.9.16-.99.25-.74.9.41,1.23,1.15,3.04,1.48,3.95.41-1.07,1.07-2.63,1.4-3.78.25-.66.16-.99-.99-1.07v-.58h3.37v.66h.08Z"/>
    <path class="cls-1" d="M218.61,43.76c-1.15,1.56-2.47,1.89-3.21,1.89-2.3,0-3.7-1.81-3.7-3.87,0-1.23.58-2.47,1.32-3.21.82-.82,1.81-1.32,2.8-1.32,1.73,0,2.88,1.4,2.88,2.88,0,.33,0,.58-.25.66-.33.08-2.8.25-4.69.33,0,2.06,1.23,3.04,2.55,3.04.74,0,1.4-.25,2.06-.82l.25.41ZM215.4,37.92c-.74,0-1.4.82-1.56,2.22.82,0,1.64,0,2.47-.08.25,0,.41-.08.41-.33,0-.82-.49-1.81-1.32-1.81Z"/>
    <path class="cls-1" d="M224.2,45.4h-4.52v-.58c.99-.08,1.15-.16,1.15-1.32v-3.87c0-.99-.08-1.07-.99-1.23v-.49c1.07-.16,1.97-.33,2.96-.74v1.97c.74-1.15,1.4-1.89,2.22-1.89.66,0,1.15.41,1.15.99,0,.74-.49,1.15-.82,1.32-.25.08-.41.08-.49-.08-.33-.25-.49-.49-.82-.49s-.82.33-1.15,1.15v3.37c0,1.15.08,1.15,1.4,1.32v.58h-.08Z"/>
    <path class="cls-1" d="M231.77,39.73c-.41-1.15-.99-1.81-1.89-1.81-.58,0-.99.41-.99.99,0,.66.49.99,1.4,1.48,1.48.66,2.39,1.23,2.39,2.63,0,1.73-1.64,2.63-3.13,2.63-.9,0-1.89-.33-2.22-.49-.08-.41-.25-1.56-.33-2.22l.58-.08c.33,1.15,1.07,2.14,2.22,2.14.66,0,1.07-.41,1.07-1.07s-.33-1.07-1.4-1.56c-1.23-.58-2.3-1.23-2.3-2.63s1.15-2.47,2.96-2.47c.82,0,1.48.16,1.89.25.08.49.16,1.64.25,2.06l-.49.16Z"/>
    <path class="cls-1" d="M233.75,45.4v-.58c.99-.08,1.15-.16,1.15-1.48v-3.54c0-1.15-.08-1.23-.99-1.4v-.58c1.07-.16,2.06-.41,3.04-.66v6.17c0,1.23.08,1.32,1.15,1.48v.58h-4.36ZM235.72,35.86c-.66,0-1.15-.49-1.15-1.15s.58-1.15,1.23-1.15,1.15.49,1.15,1.15-.58,1.15-1.23,1.15Z"/>
    <path class="cls-1" d="M242.71,45.4c-.33.16-.58.25-.74.25-1.32,0-2.06-.66-2.06-2.22v-5.1h-1.15l-.08-.25.49-.66h.74v-1.48c.49-.41,1.23-.9,1.81-1.32l.25.08c0,.58-.08,1.56-.08,2.71h1.89c.16.16.08.66-.16.82h-1.73v4.52c0,1.4.58,1.64.99,1.64.33,0,.66-.08.9-.25l.16.58-1.23.66Z"/>
    <path class="cls-1" d="M252.83,38c-.9.16-1.07.33-1.56,1.32-.41.99-.99,2.3-2.06,5.02-1.23,2.88-1.56,4.03-1.89,5.02-.08.41-.33.49-.58.49-.66,0-1.32-.49-1.32-1.07,0-.25.08-.41.49-.66.66-.41,1.15-.82,1.4-1.32.25-.49.49-.99.58-1.23s.08-.41-.08-.74c-.82-2.39-1.97-4.77-2.3-5.76-.33-.82-.58-1.07-1.48-1.15v-.58h4.19v.58c-.82.16-.9.25-.66.9l1.48,4.03c.41-1.07,1.07-2.88,1.48-3.87.16-.58,0-.82-.99-.99v-.58h3.29v.58h0Z"/>
  </g>
  <rect class="cls-2" x="102.89" y="53.62" width="180.45" height="4.85"/>
<!-- Code injected by live-server -->
<script>
	// <![CDATA[  <-- For SVG support
	if ('WebSocket' in window) {
		(function () {
			function refreshCSS() {
				var sheets = [].slice.call(document.getElementsByTagName("link"));
				var head = document.getElementsByTagName("head")[0];
				for (var i = 0; i < sheets.length; ++i) {
					var elem = sheets[i];
					var parent = elem.parentElement || head;
					parent.removeChild(elem);
					var rel = elem.rel;
					if (elem.href && typeof rel != "string" || rel.length == 0 || rel.toLowerCase() == "stylesheet") {
						var url = elem.href.replace(/(&|\?)_cacheOverride=\d+/, '');
						elem.href = url + (url.indexOf('?') >= 0 ? '&' : '?') + '_cacheOverride=' + (new Date().valueOf());
					}
					parent.appendChild(elem);
				}
			}
			var protocol = window.location.protocol === 'http:' ? 'ws://' : 'wss://';
			var address = protocol + window.location.host + window.location.pathname + '/ws';
			var socket = new WebSocket(address);
			socket.onmessage = function (msg) {
				if (msg.data == 'reload') window.location.reload();
				else if (msg.data == 'refreshcss') refreshCSS();
			};
			if (sessionStorage && !sessionStorage.getItem('IsThisFirstTime_Log_From_LiveServer')) {
				console.log('Live reload enabled.');
				sessionStorage.setItem('IsThisFirstTime_Log_From_LiveServer', true);
			}
		})();
	}
	else {
		console.error('Upgrade your browser. This Browser is NOT supported WebSocket for Live-Reloading.');
	}
	// ]]>
</script>
</svg>