<?xml version="1.0" encoding="UTF-8"?>
<svg id="Layer_1" xmlns="http://www.w3.org/2000/svg" viewBox="0 0 285.12 37.57">
  <defs>
    <style>
      .cls-1 {
        fill: #ce1141;
      }

      .cls-2 {
        fill: #231f20;
      }

      .cls-3 {
        fill: #fff;
      }
    </style>
  </defs>
  <g>
    <path class="cls-3" d="M24.35,37.57c2.37,0,4.8-.21,7.2-.64,12.72-2.24,19.7-9.35,19.99-9.65l.48-.5-5.95-9.06,3.49-3.74-2.34-10.26-9.62-2.65-.9.72h-.04c-1.35-.34-5.91-1.45-7.85-1.61-1.42-.11-2.81-.17-4.14-.17C11.88.02,6.61,5.42,4.88,7.19-1.97,14.21-.56,22.48,2.74,27.43c3.08,4.63,9.34,10.14,21.61,10.14h0Z"/>
    <g>
      <path d="M17.03,16.95c-.32-2.17.6-3.33,1.27-3.88-4.42,1.23-6.25,3.59-6.33,5.88-.08,2.31,2.36,4.4,6.15,5.5-1.39-1.17-1.7-3.3-1.7-3.3h3.59s.35.84.95,1.24c.6.39,2.66.27,2.61-.89-.05-1.42-6.06-1.12-6.56-4.54ZM14.5,19.21v1.26s-.88-.63-.84-1.86c.04-1.31,1.51-2.19,1.51-2.19,0,0,.2,1.15.31,1.49.27.8.76,1.31.76,1.31h-1.73Z"/>
      <path d="M44.97,17.64l3.64-3.9-2.12-9.31-8.7-2.4-.89.71s-5.94-1.51-8.16-1.69C14.12-.12,8.12,5.1,5.5,7.79-1.6,15.06.97,23.22,3.46,26.95c6.77,10.16,19.55,10.62,27.94,9.14,12.6-2.22,19.52-9.4,19.52-9.4l-5.95-9.05ZM25.35,34.64c-8.85-.06-11.56-1.47-14.8-3.26-3.99-2.22-7.63-6.92-7.76-12.04-.13-4.89,3.77-16.17,20.16-16.5,8.52-.17,14.5,2,14.5,2l1-.73,6.45,1.86,1.6,7.19-3.99,4.52s-1.94-1.61-5.39-3.09v2.75s-2.53-.8-2.59-.67c-.06.11-.02,5.5,0,7,6.14-1.88,8.85-4.74,8.85-4.74l4.99,7.25s-8.54,8.56-23.01,8.45ZM40.51,18.68s-1.31,1.11-1.97,1.44c-.67.33-2.28.95-2.28.95l-.07-2.26,2.27.67.07-2.2s.57.2,1,.53c.58.44,1,.86,1,.86Z"/>
      <path d="M29.94,15.55c-.59-.1-1.4-.2-1.4-.2v-2.97c-1.16-.12-2.38-.18-3.66-.15-.53,0-1.04.03-1.53.06.79.21,1.81.6,2.5,1.27,1.2,1.16.89,2.6.89,2.6l-3.39.07s-.07-.84-.8-1.06c-.32-.1-1.97-.31-1.97.75,0,1.64,6.46.56,6.63,5.1.1,2.62-1.38,3.8-3.16,4.24.62,0,1.25-.01,1.9-.05,1.95-.13,3.72-.38,5.32-.7v-8.55s-.53-.27-1.33-.4ZM29.6,22.8l-.86.2s.35-1.2.22-2.62c-.13-1.38-1.42-2.64-1.42-2.64l1.11-.02.09-.64.86.33v5.39Z"/>
      <path class="cls-1" d="M43.7,6.9l1.4,5.99-2.86,3.06s-7.04-5.12-17.36-4.92c-10.25.2-14.81,4.22-14.17,8.65.66,4.59,7.38,7.39,16.1,6.79,10.18-.7,16.3-5.72,16.3-5.72l3.53,5.26s-7.04,7.18-20.96,7.38c-9,.13-12.78-1.62-16.57-4.46-2.39-1.8-4.65-4.97-5.06-8.12C2.84,11.43,11.3,4.62,22.35,4.18c9.91-.4,15.37,2.12,15.37,2.12,0,0,.73-.8.93-.8s5.05,1.4,5.05,1.4Z"/>
    </g>
    <path d="M46.32,33.37h-.35v.97h-.34v-.97h-.35v-.27h1.04v.27ZM48.09,34.34h-.33v-.97h-.04l-.31.68h-.23l-.31-.69h-.04v.98h-.31v-1.24h.54l.25.61.26-.61h.52v1.24Z"/>
  </g>
  <g>
    <path class="cls-2" d="M66.54,4.79c0,2.57,2.38,3.4,4.38,4.15,4.06,1.49,5.99,2.79,5.99,6.19,0,2.76-2.41,6.21-7.64,6.21-1.55,0-3.49-.31-4.94-.89-.35-1.96-.48-2.63-.48-2.91,0-.22.13-.38.38-.38.32,0,.41.32.47.6.45,1.78,3.4,2.44,4.95,2.44,2.53,0,5.13-1.27,5.13-4.12,0-2.44-1.84-3.52-4.98-4.66-1.43-.51-5.3-1.74-5.3-5.61S68.32,0,71.71,0c1.33,0,2.57.13,3.58.61.03.75.09,1.55.09,2.31,0,.22-.09.41-.35.41-.32,0-.35-.26-.38-.48-.22-1.36-2.79-1.71-3.81-1.71-2.12,0-4.31,1.3-4.31,3.65"/>
    <path class="cls-2" d="M86.68,16.09c0,2.81.06,3.83.76,3.83h2.09v.82h-7.62v-.82h2.04c.3,0,.41-.19.41-.44V4.46h-.68c-3.18,0-4.73.57-5,1.39-.06.16-.17.38-.38.38-.16,0-.3-.09-.3-.27,0-.16.38-1.36.76-2.47h13.51c.38,1.11.76,2.31.76,2.47,0,.19-.14.27-.3.27-.22,0-.33-.22-.38-.38-.27-.82-1.82-1.39-5-1.39h-.68v11.63Z"/>
    <path class="cls-2" d="M95.49,19.82c0-.79.54-1.28,1.33-1.28s1.33.49,1.33,1.28-.54,1.28-1.33,1.28-1.33-.49-1.33-1.28"/>
    <path class="cls-2" d="M126.18,3.75c-.29,0-.32-.13-.38-.6-.16-1.14-2.79-2-4.7-2-5.83,0-9.19,4.44-9.19,9.96,0,5.9,4.44,9.1,8.37,9.1,2.85,0,5.99-1.29,6.21-3.07.03-.26.06-.57.41-.57.25,0,.32.23.32.42,0,.29-.06.76-.19,2.76-2.12,1.05-4.85,1.62-7.29,1.62-6.31,0-10.72-3.29-10.72-9.89S114.7,0,121.29,0c1.94,0,3.74.41,5.46,1.08-.22,2.57-.25,2.67-.57,2.67"/>
    <path class="cls-2" d="M134.89,4.3h-1.23c-.29,0-.41.19-.41.43v11.67c0,3.37.3,3.37,1.12,3.37h1.82c4.62,0,5.68-.68,6.14-1.45.08-.13.14-.3.33-.3.11,0,.22.16.22.3,0,.25-.36,1.33-.68,2.42h-12.94v-.82h1.28c.3,0,.41-.19.41-.44v-11.36c0-2.8-.05-3.83-.76-3.83h-1.6v-.82h6.3v.82Z"/>
    <path class="cls-2" d="M146.01,11.61c0,6.15,3.64,8.76,6.85,8.76,3.67,0,6.14-2.8,6.14-7.74,0-6.15-3.64-8.76-6.85-8.76-3.67,0-6.14,2.81-6.14,7.75M143.7,12.37c0-5.14,3.64-9.41,9.05-9.41s8.56,3.59,8.56,8.89-3.64,9.4-9.06,9.4-8.56-3.58-8.56-8.89"/>
    <path class="cls-2" d="M162.45,3.48h6.31v.82h-1.22c-.3,0-.4.19-.4.43v10.3c0,4,2.64,5.12,4.62,5.12,5.63,0,5.71-4.33,5.71-6.47v-6.53c0-1.25-.05-2.85-.87-2.85h-1.44v-.82h4.97v.82h-1.01c-.33,0-.63.13-.63.54v9.67c0,4.19-2.66,6.74-6.87,6.74-6.5,0-6.8-4.24-6.8-7.09v-6.04c0-2.8-.05-3.83-.76-3.83h-1.61v-.82Z"/>
    <path class="cls-2" d="M186.21,16.39c0,3.37.3,3.37,1.11,3.37h2.17c4.81,0,6.5-3.84,6.5-6.9,0-5.99-3.73-8.4-7.67-8.4-1.79,0-2.12,0-2.12.49v11.44ZM181.53,3.48h7.99c7.67,0,8.94,5.82,8.94,8.29,0,4.86-3.29,8.97-8.91,8.97h-7.35v-.82h1.28c.3,0,.41-.19.41-.44v-11.36c0-2.8-.06-3.83-.77-3.83h-1.6v-.82Z"/>
    <path class="cls-2" d="M210.03,4.79c0,2.57,2.37,3.4,4.37,4.15,4.06,1.49,5.99,2.79,5.99,6.19,0,2.76-2.4,6.21-7.64,6.21-1.55,0-3.49-.31-4.95-.89-.35-1.96-.48-2.63-.48-2.91,0-.22.13-.38.38-.38.32,0,.41.32.47.6.45,1.78,3.39,2.44,4.95,2.44,2.54,0,5.14-1.27,5.14-4.12,0-2.44-1.84-3.52-4.98-4.66-1.43-.51-5.3-1.74-5.3-5.61S211.81,0,215.19,0c1.34,0,2.57.13,3.59.61.03.75.09,1.55.09,2.31,0,.22-.09.41-.34.41-.32,0-.35-.26-.38-.48-.23-1.36-2.79-1.71-3.81-1.71-2.12,0-4.31,1.3-4.31,3.65"/>
    <path class="cls-2" d="M230.17,16.09c0,2.81.05,3.83.76,3.83h2.09v.82h-7.61v-.82h2.04c.3,0,.41-.19.41-.44V4.46h-.68c-3.18,0-4.73.57-5,1.39-.06.16-.17.38-.38.38-.16,0-.3-.09-.3-.27,0-.16.38-1.36.76-2.47h13.51c.38,1.11.76,2.31.76,2.47,0,.19-.14.27-.3.27-.22,0-.32-.22-.38-.38-.27-.82-1.82-1.39-5-1.39h-.68v11.63Z"/>
    <path class="cls-2" d="M245.03,6.06l-3.02,7.23h5.41l-2.39-7.23ZM241.63,14.27c-.6,1.52-1.58,4.18-1.58,4.94,0,.57.28.71.68.71h1.71v.82h-5.49v-.82h.55c.4,0,.81-.08.98-.44l6.88-16.28c.68-.17,1.44-.36,1.61-.36.13,0,.26.09.26.28,0,.35-.48.32-.48.84,0,1.17,3.37,10.24,4.7,13.86.63,1.71.95,2.09,1.66,2.09h.82v.82h-6.09v-.82h1.47c.19,0,.38-.08.38-.27s-.76-2.09-1.87-5.38h-6.17Z"/>
    <path class="cls-2" d="M263.3,16.09c0,2.81.05,3.83.76,3.83h2.09v.82h-7.61v-.82h2.04c.29,0,.4-.19.4-.44V4.46h-.68c-3.18,0-4.73.57-5,1.39-.05.16-.16.38-.38.38-.16,0-.3-.09-.3-.27,0-.16.38-1.36.76-2.47h13.51c.38,1.11.76,2.31.76,2.47,0,.19-.13.27-.29.27-.22,0-.33-.22-.38-.38-.27-.82-1.82-1.39-5-1.39h-.68v11.63Z"/>
    <path class="cls-2" d="M273.18,8.13c0-2.8-.05-3.83-.76-3.83h-1.61v-.82h13.62c-.24,2.39-.33,2.47-.57,2.53-.22,0-.27-.13-.33-.49-.08-.32-.54-1.06-4.84-1.06h-2.66c-.41,0-.54.22-.54.49v5.9h3.15c2.8,0,3.64-.11,3.64-.92v-1.06h.74v4.59h-.74v-.95c0-.73-.27-.76-3.37-.76h-3.43v4.65c0,3.37.29,3.37,1.12,3.37h1.82c4.63,0,5.68-.68,6.14-1.45.09-.13.14-.3.33-.3.11,0,.22.16.22.3,0,.25-.35,1.33-.68,2.42h-12.94v-.82h1.28c.3,0,.4-.19.4-.44v-11.36Z"/>
    <path class="cls-2" d="M64.79,29.25h2.94v.38h-.57c-.14,0-.19.09-.19.2v4.8c0,1.87,1.22,2.38,2.15,2.38,2.63,0,2.66-2.02,2.66-3.02v-3.04c0-.58-.02-1.33-.41-1.33h-.67v-.38h2.32v.38h-.47c-.15,0-.29.06-.29.26v4.51c0,1.95-1.24,3.15-3.21,3.15-3.03,0-3.17-1.98-3.17-3.31v-2.81c0-1.3-.02-1.79-.35-1.79h-.75v-.38Z"/>
    <path class="cls-2" d="M97.43,35.53h.03v-4.57c0-.59-.03-1.33-.41-1.33h-.67v-.38h2.32v.38h-.47c-.15,0-.29.06-.29.26v7.33c0,.12-.01.2-.1.2-.04,0-.09-.04-.18-.14l-.15-.18-5.49-6.62h-.03v5.11c0,.59.03,1.34.41,1.34h.67v.38h-2.32v-.38h.47c.15,0,.29-.06.29-.25v-5.59c0-1.02-.11-1.45-.71-1.45h-.39v-.38h1.84l5.18,6.28Z"/>
    <path class="cls-2" d="M118.53,35.14c0,1.3.02,1.79.35,1.79h.72v.38h-2.94v-.38h.59c.15,0,.19-.09.19-.2v-5.3c0-1.3-.03-1.79-.36-1.79h-.75v-.38h2.94v.38h-.57c-.14,0-.19.09-.19.2v5.3Z"/>
    <path class="cls-2" d="M144.68,29.64h-.56c-.08,0-.1,0-.15.14l-2.89,7.33c-.11.28-.15.45-.28.45-.09,0-.13-.1-.22-.33l-2.69-6.51c-.43-1.02-.51-1.08-.92-1.08h-.31v-.38h2.74v.38h-.69c-.08,0-.13,0-.13.08,0,.11.89,2.08,2.51,6.02,1.62-3.94,2.2-5.4,2.2-5.88,0-.18-.1-.22-.32-.22h-.72v-.38h2.41v.38Z"/>
    <path class="cls-2" d="M162.79,31.42c0-1.3-.03-1.79-.35-1.79h-.75v-.38h6.35c-.11,1.12-.15,1.16-.27,1.18-.1,0-.12-.06-.15-.23-.03-.15-.25-.49-2.25-.49h-1.24c-.19,0-.25.1-.25.22v2.75h1.47c1.3,0,1.7-.06,1.7-.43v-.5h.34v2.14h-.34v-.44c0-.34-.12-.35-1.58-.35h-1.59v2.17c0,1.57.14,1.57.52,1.57h.85c2.16,0,2.65-.32,2.87-.67.04-.07.06-.14.15-.14.05,0,.1.07.1.14,0,.12-.16.62-.32,1.13h-6.03v-.38h.6c.14,0,.19-.09.19-.2v-5.3Z"/>
    <path class="cls-2" d="M188.55,33.28c1.09,0,2.2-.4,2.2-1.64s-.89-1.92-1.9-1.92h-.65c-.11,0-.28,0-.28.18v3.38h.63ZM186.84,31.42c0-1.3-.02-1.79-.35-1.79h-.74v-.38h3.55c1.11,0,2.55.57,2.55,2.18,0,1.14-.86,1.84-1.98,2.04,2.09,3.04,2.52,3.45,2.89,3.45h.32v.38h-1.45c-.3,0-.44,0-2.76-3.65h-.93v1.48c0,1.31.03,1.79.35,1.79h.72v.38h-2.94v-.38h.6c.14,0,.19-.09.19-.2v-5.3Z"/>
    <path class="cls-2" d="M211.02,30.93c0,1.03.95,1.36,1.75,1.66,1.62.6,2.4,1.11,2.4,2.47,0,1.1-.96,2.49-3.06,2.49-.62,0-1.39-.13-1.98-.36-.14-.79-.19-1.05-.19-1.17,0-.09.05-.15.15-.15.13,0,.17.13.19.24.18.71,1.36.98,1.98.98,1.02,0,2.06-.51,2.06-1.65,0-.98-.74-1.41-1.99-1.86-.58-.21-2.12-.71-2.12-2.25s1.52-2.33,2.88-2.33c.53,0,1.02.06,1.43.24.02.31.04.62.04.93,0,.08-.04.16-.14.16-.13,0-.14-.1-.16-.19-.08-.54-1.11-.68-1.52-.68-.85,0-1.72.52-1.72,1.46"/>
    <path class="cls-2" d="M234.68,35.14c0,1.3.03,1.79.36,1.79h.72v.38h-2.94v-.38h.59c.14,0,.19-.09.19-.2v-5.3c0-1.3-.02-1.79-.36-1.79h-.74v-.38h2.94v.38h-.57c-.13,0-.19.09-.19.2v5.3Z"/>
    <path class="cls-2" d="M257.13,35.14c0,1.3.03,1.79.36,1.79h.97v.38h-3.55v-.38h.95c.14,0,.19-.09.19-.2v-7.01h-.32c-1.48,0-2.21.27-2.33.65-.03.07-.08.18-.18.18-.07,0-.13-.04-.13-.13,0-.08.18-.64.36-1.16h6.3c.18.52.35,1.08.35,1.16,0,.09-.06.13-.14.13-.1,0-.15-.11-.17-.18-.13-.38-.85-.65-2.34-.65h-.31v5.43Z"/>
    <path class="cls-2" d="M281.28,35.14c0,1.3.02,1.79.36,1.79h.72v.38h-2.94v-.38h.6c.14,0,.19-.09.19-.2v-2.88c-1.45-2.55-1.89-3.43-2.35-4.02-.15-.18-.21-.19-.42-.19h-.43v-.38h2.85v.38h-.58c-.09,0-.2,0-.2.05,0,.11,1.09,1.96,2.04,3.64,1.56-2.93,1.73-3.3,1.73-3.54,0-.14-.1-.15-.25-.15h-.74v-.38h2.3v.38h-.44c-.2,0-.26.22-.35.38l-2.08,3.79v1.33Z"/>
  </g>
<!-- Code injected by live-server -->
<script>
	// <![CDATA[  <-- For SVG support
	if ('WebSocket' in window) {
		(function () {
			function refreshCSS() {
				var sheets = [].slice.call(document.getElementsByTagName("link"));
				var head = document.getElementsByTagName("head")[0];
				for (var i = 0; i < sheets.length; ++i) {
					var elem = sheets[i];
					var parent = elem.parentElement || head;
					parent.removeChild(elem);
					var rel = elem.rel;
					if (elem.href && typeof rel != "string" || rel.length == 0 || rel.toLowerCase() == "stylesheet") {
						var url = elem.href.replace(/(&|\?)_cacheOverride=\d+/, '');
						elem.href = url + (url.indexOf('?') >= 0 ? '&' : '?') + '_cacheOverride=' + (new Date().valueOf());
					}
					parent.appendChild(elem);
				}
			}
			var protocol = window.location.protocol === 'http:' ? 'ws://' : 'wss://';
			var address = protocol + window.location.host + window.location.pathname + '/ws';
			var socket = new WebSocket(address);
			socket.onmessage = function (msg) {
				if (msg.data == 'reload') window.location.reload();
				else if (msg.data == 'refreshcss') refreshCSS();
			};
			if (sessionStorage && !sessionStorage.getItem('IsThisFirstTime_Log_From_LiveServer')) {
				console.log('Live reload enabled.');
				sessionStorage.setItem('IsThisFirstTime_Log_From_LiveServer', true);
			}
		})();
	}
	else {
		console.error('Upgrade your browser. This Browser is NOT supported WebSocket for Live-Reloading.');
	}
	// ]]>
</script>
</svg>