<?xml version="1.0" encoding="UTF-8"?>
<svg id="Layer_1" xmlns="http://www.w3.org/2000/svg" viewBox="0 0 291.39 52.49">
  <defs>
    <style>
      .cls-1 {
        fill: #aa182c;
      }
    </style>
  </defs>
  <rect class="cls-1" x="107.98" width=".95" height="52.49"/>
  <path class="cls-1" d="M32.51,41.49l.08-13.76-4.38-10.04.14,19.52c-2.02,3.27-7.43,4.93-11.48,4.93s-9.87-2.6-9.87-10.8l.16-19.32c0-1.61.52-3.12,2.49-3.12v-.93c-1.51,0-3.06.21-4.83.21-1.61,0-3.17-.21-4.83-.21v.93c1.97,0,2.7,1.51,2.7,3.12l.16,19.53c0,8.41,5.3,13.29,12.98,13.29,4.88,0,8.83-2.49,12.41-4.93v2.54c0,.62-.21,1.09-.52,1.4v.36c1.3,0,2.6-.21,3.89-.21s2.6.21,3.89.21v-.93c-1.77,0-3.01-.93-3.01-1.8"/>
  <path class="cls-1" d="M75.94,8.59v-.93c-1.45,0-2.91.21-4.36.21s-2.91-.21-4.36-.21v.93c1.92.36,2.23.99,2.23,2.08,0,.99-.21,2.18-.78,3.37l-10.64,23.63-4.98-11.63,6.23-12.88c1.09-2.18,2.7-4.41,4.52-4.57v-.93c-1.35,0-2.7.21-4.05.21s-2.7-.21-4.05-.21v.93c1.61.42,1.82.93,1.82,2.08,0,.52-.1,1.14-.47,1.92l-5.09,10.75-4.62-11.68c-.31-.88-.47-1.51-.47-1.87.05-.62.62-1.09,1.97-1.19v-.93c-1.61,0-3.22.21-4.78.21s-3.22-.21-4.83-.21v.93c2.02.31,2.49,1.09,3.01,2.18l7.37,17.19-4.98,10.07-10.91-25.86c-.62-1.51-.67-1.97-.67-2.34,0-.73.78-1.09,1.77-1.25v-.93c-1.45,0-3.01.21-4.57.21s-3.12-.21-4.67-.21v.93c1.19.52,1.92.99,3.17,3.89l13.97,32.04h1.04l7.01-14.13,5.5,14.13h1.04l9.45-21.08c4.1-9.14,6.65-14.02,9.19-14.85"/>
  <path class="cls-1" d="M90.7,39.28l-11.15-31.26h-.87l-12.44,31.26c-.93,2.26-1.29,3.5-3.86,4.32v.93c1.59,0,2.93-.21,4.27-.21s2.62.21,3.91.21v-.93c-1.29-.46-2.21-1.13-2.21-2.06,0-.51,0-1.8.36-2.78l1.64-4.52h14.39l2.01,5.4c.26.72.57,1.39.57,2.21,0,.62-1.13,1.29-1.8,1.75v.93c1.54,0,3.08-.21,4.63-.21s3.08.21,4.63.21v-.93c-2.47-.93-3.19-1.85-4.06-4.32M71.17,32.14l6.84-16.76,6.07,16.76h-12.9Z"/>
  <path class="cls-1" d="M159.94,10.28c0-.68-.22-1.32-1.1-1.32v-.4c.68,0,1.35.09,2.01.09.75,0,1.41-.09,1.96-.09v.4c-.75,0-.97.64-.97,1.32l-.07,11.95c0,.93.53,1.32,1.28,1.32v.4c-.55,0-1.1-.09-1.65-.09s-1.1.09-1.65.09v-.15c.13-.13.22-.33.22-.6v-1.08c-1.52,1.04-3.2,2.1-5.27,2.1-3.26,0-5.51-2.07-5.51-5.65l-.07-8.29c0-.68-.31-1.32-1.15-1.32v-.4c.71,0,1.37.09,2.05.09.75,0,1.41-.09,2.05-.09v.4c-.84,0-1.06.64-1.06,1.32l-.07,8.2c0,3.48,2.43,4.59,4.19,4.59s4.01-.71,4.87-2.09l-.07-10.7Z"/>
  <path class="cls-1" d="M165.99,8.56h.48c.71.75,1.35,1.59,2.07,2.34l9.46,9.79v-7.28c0-3.86-.26-4.17-1.7-4.45v-.4c.86,0,1.5.09,2.14.09s1.28-.09,1.92-.09v.4c-1.19.29-1.46.59-1.46,1.72v13.28h-.48l-11.34-11.71v8.4c0,2.32.26,2.62,1.54,2.91v.4c-.73,0-1.37-.09-2.01-.09-.84,0-1.48.09-2.03.09v-.4c1.12-.29,1.39-.59,1.39-1.72v-13.28Z"/>
  <path class="cls-1" d="M186.55,8.96c-.86,0-1.1.64-1.1,1.32l-.11,11.95c0,.68.35,1.32,1.01,1.32v.4c-.46,0-1.12-.09-1.87-.09-.66,0-1.32.09-1.77.09v-.4c.62,0,.97-.64.97-1.32l-.11-11.95c0-.68-.24-1.32-1.1-1.32v-.4c.68,0,1.35.09,2.01.09.75,0,1.41-.09,2.07-.09v.4Z"/>
  <path class="cls-1" d="M195.3,24.22l-5.69-14.22c-.35-.88-.49-.95-1.1-1.04v-.4c.68,0,1.37.09,2.05.09s1.37-.09,2.05-.09v.4c-.22.04-.82.18-.82.4,0,.13.07.38.24.88l3.95,11.18,4.01-10.03c.24-.64.29-1.32.29-1.46,0-.68-.2-.86-.95-.97v-.4c.64,0,1.28.09,1.92.09s1.28-.09,1.94-.09v.4c-.77.09-1.01.4-1.37,1.23l-5.93,14.03h-.59Z"/>
  <path class="cls-1" d="M214.36,10.97h-.4c-.22-.99-1.04-1.57-2.89-1.57h-3.44c-.13.97-.18,2.76-.18,4.06v2.23h3.86c1.24,0,1.65-.29,1.9-1.12h.4c-.02.46-.07.97-.07,1.48s.04,1.01.07,1.5h-.4c-.24-.82-.66-1.1-1.9-1.1h-3.86v6.68h4.59c1.41,0,2.03-.64,2.43-1.52l.35.07-.33,2.4c-.77-.15-1.52-.2-2.93-.2h-7.1v-.31c.9-.04,1.23-.35,1.23-1.32v-6.13c0-6.84-.09-7.01-1.23-7.06v-.4h8.78c.49,0,.62-.13.73-.35h.4v2.67Z"/>
  <path class="cls-1" d="M218.02,16.26c0-1.98-.09-3.99-.09-5.58,0-1.15-.24-1.72-1.21-1.72v-.4c1.06,0,2.95-.13,4.12-.13,3.04,0,5.89,1.15,5.89,4.56,0,2.05-1.83,3.51-3.73,3.99l4.87,5.67c.46.55.86.73,1.39.9v.4c-.57,0-1.15-.09-1.72-.09s-1.15.09-1.72.09v-.4c.07-.04.18-.11.18-.15,0-.07-.09-.24-.18-.35l-3.77-4.59c-.53-.64-1.21-1.15-2.27-1.26v5.03c0,.68.29,1.32,1.04,1.32v.4c-.55,0-1.21-.09-1.96-.09-.66,0-1.32.09-1.87.09v-.4c.75,0,1.04-.64,1.04-1.32v-5.98ZM219.79,16.5c.26.04.62.13,1.01.13,2.43,0,4.01-1.46,4.01-3.68s-1.37-3.86-3.88-3.86c-.88,0-1.06.04-1.06.75,0,1.01-.09,2.21-.09,3.15v3.51Z"/>
  <path class="cls-1" d="M238.66,11.08c-.46-1.43-2.05-2.07-3.44-2.07-1.79,0-3.51.93-3.51,2.93,0,4.74,7.79,2.65,7.79,7.92,0,2.87-2.07,4.37-4.79,4.37-1.34,0-2.71-.24-4.08-.64l-.09-2.29h.4c.51,1.57,2.27,2.23,3.75,2.23,1.74,0,3.26-.86,3.26-2.8,0-4.68-7.79-2.23-7.79-7.92,0-3.2,2.52-4.5,5.4-4.5,1.15,0,2.25.35,3.4.31l.09,2.47h-.4Z"/>
  <path class="cls-1" d="M246.08,8.96c-.86,0-1.1.64-1.1,1.32l-.11,11.95c0,.68.35,1.32,1.01,1.32v.4c-.46,0-1.12-.09-1.87-.09-.66,0-1.32.09-1.76.09v-.4c.62,0,.97-.64.97-1.32l-.11-11.95c0-.68-.24-1.32-1.1-1.32v-.4c.68,0,1.35.09,2.01.09.75,0,1.41-.09,2.07-.09v.4Z"/>
  <path class="cls-1" d="M250.64,9.56c-1.43,0-1.92.38-2.32,1.54h-.4l-.09-2.8h.11c.35.13.88.26,1.3.26,1.81,0,3.62.09,5.42.09s3.62-.09,5.42-.09c.42,0,.95-.13,1.3-.26h.11l-.09,2.8h-.4c-.4-1.17-.88-1.54-2.32-1.54h-3.09l-.07,12.68c0,.82.33,1.04,1.48,1.32v.4c-.79,0-1.59-.09-2.38-.09s-1.59.09-2.38.09v-.4c1.21-.29,1.52-.51,1.52-1.32l-.07-12.68h-3.09Z"/>
  <path class="cls-1" d="M268.13,16.86l-3.9-6.31c-.49-.82-1.08-1.32-1.72-1.59v-.4c.68,0,1.37.09,2.05.09s1.37-.09,2.05-.09v.4c-.51.11-.79.31-.79.71,0,.13.09.46.29.82l3.2,5.38,3.29-5.25c.35-.53.51-.93.51-1.08,0-.44-.38-.53-.73-.57v-.4c.57,0,1.15.09,1.72.09s1.15-.09,1.72-.09v.4c-1.1.4-3,2.87-3.84,4.19l-2.07,3.29v5.8c0,.68.29,1.32,1.08,1.32v.4c-.59,0-1.26-.09-2.01-.09-.66,0-1.32.09-1.96.09v-.4c.84,0,1.13-.64,1.13-1.32v-5.38Z"/>
  <path class="cls-1" d="M280.96,14.65c1.09,0,1.85,1.06,1.85,2.63,0,1.82-1.37,4.21-3.29,4.21-1.09,0-1.85-1.06-1.85-2.63,0-1.82,1.37-4.21,3.29-4.21M280.11,20.79c1.09,0,1.67-2.38,1.67-3.32s-.41-2.13-1.42-2.13c-1.09,0-1.67,2.38-1.67,3.32s.41,2.13,1.42,2.13"/>
  <path class="cls-1" d="M281.49,23.96c.31.03.63.15.99.15,1.52,0,1.93-.58,2.11-2.08.33-2.73.41-4.54.61-6.86h-.89l.08-.41h.84c.25-1.83.33-5.57,2.91-5.57.18,0,.5.07.79.18v1.22c-.25-.33-.48-.71-1.14-.71-.83,0-.99.21-1.39,4.87h1.24l-.08.41h-1.19c-.1.99-.23,2.4-.35,4.21-.15,2.3-.86,5.42-3.68,5.42h-.35l-.51-.84Z"/>
  <path class="cls-1" d="M129.45,44.22l-6.01-13.8c-.54-1.25-.85-1.45-1.36-1.68v-.4c.67,0,1.34.09,2.01.09s1.34-.09,1.97-.09v.4c-.42.07-.76.22-.76.54,0,.16.02.36.29,1.01l4.7,11.14,2.15-4.34-3.17-7.4c-.22-.47-.43-.8-1.3-.94v-.4c.69,0,1.39.09,2.08.09s1.36-.09,2.06-.09v.4c-.58.04-.83.25-.85.51,0,.16.07.42.2.8l1.99,5.03,2.19-4.63c.16-.34.2-.6.2-.83,0-.49-.09-.72-.78-.89v-.4c.58,0,1.16.09,1.74.09s1.16-.09,1.74-.09v.4c-.78.07-1.48,1.03-1.94,1.97l-2.68,5.55,2.15,5.01,4.58-10.17c.25-.51.34-1.03.34-1.45,0-.47-.13-.74-.96-.89v-.4c.63,0,1.25.09,1.88.09s1.25-.09,1.88-.09v.4c-1.1.36-2.19,2.46-3.96,6.4l-4.07,9.08h-.45l-2.37-6.08-3.02,6.08h-.45Z"/>
  <path class="cls-1" d="M154.95,30.78h-.4c-.22-1.01-1.05-1.59-2.93-1.59h-3.49c-.13.98-.18,2.8-.18,4.11v2.26h3.91c1.25,0,1.68-.29,1.92-1.14h.4c-.02.47-.07.98-.07,1.5s.04,1.03.07,1.52h-.4c-.25-.83-.67-1.12-1.92-1.12h-3.91v6.78h4.65c1.43,0,2.06-.65,2.46-1.54l.36.07-.34,2.44c-.78-.16-1.54-.2-2.97-.2h-7.2v-.31c.92-.04,1.25-.36,1.25-1.34v-6.22c0-6.93-.09-7.11-1.25-7.16v-.4h8.9c.49,0,.63-.13.74-.36h.4v2.71Z"/>
  <path class="cls-1" d="M166.11,30.89c-.47-1.45-2.08-2.1-3.49-2.1-1.81,0-3.56.94-3.56,2.97,0,4.81,7.89,2.68,7.89,8.03,0,2.91-2.1,4.43-4.85,4.43-1.36,0-2.75-.25-4.14-.65l-.09-2.33h.4c.51,1.59,2.3,2.26,3.8,2.26,1.77,0,3.31-.87,3.31-2.84,0-4.74-7.89-2.26-7.89-8.03,0-3.24,2.55-4.56,5.48-4.56,1.16,0,2.28.36,3.44.31l.09,2.5h-.4Z"/>
  <path class="cls-1" d="M171.41,29.35c-1.45,0-1.94.38-2.35,1.57h-.4l-.09-2.84h.11c.36.13.89.27,1.32.27,1.83,0,3.67.09,5.5.09s3.67-.09,5.5-.09c.42,0,.96-.13,1.32-.27h.11l-.09,2.84h-.4c-.4-1.19-.89-1.57-2.35-1.57h-3.13l-.07,12.86c0,.83.33,1.05,1.5,1.34v.4c-.8,0-1.61-.09-2.41-.09s-1.61.09-2.41.09v-.4c1.23-.29,1.54-.51,1.54-1.34l-.07-12.86h-3.13Z"/>
  <path class="cls-1" d="M192.45,39.48l-.72,1.97c-.16.42-.16.98-.16,1.21,0,.4.4.69.96.89v.4c-.56,0-1.14-.09-1.7-.09s-1.16.09-1.86.09v-.4c1.12-.36,1.27-.89,1.68-1.88l5.41-13.59h.38l4.85,13.59c.38,1.07.69,1.48,1.77,1.88v.4c-.67,0-1.34-.09-2.01-.09s-1.34.09-2.01.09v-.4c.29-.2.78-.49.78-.76,0-.36-.13-.65-.25-.96l-.87-2.35h-6.26ZM192.81,38.56h5.61l-2.64-7.29-2.97,7.29Z"/>
  <path class="cls-1" d="M205.92,36.62c0-7.51-.09-7.69-1.3-7.87v-.4c.8,0,1.48.09,2.15.09.76,0,1.43-.09,1.99-.09v.4c-.76,0-1.05.65-1.05,1.34,0,1.07-.13,4.47-.13,6.53s.13,4.74.13,6.48h4.43c1.7,0,2.39-.6,2.97-1.83l.36.11-.56,2.68c-.76-.2-3.4-.2-5.05-.2s-3.33.09-4.99.09v-.4c.76,0,1.05-.65,1.05-1.34v-5.59Z"/>
  <path class="cls-1" d="M219.4,39.48l-.72,1.97c-.16.42-.16.98-.16,1.21,0,.4.4.69.96.89v.4c-.56,0-1.14-.09-1.7-.09s-1.16.09-1.86.09v-.4c1.12-.36,1.27-.89,1.68-1.88l5.41-13.59h.38l4.85,13.59c.38,1.07.69,1.48,1.77,1.88v.4c-.67,0-1.34-.09-2.01-.09s-1.34.09-2.01.09v-.4c.29-.2.78-.49.78-.76,0-.36-.13-.65-.25-.96l-.87-2.35h-6.26ZM219.76,38.56h5.61l-2.64-7.29-2.97,7.29Z"/>
  <path class="cls-1" d="M232.62,30.94c0-1.97-.27-2.19-1.07-2.19v-.4c.76,0,1.48.09,2.19.09s1.43-.09,2.15-.09c2.35,0,4.67.94,4.67,3.89,0,1.94-1.36,3.17-3.15,3.64v.04c2.3.51,3.49,2.12,3.49,3.87,0,3.58-2.66,4.16-5.01,4.16-.72,0-1.43-.09-2.15-.09-.92,0-1.72.09-2.21.09v-.4c.83,0,1.14-.65,1.14-1.34l-.04-11.27ZM234.45,42.28c0,.85.2,1.05,1.05,1.05,2.39,0,3.6-1.36,3.6-3.64s-1.5-3.49-3.44-3.49h-1.18l-.02,6.08ZM234.47,35.57h.67c2.21,0,3.62-.76,3.62-3.15s-1.39-3.67-3.35-3.67c-.83,0-.92.34-.92,1.01l-.02,5.81Z"/>
  <path class="cls-1" d="M245.95,39.48l-.72,1.97c-.16.42-.16.98-.16,1.21,0,.4.4.69.96.89v.4c-.56,0-1.14-.09-1.7-.09s-1.16.09-1.86.09v-.4c1.12-.36,1.27-.89,1.68-1.88l5.41-13.59h.38l4.85,13.59c.38,1.07.69,1.48,1.77,1.88v.4c-.67,0-1.34-.09-2.01-.09s-1.34.09-2.01.09v-.4c.29-.2.78-.49.78-.76,0-.36-.13-.65-.25-.96l-.87-2.35h-6.26ZM246.3,38.56h5.61l-2.64-7.29-2.97,7.29Z"/>
  <path class="cls-1" d="M267.5,40.89l6.26-12.81h.38l.65,13.3c.09,1.81.22,2.01,1.21,2.17v.4c-.65,0-1.32-.09-2.1-.09-.65,0-1.32.09-1.88.09v-.4c.94-.07,1.12-.72,1.12-1.52,0-.85-.04-1.57-.07-1.92l-.45-7.94h-.09l-5.55,11.29-6.46-11.31h-.11l-.42,7.02c-.04.58-.04,1.61-.04,2.19,0,1.56.63,2.1,1.39,2.19v.4c-.63,0-1.27-.09-1.94-.09s-1.28.09-1.92.09v-.4c1.18-.27,1.36-.65,1.5-2.59l.85-12.88h.4l7.29,12.81Z"/>
  <path class="cls-1" d="M280.77,39.48l-.72,1.97c-.16.42-.16.98-.16,1.21,0,.4.4.69.96.89v.4c-.56,0-1.14-.09-1.7-.09s-1.16.09-1.86.09v-.4c1.12-.36,1.27-.89,1.68-1.88l5.41-13.59h.38l4.85,13.59c.38,1.07.69,1.48,1.77,1.88v.4c-.67,0-1.34-.09-2.01-.09s-1.34.09-2.01.09v-.4c.29-.2.78-.49.78-.76,0-.36-.13-.65-.25-.96l-.87-2.35h-6.26ZM281.12,38.56h5.61l-2.64-7.29-2.97,7.29Z"/>
  <path class="cls-1" d="M125.76,21.29l1.27-8.21c-1.29,0-1.83.02-3.16.07l-.18.94h-.38l.34-2.54h.47l-.07.66c.61.05,1.6.07,3.71.07,1.67,0,2.79-.02,3.47-.07l.14-.66h.39l-.32,2.54h-.47l.07-.94c-1.26-.05-1.71-.07-2.79-.07l-1.25,8.21,1.29.05-.09.44c-.65,0-1.29-.05-1.94-.05s-1.29.05-1.94.05l.09-.44,1.33-.05Z"/>
  <path class="cls-1" d="M132.03,21.73l1.51-10.07c.04-.23.07-.96.07-1.17-.09-.17-.13-.23-.18-.23-.21,0-.65.63-.74.78l-.34-.21c.39-.44,1.47-1.95,2.07-1.95.2,0,.3.16.3.44,0,1.76-.7,5.17-1.06,8.52h.04c.65-.99,2.08-3.21,3.46-3.21.92,0,1.08.92,1.08,1.69,0,1.25-.39,2.7-.88,3.61-.57,1.06-1.61,1.79-2.93,1.79l.16-.98c.18.14.54.24,1.11.24.75,0,1.42-2.82,1.42-4.3,0-.7-.18-.98-.75-.98-1.02,0-2.51,2.42-2.76,3.26-.29.94-.4,1.76-.5,2.75h-1.08Z"/>
  <path class="cls-1" d="M142.85,20.48c-.7.77-.92,1.38-1.67,1.38-1.58,0-1.94-1.05-1.94-2.35,0-2.06.72-4.86,3.2-4.86.54,0,1.02.33,1.02,1.01,0,1.43-1.67,2.28-2.98,2.37-.09.37-.13.7-.13,1.34,0,1.24.29,1.62.97,1.62.54,0,.86-.35,1.17-.7l.36.19ZM142.13,15.08c-.9,0-1.45,1.69-1.58,2.51.97-.04,2.05-.89,2.05-1.85,0-.28-.14-.66-.47-.66"/>
<!-- Code injected by live-server -->
<script>
	// <![CDATA[  <-- For SVG support
	if ('WebSocket' in window) {
		(function () {
			function refreshCSS() {
				var sheets = [].slice.call(document.getElementsByTagName("link"));
				var head = document.getElementsByTagName("head")[0];
				for (var i = 0; i < sheets.length; ++i) {
					var elem = sheets[i];
					var parent = elem.parentElement || head;
					parent.removeChild(elem);
					var rel = elem.rel;
					if (elem.href && typeof rel != "string" || rel.length == 0 || rel.toLowerCase() == "stylesheet") {
						var url = elem.href.replace(/(&|\?)_cacheOverride=\d+/, '');
						elem.href = url + (url.indexOf('?') >= 0 ? '&' : '?') + '_cacheOverride=' + (new Date().valueOf());
					}
					parent.appendChild(elem);
				}
			}
			var protocol = window.location.protocol === 'http:' ? 'ws://' : 'wss://';
			var address = protocol + window.location.host + window.location.pathname + '/ws';
			var socket = new WebSocket(address);
			socket.onmessage = function (msg) {
				if (msg.data == 'reload') window.location.reload();
				else if (msg.data == 'refreshcss') refreshCSS();
			};
			if (sessionStorage && !sessionStorage.getItem('IsThisFirstTime_Log_From_LiveServer')) {
				console.log('Live reload enabled.');
				sessionStorage.setItem('IsThisFirstTime_Log_From_LiveServer', true);
			}
		})();
	}
	else {
		console.error('Upgrade your browser. This Browser is NOT supported WebSocket for Live-Reloading.');
	}
	// ]]>
</script>
</svg>