<?xml version="1.0" encoding="UTF-8"?>
<svg id="Layer_1" xmlns="http://www.w3.org/2000/svg" viewBox="0 0 300 56.2">
  <path d="M8.69.03c-.19.16-.36.44-.57.46-1.4.16-1.73.52-1.37,1.89,1.14,4.4,2.32,8.79,3.5,13.17.45,1.66.94,3.31,1.41,4.96.06.21.14.4.27.75C14.59,14.13,17.19,7.14,19.8.15c.12,0,.23,0,.35,0,.19.4.42.79.57,1.2,2.22,6.3,4.44,12.6,6.65,18.9.11.31.24.6.43,1.09.64-2.09,1.24-3.99,1.81-5.9,1.22-4.09,2.44-8.18,3.65-12.27.05-.16.08-.32.11-.48.32-1.76.18-1.94-1.6-2.18-.16-.02-.28-.3-.41-.47,2.39,0,4.78,0,7.17,0-.17.16-.33.46-.5.47-1.25.02-1.96.75-2.35,1.8-.81,2.18-1.59,4.37-2.33,6.58-1.79,5.33-3.54,10.68-5.34,16.01-.18.52-.56.97-.85,1.45-.32-.48-.75-.93-.93-1.45-2.19-6.13-4.35-12.28-6.52-18.42-.09-.25-.2-.48-.36-.88-.17.4-.28.64-.37.89-2.32,6.14-4.63,12.29-6.98,18.43-.2.53-.64.96-.96,1.44-.28-.51-.66-.99-.83-1.54-2.13-7-4.23-14.01-6.34-21.01-.08-.27-.16-.53-.24-.8C3.19,1.39,2.25.43.48.5c-.15,0-.31-.09-.46-.14C-.09-.15.31.03.52.03c2.72,0,5.45,0,8.17,0ZM72.72,56.2c.56-.14,1.13-.25,1.68-.41,3.96-1.11,6.46-4.25,6.78-8.8.2-2.74.15-5.49.2-8.24.04-2.19.03-4.39.12-6.58.06-1.35.45-1.67,1.78-1.84.19-.02.36-.1.55-.15-.01-.06-.02-.13-.04-.19h-7.54c.11.17.14.25.17.26.27.04.54.08.81.1,1.28.11,1.78.59,1.93,1.85.03.25.04.5.04.75,0,4.19.08,8.39-.03,12.58-.04,1.59-.32,3.22-.78,4.73-.88,2.83-3.42,4.58-6.35,4.63-3.42.06-5.94-1.45-7-4.42-.47-1.31-.78-2.74-.82-4.13-.12-3.99-.06-7.99-.07-11.99,0-.69.01-1.39.05-2.08.08-1.36.44-1.73,1.8-1.92.18-.03.36-.1.54-.16l-.04-.18h-8.36c.15.18.18.25.22.26.24.04.49.07.74.09,1.38.11,1.9.57,1.97,1.96.08,1.47.08,2.94.11,4.41.07,3.69-.02,7.39.23,11.07.29,4.15,2.7,6.93,6.46,7.97.61.17,1.23.3,1.84.44h3ZM300,3.03c-.13-.05-.26-.13-.39-.13-2.03,0-4.05,0-6.08,0-.12,0-.24.12-.53.28.37.07.54.13.72.14,1.85.16,2.23.52,2.27,2.34.12,5.05.23,10.1.34,15.16,0,.26-.02.51-.04.91-6.04-6.52-11.96-12.92-17.89-19.31-.1.04-.2.08-.3.11-.04.39-.11.78-.11,1.17-.01,4.67,0,9.33-.03,14-.01,2.03-.05,4.05-.13,6.08-.05,1.21-.36,1.47-1.54,1.65-.24.04-.47.11-.7.17.02.05.03.1.05.15h6.98c-.2-.22-.4-.28-.61-.31-1.7-.23-2.04-.59-2.18-2.32-.01-.17-.02-.33-.02-.5-.15-4.91-.29-9.82-.44-14.74,0-.15.02-.3.05-.58.25.24.41.38.55.53,1.57,1.73,3.1,3.49,4.71,5.18,3.78,3.99,7.59,7.96,11.4,11.92.42.44.92.8,1.56,1.35.04-.79.09-1.28.09-1.77.03-6.14.05-12.27.09-18.41.02-2.1-.12-2.6,2.19-2.91v-.17ZM148.26.03c-.25.7.33.46.59.48,1.56.12,2.01.53,2.17,2.05.03.25.05.5.05.75,0,6.02,0,12.05-.03,18.07,0,.94-.15,1.88-.28,2.81-.1.72-.54,1.12-1.29,1.18-.28.02-.55.1-.82.16,0,.07.02.14.03.21h8.44c-.15-.25-.32-.32-.49-.34-2.34-.25-2.38-.29-2.64-2.62-.02-.14-.03-.28-.03-.41-.02-6.8-.04-13.6-.06-20.41,0-.52.22-.82.72-.81,1.1.02,2.25-.09,3.29.19,2.86.75,4.68,3.87,4.34,7.15-.3,2.88-2.45,4.86-5.54,5.11-.42.03-.83.09-1.25.14,0,.08-.01.16-.02.24.18.06.36.18.55.19,3.99.21,7.71-1.9,8.69-6.07.92-3.9-.95-6.9-4.87-7.76-.46-.1-.91-.2-1.37-.3-3.39,0-6.78,0-10.17,0ZM114.35,2.5c-.08.28-.19.56-.22.84-.58,5.19-1.14,10.37-1.72,15.56-.2,1.76-.4,3.53-.65,5.29-.12.83-.65,1.21-1.51,1.22-1.07.01-1.92-.38-2.46-1.28-.52-.88-1-1.8-1.37-2.75-2.3-5.89-4.57-11.79-6.85-17.69-.16-.42-.37-.82-.56-1.23-.09,0-.19,0-.28,0-.21.49-.44.97-.63,1.47-2.32,6.33-4.62,12.66-6.96,18.98-.79,2.13-1.52,2.58-3.66,2.5-1.46-.05-1.9-.41-1.93-1.91-.09-4.83-.12-9.66-.16-14.49-.01-1.28-.02-2.56.06-3.83.09-1.43.3-1.6,1.72-1.86.12-.02.23-.09.35-.14,0-.06-.01-.12-.02-.17h-6.88c.09.19.2.31.32.3,1.46,0,1.81.7,1.85,2.01.02.44.06.89.06,1.33,0,4.39.02,8.78,0,13.17,0,1.39-.11,2.77-.21,4.16-.06.87-.45,1.48-1.45,1.48-.15,0-.31.12-.46.18l.03.12h13.57c-.17-.21-.35-.26-.53-.28-1.02-.16-1.24-.42-1.11-1.44.04-.3.09-.61.19-.89.63-1.9,1.24-3.8,1.93-5.67.09-.26.55-.54.84-.55,1.89-.05,3.78,0,5.67-.04.52,0,.73.22.9.66.83,2.24,1.7,4.46,2.5,6.7.15.42.02.93.02,1.52h11.13c-.16-.22-.34-.3-.54-.33-1.44-.24-1.6-.43-1.55-1.9,0-.22.02-.44.04-.67.31-3.71.62-7.41.94-11.12.08-.98.19-1.95.29-2.93,2.8,5.74,5.46,11.48,8.5,17.03.11,0,.23.02.34.03,2.73-5.79,5.47-11.58,8.3-17.57.06.39.09.54.11.69.43,4.62.88,9.23,1.29,13.85.08.87.01,1.75.01,2.75,2.01.21,4.13.31,6.27.07-.41-.2-.84-.24-1.26-.29-1.33-.16-1.91-.66-2.27-1.95-.1-.35-.18-.7-.22-1.06-.68-6.21-1.36-12.42-2.04-18.62-.05-.42-.15-.83-.22-1.25-.12-.02-.25-.05-.37-.07-3.04,6.48-6.08,12.97-9.21,19.62-3.29-6.64-6.37-13.17-9.6-19.62-.11.03-.21.05-.32.08ZM101.54,15.77h-6.16c.96-2.95,1.9-5.82,2.84-8.69.08,0,.16-.01.24-.02,1.01,2.87,2.02,5.74,3.08,8.71ZM118.88,52.57c-.17-.05-.33-.16-.5-.16-1.95.02-2.16-.49-2.31-2.54-.02-.22-.02-.44-.02-.67-.02-4.28-.04-8.55-.05-12.83,0-1.47.02-2.94.07-4.41.02-.69.18-1.39.99-1.55,1.92-.38,3.83-.22,4.71,2.22.97,2.68,2.1,5.31,3.16,7.96,1.59,3.96,3.17,7.93,4.78,11.89.11.28.39.5.59.74.2-.24.41-.47.6-.72.08-.11.12-.25.18-.37,2.67-6.31,5.33-12.62,8-18.92.3-.71.66-1.41,1.07-2.06.59-.94,1.85-.98,3.22-.71,1.01.2,1.1,1.05,1.14,1.88.02.44.05.89.06,1.33,0,4.33.03,8.67,0,13,0,1.47-.12,2.94-.23,4.4-.06.86-.5,1.39-1.44,1.38-.15,0-.31.11-.46.17.31.22.6.25.88.25,1.36,0,2.72-.03,4.08-.01,2.06.02,4.11.07,6.17.09,1.21,0,1.35-.14,1.52-1.36.1-.66.19-1.32.26-1.98.03-.25-.02-.5-.03-.75-.08,0-.15-.02-.23-.02-.08.28-.18.55-.23.83-.24,1.18-.94,1.88-2.14,1.98-1.02.08-2.05.11-3.08.09-1.95-.03-2.52-.6-2.54-2.57-.02-2,0-4,0-6,0-.63,0-1.26,0-2.05,1.77.1,3.43.16,5.08.31.63.06,1.03.51,1.14,1.16.05.33.13.65.2.98.07,0,.14-.01.21-.02.13-1.41.26-2.83.39-4.23-2.28,1.32-4.66.51-7.01.79,0-2.97,0-5.77.02-8.57,0-.16.27-.46.41-.46,1.63.05,3.27.11,4.9.26.86.08,1.3.67,1.36,1.53.02.25.09.5.13.76.09,0,.18,0,.26,0,.14-1.29.28-2.57.41-3.7h-18.62c0,.09,0,.19,0,.28.24.04.47.08.71.11,1.07.11,1.29.43,1,1.48-.08.29-.16.59-.27.87-1.91,5-3.83,9.99-5.75,14.99-.18.46-.39.9-.64,1.46-.15-.37-.27-.62-.36-.87-1.75-4.67-3.51-9.35-5.26-14.02-.32-.86-.66-1.71-.94-2.58-.27-.87-.05-1.17.84-1.3.27-.04.54-.09.82-.13,0-.07-.02-.15-.03-.22h-15.04c.28.19.36.27.45.3,1.79.46,1.91.58,1.92,2.47.03,4.36.04,8.72.02,13.08,0,1.69-.07,3.39-.2,5.07-.08,1.15-.34,1.33-1.47,1.53-.16.03-.31.12-.46.18l.03.15h7.52c0-.06.02-.12.02-.17ZM223.88,25.54c-.32-.05-.63-.11-.95-.14-1.36-.13-1.75-.45-1.8-1.78-.09-2.3-.11-4.61-.18-6.91-.02-.53.22-.68.7-.65.78.04,1.56.11,2.33.05.91-.07,1.46.28,1.99,1.02,1.62,2.25,3.32,4.45,5.02,6.64,1.13,1.45,2.64,2.11,4.5,2.1,1.18,0,2.37.19,3.55.28.72.06,1.44.15,2.16.12,3.55-.14,5.88-1.8,6.63-4.76.62-2.43,0-4.59-1.71-6.37-1-1.04-2.16-1.91-3.22-2.89-1.08-1-2.28-1.91-3.15-3.07-1.73-2.3-.31-5.39,2.52-5.64.76-.07,1.56.02,2.31.19,1.34.3,2.19,1.13,2.38,2.56.03.23.13.46.19.69.08-.01.15-.03.23-.04.06-1.23.13-2.47.15-3.7,0-.11-.24-.32-.38-.33-1.63-.14-3.26-.42-4.88-.35-2.72.12-4.76,1.96-5.12,4.41-.33,2.25.4,4.18,1.99,5.76,1.1,1.09,2.34,2.04,3.47,3.11.9.85,1.89,1.68,2.56,2.71,1.81,2.74.28,6.09-2.91,6.59-3.03.48-5.1-1.14-5.34-4.18,0-.09-.07-.18-.1-.26-.09,0-.18,0-.28,0-.09,1.42-.18,2.84-.28,4.48-3.89-2.54-6-6.48-8.9-9.74.47-.5.94-.88,1.25-1.35.73-1.1,1.55-2.19,2.03-3.4.77-1.94.59-3.87-.77-5.58-1.04-1.3-2.47-1.96-4.05-2.04-3.16-.16-6.32-.14-9.49-.18-.12,0-.25.12-.54.26.33.08.47.14.62.16,1.73.19,2.04.45,2.06,2.15.05,4.83.06,9.66.05,14.5,0,1.33-.12,2.66-.2,3.99-.05.89-.44,1.48-1.43,1.49-.16,0-.32.11-.48.17,0,.04.02.09.03.13h7.41c0-.07.01-.14.02-.21ZM227.76,13.33c-.51,1.23-1.59,1.86-2.92,1.85-1.05,0-2.09-.16-3.14-.28-.51-.06-.75-.35-.75-.91.02-3.08.02-6.16,0-9.24,0-.53.23-.71.72-.81,4.11-.81,6.85,1.59,7.06,6.08-.31,1.11-.53,2.26-.97,3.31ZM165.97,52.5c-.24-.04-.47-.09-.71-.11-1.62-.13-1.95-.41-2.01-2.01-.09-2.19-.09-4.39-.17-6.58-.02-.66.24-.81.83-.77.86.05,1.72.07,2.58.05.63-.02,1.01.24,1.37.74,1.61,2.19,3.27,4.35,4.9,6.53,1.31,1.76,3.03,2.62,5.24,2.51.74-.04,1.49.03,2.24.08,1.35.08,2.71.32,4.05.22,3.34-.24,5.64-2.63,5.87-5.94.13-1.97-.51-3.7-1.9-5.07-1.36-1.34-2.89-2.52-4.3-3.81-.77-.71-1.59-1.43-2.17-2.28-1.53-2.25-.21-5.2,2.43-5.5.81-.09,1.67,0,2.48.16,1.35.28,2.2,1.12,2.4,2.54.03.24.11.48.17.72.08,0,.17-.02.25-.02.05-1.26.11-2.52.14-3.78,0-.09-.21-.27-.33-.28-1.74-.13-3.49-.44-5.21-.31-2.92.22-4.79,2.37-4.89,5.16-.09,2.42,1.11,4.19,2.77,5.72,1.12,1.03,2.36,1.95,3.47,3,.74.7,1.49,1.45,1.99,2.32,1.44,2.5.2,5.54-2.45,6.22-1.17.3-2.32.22-3.44-.2-1.56-.59-2.38-1.75-2.48-3.42-.02-.24-.06-.48-.09-.72-.11,0-.23,0-.34,0-.08,1.42-.15,2.83-.23,4.25-1.71-.44-6.6-5.76-8.84-9.59.14-.15.31-.29.43-.47.89-1.26,2.02-2.42,2.61-3.81,1.69-3.93-.45-7.61-4.69-7.97-3.15-.27-6.32-.15-9.49-.19-.12,0-.23.07-.55.18.36.12.52.2.69.23,1.76.26,2,.47,2.02,2.28.04,4.81.06,9.61.04,14.42,0,1.38-.12,2.77-.23,4.15-.06.75-.45,1.23-1.28,1.26-.2,0-.4.11-.61.16l.05.19h7.37c0-.08,0-.17,0-.25ZM163.09,31.77c-.01-.57.23-.8.75-.87,4.41-.6,6.58,1.68,6.8,5.41.08,1.35-.04,2.66-.66,3.89-.57,1.13-1.45,1.89-2.71,1.92-1.15.04-2.31-.14-3.47-.26-.53-.05-.72-.4-.71-.94.03-1.53,0-3.05,0-4.58,0-1.53.02-3.05-.01-4.58ZM236.46,32.28c-1.72,3.1-3.5,6.16-5.32,9.33-.19-.3-.35-.55-.5-.81-1.61-2.76-3.22-5.51-4.81-8.28-.49-.85-1.29-1.75.19-2.6-2.18-.06-4.23-.07-6.29-.06-4.39.02-8.78.07-13.16.05-1.07,0-2.14-.26-3.21-.37-.15-.02-.43.1-.45.2-.31,1.18-.58,2.36-.86,3.54.11.04.21.07.32.11.15-.27.25-.59.46-.8.44-.43.9-1.1,1.41-1.15,2.11-.22,4.24-.26,6.38-.36.03.38.05.57.05.76,0,5.03,0,10.05-.01,15.08,0,1.3-.05,2.61-.18,3.9-.12,1.25-.3,1.35-1.51,1.58-.15.03-.28.11-.42.17,0,.04.01.08.02.13h7.5c0-.08,0-.15.01-.23-.32-.04-.63-.08-.95-.11-1.24-.1-1.57-.38-1.72-1.58-.08-.6-.13-1.22-.14-1.82-.02-5.69-.03-11.39-.04-17.08,0-.21.03-.43.04-.7.77,0,1.48-.03,2.2,0,1.27.07,2.55.13,3.81.3.9.12,1.52.65,1.56,1.66,0,.18.13.35.2.52.06-.01.13-.03.19-.04.05-.86.1-1.73.14-2.59.08-.04.16-.08.24-.12.6.73,1.28,1.42,1.79,2.21,1.72,2.72,3.41,5.46,5.04,8.23.41.7.79,1.53.82,2.32.1,2.41.06,4.83,0,7.24-.03,1-.43,1.3-1.46,1.47-.18.03-.35.12-.52.18.02.05.03.1.05.14h7.46c-.16-.23-.34-.32-.51-.31-2.15.01-2.25-.84-2.3-2.46-.06-2.03-.06-4.05-.01-6.08.02-.65.13-1.38.45-1.92,1.93-3.3,3.9-6.58,5.92-9.83.64-1.03,1.61-1.76,2.92-1.87.1,0,.2-.11.51-.31h-6.1c1.15.79,1.35,1.3.77,2.34ZM101.29,30.21c.4.05.8.1,1.2.15,1.01.12,1.43.51,1.56,1.52.05.38.06.78.07,1.16.11,4.97.22,9.94.32,14.91,0,.18-.02.36-.05.73-6.04-6.52-11.96-12.91-17.88-19.29-.1.04-.2.09-.29.13-.05.51-.13,1.01-.13,1.52-.02,6.03-.02,12.06-.04,18.08,0,.66-.09,1.33-.14,1.99-.07.83-.56,1.22-1.36,1.29-.28.02-.55.09-.82.13l.03.23h6.99c0-.07.01-.15.02-.22-.25-.04-.5-.1-.75-.12-1.44-.13-1.78-.44-1.99-1.85-.05-.36-.11-.72-.12-1.07-.13-4.83-.26-9.66-.38-14.49,0-.19.04-.39.08-.72,5.88,6.51,11.66,12.91,18.03,18.8.18-.66.24-1.25.24-1.84.02-5.94.03-11.89.05-17.83,0-.64.06-1.27.12-1.91.07-.67.48-1.03,1.13-1.14.3-.05.59-.13.88-.19-.01-.07-.03-.13-.04-.2h-6.7c0,.08-.01.17-.02.25ZM257.22,3.44c-6.33,2.71-8.94,10.87-5.42,17.16,2.52,4.51,6.6,6.07,11.53,5.61,10.38-.96,13.26-12.79,8.83-19.05-2.4-3.4-5.9-4.6-9.9-4.67-1.75-.03-3.43.27-5.04.95ZM270.77,18.69c-.84,3.27-2.8,5.55-6.2,6.26-3.44.71-6.37-.37-8.68-3-1.75-1.99-2.6-4.41-2.71-7.01-.07-1.67,0-3.41.39-5.03.77-3.3,2.87-5.49,6.25-6.19,3.59-.74,6.67.23,9,3.14,1.86,2.32,2.41,5.07,2.53,7.98-.19,1.29-.27,2.6-.59,3.86ZM167.58,25.61c-.07-.04-.13-.1-.21-.12-1.5-.29-1.72-.52-1.28-2,.61-2.07,1.32-4.12,2.04-6.15.08-.23.54-.44.84-.44,1.8-.04,3.61,0,5.42-.03.62-.01.94.18,1.16.78.77,2.14,1.62,4.25,2.38,6.39.17.49.11,1.06.17,1.72h5.89c-.1-.15-.12-.21-.16-.23-.07-.03-.16-.06-.24-.06-1.61-.03-2.52-1.01-3.13-2.35-.54-1.19-1.03-2.39-1.5-3.61-2.07-5.32-4.11-10.65-6.18-15.98-.15-.38-.36-.73-.55-1.09-.09.02-.18.04-.27.06-.18.43-.37.85-.53,1.28-1.78,4.84-3.54,9.68-5.32,14.52-.67,1.82-1.33,3.65-2.07,5.44-.42,1.01-1.2,1.65-2.37,1.69-.25,0-.49.09-.73.13l.03.21h6.59c0-.05,0-.11.01-.16ZM171.51,7.08h.26c1.01,2.88,2.02,5.75,3.07,8.71h-6.17c.97-2.98,1.91-5.84,2.85-8.71ZM210.37,12.97c-1.63.1-3.28.09-4.91.08-.17,0-.47-.3-.48-.47-.03-2.67-.03-5.33,0-8,0-.18.3-.51.45-.5,1.63.06,3.27.13,4.9.27.82.08,1.24.65,1.32,1.48.02.27.1.54.16.8.09,0,.17,0,.26-.01.14-1.29.27-2.58.39-3.7h-12.62c0,.08,0,.16-.01.25.12.05.23.13.35.15,2,.3,2.14.45,2.24,2.44.01.28.02.56.02.83,0,4.55.02,9.11,0,13.66,0,1.27-.12,2.55-.22,3.82-.07.81-.45,1.36-1.36,1.37-.18,0-.36.12-.54.18.32.21.61.24.89.24,1.61,0,3.22,0,4.83,0,1.86.02,3.72.06,5.58.11.82.02,1.23-.35,1.32-1.15.09-.77.21-1.54.3-2.31.02-.21-.03-.43-.06-.65-.08,0-.15,0-.23-.01-.06.23-.13.45-.18.68-.37,1.49-1.01,2.07-2.55,2.15-1.05.06-2.11.06-3.16,0-1.42-.07-2-.56-2.04-1.99-.07-2.77-.02-5.55,0-8.33,0-.04.06-.09.06-.08,1.39,0,2.75-.06,4.1.02,1.68.1,1.88.35,2.13,2.04.01.09.09.17.13.25.06,0,.11-.01.17-.02.13-1.43.27-2.85.4-4.26-.58.24-1.08.61-1.61.64ZM195.11,2.99c-3.61.03-7.22.03-10.84,0-1.03,0-2.06-.06-3.07-.21-1.25-.18-1.25-.23-1.54,1.04-.12.54-.25,1.08-.35,1.63-.06.3-.07.61-.11.92.08.02.15.04.23.07.17-.29.28-.65.52-.87.47-.43.98-1.07,1.53-1.13,2.06-.21,4.13-.23,6.25-.32.02.35.04.54.04.72,0,5.36,0,10.72-.02,16.08,0,1.05-.11,2.11-.21,3.15-.08.81-.46,1.35-1.37,1.36-.18,0-.36.12-.54.18l.05.14h7.52c-.18-.23-.38-.32-.58-.32-1.62.05-2.17-.38-2.19-2.38-.06-6.19-.08-12.38-.12-18.58,0-.08.05-.15.05-.16,1.7,0,3.36-.07,5.01.02,1.84.1,2.19.46,2.64,2.22,0,.04.08.06.28.2V2.76c-1.03.08-2.1.22-3.18.22ZM78.79,21.69c-.08.26-.17.53-.25.79-.33.98-.77,2-1.91,2.07-1.76.11-3.53.05-5.29-.03-.66-.03-1.09-.54-1.19-1.22-.11-.79-.25-1.6-.25-2.4-.04-4.39-.04-8.78-.05-13.16,0-.94,0-1.89.06-2.83.07-1.08.48-1.46,1.56-1.56.27-.03.53-.09.79-.14-.01-.07-.02-.15-.04-.22h-7.51c.11.22.24.31.39.33,1.88.25,2.12.48,2.13,2.34.03,3.78.05,7.55.03,11.33-.01,2.27-.06,4.55-.19,6.82-.08,1.28-.27,1.37-1.54,1.64-.14.03-.26.12-.39.18.31.19.59.21.88.22,2.83.03,5.67.07,8.5.09,1.03,0,2.06.02,3.08-.04.29-.02.76-.18.84-.4.46-1.21.64-2.47.58-3.75-.08-.02-.16-.04-.23-.06ZM63.19,21.71c-.07.22-.14.45-.21.67-.49,1.66-1.17,2.25-2.9,2.35-1.05.06-2.11.05-3.16,0-1.93-.1-2.41-.6-2.55-2.54,0-.11-.01-.22-.02-.33-.05-4.16-.1-8.33-.13-12.49,0-1.47.03-2.94.11-4.41.06-1.18.43-1.5,1.58-1.61.25-.02.5-.08.76-.11,0-.08-.01-.15-.02-.23h-7.56c.09.2.21.29.33.31,2.04.33,2.18.48,2.26,2.51,0,.22.01.44.01.67,0,4.16.02,8.33,0,12.49,0,1.55-.07,3.11-.16,4.66-.08,1.32-.32,1.54-1.57,1.82-.14.03-.27.12-.4.18.24.18.47.22.7.22,3.05.04,6.11.08,9.16.1.89,0,1.78,0,2.66-.06.27-.02.68-.18.76-.37.48-1.21.61-2.48.61-3.76-.09-.02-.18-.04-.27-.05ZM38.55,3.21c.2.04.4.1.6.13,1,.14,1.34.45,1.5,1.47.06.38.06.77.06,1.16.01,4.08.03,8.16.02,12.24,0,1.8-.04,3.61-.16,5.4-.1,1.48-.2,1.51-1.69,1.87-.1.02-.19.09-.28.14,0,.05,0,.09.01.14h7.61c-.09-.14-.12-.21-.15-.22-.19-.05-.38-.11-.57-.11-1.85,0-1.95-.68-2.11-2.21-.03-.3-.03-.61-.03-.91-.02-4.88-.05-9.77-.06-14.65,0-.92.03-1.83.08-2.75.06-1.06.41-1.41,1.46-1.57.2-.03.39-.09.59-.14,0-.07-.01-.14-.02-.2h-6.82c0,.07-.01.14-.02.22ZM193.62,30.15c.17.05.34.12.52.15,1.17.2,1.47.48,1.6,1.64.05.47.05.94.05,1.41,0,4.47.02,8.94,0,13.42,0,1.39-.09,2.77-.19,4.16-.06.87-.44,1.48-1.45,1.48-.17,0-.34.11-.5.17,0,.05.02.1.02.15h7.54c0-.07,0-.15.01-.22-.26-.04-.52-.09-.78-.11-1.52-.12-1.81-.39-1.98-1.89-.04-.33-.05-.67-.05-1-.03-5.11-.06-10.22-.08-15.33,0-.8.04-1.61.1-2.41.06-.82.45-1.35,1.33-1.43.24-.02.47-.11.71-.17-.01-.07-.03-.14-.04-.22h-6.79c-.01.07-.02.14-.03.2Z"/>
<!-- Code injected by live-server -->
<script>
	// <![CDATA[  <-- For SVG support
	if ('WebSocket' in window) {
		(function () {
			function refreshCSS() {
				var sheets = [].slice.call(document.getElementsByTagName("link"));
				var head = document.getElementsByTagName("head")[0];
				for (var i = 0; i < sheets.length; ++i) {
					var elem = sheets[i];
					var parent = elem.parentElement || head;
					parent.removeChild(elem);
					var rel = elem.rel;
					if (elem.href && typeof rel != "string" || rel.length == 0 || rel.toLowerCase() == "stylesheet") {
						var url = elem.href.replace(/(&|\?)_cacheOverride=\d+/, '');
						elem.href = url + (url.indexOf('?') >= 0 ? '&' : '?') + '_cacheOverride=' + (new Date().valueOf());
					}
					parent.appendChild(elem);
				}
			}
			var protocol = window.location.protocol === 'http:' ? 'ws://' : 'wss://';
			var address = protocol + window.location.host + window.location.pathname + '/ws';
			var socket = new WebSocket(address);
			socket.onmessage = function (msg) {
				if (msg.data == 'reload') window.location.reload();
				else if (msg.data == 'refreshcss') refreshCSS();
			};
			if (sessionStorage && !sessionStorage.getItem('IsThisFirstTime_Log_From_LiveServer')) {
				console.log('Live reload enabled.');
				sessionStorage.setItem('IsThisFirstTime_Log_From_LiveServer', true);
			}
		})();
	}
	else {
		console.error('Upgrade your browser. This Browser is NOT supported WebSocket for Live-Reloading.');
	}
	// ]]>
</script>
</svg>