<?xml version="1.0" encoding="UTF-8"?>
<svg id="Layer_1" xmlns="http://www.w3.org/2000/svg" viewBox="0 0 279.81 47.51">
  <defs>
    <style>
      .cls-1 {
        fill: #231f20;
      }

      .cls-2 {
        fill: #00703c;
      }
    </style>
  </defs>
  <g>
    <path class="cls-2" d="M149.49,40.67l-1.4-.22c-1.36-.26-1.7-1.07-2.47-3.28l-5.02-14.45c-.92-2.62-1.36-3.98-1.66-5.05-.15-.56-.37-.74-.85-.74-.07,0-1.44,1.81-3.21,2.21.11,1.07-.55,2.36-1.44,4.68l-3.32,9c-1,2.65-1.62,4.43-2.28,5.9-.59,1.44-1.36,1.73-2.25,1.84l-1,.11c-.26.3-.29,1.07.11,1.29,1.7,0,2.54-.11,3.8-.11,1.55.04,3.02.04,4.32.11.37-.19.29-1.03.07-1.29l-1.1-.18c-1.03-.19-1.33-.41-1.33-.63,0-.3.04-.59.26-1.33l1.36-4.28c.22-.7,3.57-10.55,3.57-10.55,0,0,3.36,9.89,3.55,10.48l1,3.17c.44,1.36.7,2.25.7,2.51,0,.22-.15.48-1,.63l-1.18.18c-.41.3-.33,1.07.07,1.29,1.7-.07,3.13-.11,4.98-.11s3.91.04,5.68.11c.33-.22.26-1.11.04-1.29Z"/>
    <path class="cls-2" d="M53.01,47.51c-22.57,0-38.52-7.22-38.76-7.33l.54-1.16c.35.16,35.74,16.16,75.7-.01,40.5-16.4,74.66-.15,75,.02l.43,1.64c-.33-.16-34.99-16.65-74.94-.47-13.56,5.49-26.6,7.32-37.96,7.32Z"/>
    <path class="cls-2" d="M152.6,23.57c0-3.69-.07-4.09-1.62-4.31l-1-.15c-.37-.19-.37-1.11.07-1.29,2.76-.18,5.64-.33,9.14-.33,3.13,0,5.83.48,7.23,1.33,2.14,1.25,3.24,3.1,3.24,5.46,0,3.28-2.21,4.68-3.91,5.53-.37.18-.37.41-.18.81,2.43,4.94,3.94,7.71,5.71,9.22.96.77,1.92,1,2.47,1.03.33.19.33.74.15.96-.59.26-1.77.33-2.91.33-3.39,0-5.53-1.22-7.15-3.87-1.18-1.95-2.03-3.76-2.87-5.71-.44-1-1.03-1.29-1.95-1.29-1.29,0-1.36.07-1.36.81v4.54c0,3.39.22,3.65,1.88,3.94l1,.18c.26.18.26,1.07,0,1.29-1.95-.07-3.65-.11-5.42-.11s-3.47.04-5.38.11c-.29-.22-.29-1.11,0-1.29l1-.18c1.66-.3,1.88-.55,1.88-3.94v-13.05ZM157.65,28.25c0,1.29.11,1.4,2.28,1.4,1.33,0,2.1-.33,2.8-1.03.63-.63,1.33-1.81,1.33-3.98,0-3.32-1.96-5.46-4.83-5.46-1.51,0-1.51.11-1.59,1.88v7.19Z"/>
    <path class="cls-2" d="M182.35,27.41c0,1.22.22,1.36.66,1.36.77,0,2.25-1.4,2.84-2.14,1.95-2.36,3.76-4.53,4.94-6.27.33-.48.48-.81.48-.96s-.15-.37-.63-.48l-.85-.15c-.41-.26-.33-1.14.15-1.29,1.88.07,3.25.11,4.57.11s2.99-.04,4.46-.11c.44.15.48,1,.18,1.29-1.29.15-2.4.33-3.17.66-1.48.59-3.02,2.03-5.46,4.72l-1.69,1.92c-.37.41-.48.7-.48.85,0,.19.22.63,1.33,2.29,1.84,2.77,4.02,6.3,6.52,9.62,1,1.33,1.7,1.55,2.73,1.73l1.18.18c.22.33.22,1.1-.11,1.29-1.84-.07-3.61-.11-5.31-.11-1.88,0-3.72.04-5.79.11-.48-.15-.48-1.07-.07-1.29l.92-.22c.41-.07.63-.22.63-.37s-.07-.41-.29-.74c-.22-.33-1.77-2.73-2.14-3.28l-1.95-2.99c-1.33-2.03-1.95-2.91-2.77-2.91s-.89.52-.89,2.51v3.87c0,3.43.22,3.69,1.88,3.98l1.03.15c.3.26.3,1.07,0,1.29-1.95-.07-3.8-.11-5.57-.11-1.66,0-3.58.04-5.53.11-.3-.22-.3-1.07,0-1.29l1.03-.15c1.66-.29,1.88-.55,1.88-3.98v-13.72c0-3.43-.22-3.69-1.88-3.98l-1.03-.15c-.41-.22-.41-1.07,0-1.29,1.84.07,3.69.11,5.53.11s3.61-.04,5.57-.11c.33.22.33,1.07,0,1.29l-1.03.15c-1.66.3-1.88.55-1.88,3.98v4.5Z"/>
    <path class="cls-2" d="M207.53,42.52c-3.39,0-5.49-.96-6.27-1.4-.7-.81-1.18-3.47-1.18-5.97.26-.48,1.11-.52,1.4-.11.74,2.4,3.21,5.79,6.34,5.79,2.73,0,3.98-1.88,3.98-3.72,0-2.99-2.8-4.76-5.01-5.86-2.65-1.33-5.53-3.54-5.57-7.19,0-4.17,3.21-7.04,8.55-7.04,1.22,0,2.73.15,4.2.59.48.15.81.22,1.25.29.3.81.66,2.8.66,5.27-.18.44-1.11.48-1.44.11-.63-1.88-2.21-4.57-4.87-4.57-2.43,0-3.76,1.58-3.76,3.43,0,1.7,1.51,3.24,3.35,4.2l2.43,1.29c2.29,1.22,5.2,3.36,5.2,7.41,0,4.53-3.72,7.48-9.29,7.48Z"/>
    <path class="cls-2" d="M227.36,36.55c0,3.47.22,3.72,1.92,4.02l1.03.18c.3.22.26,1.07-.04,1.29-1.99-.07-3.8-.11-5.53-.11s-3.61.04-5.6.11c-.29-.22-.29-1.07,0-1.29l1.03-.18c1.69-.3,1.92-.55,1.92-4.02v-13.57c0-3.47-.22-3.72-1.92-4.02l-1.03-.19c-.29-.22-.29-1.07,0-1.29,1.99.07,3.84.11,5.6.11s3.58-.04,5.57-.11c.3.22.3,1.07,0,1.29l-1.03.19c-1.7.29-1.92.55-1.92,4.02v13.57Z"/>
    <path class="cls-2" d="M235.76,23.57c0-3.5-.07-4.2-1.77-4.39l-.7-.07c-.37-.19-.37-1.25.07-1.29,3.1-.18,5.97-.33,9.88-.33,3.02,0,6.05.29,8.59,1.22,4.83,1.73,7.48,6.08,7.48,10.69,0,4.94-2.36,8.92-6.6,11.02-2.51,1.25-5.53,1.73-9.33,1.73-1.73,0-3.58-.22-4.9-.22-1.77,0-3.65.04-5.75.11-.29-.22-.29-1.11,0-1.29l1.14-.18c1.66-.3,1.88-.55,1.88-3.94v-13.05ZM241.03,35.26c0,2.03.07,3.36.74,4.13.66.74,1.73,1.07,3.06,1.07,6.38,0,8.55-5.68,8.55-10.69,0-6.63-3.5-10.58-10.18-10.58-1,0-1.69.19-1.92.48-.22.3-.26,1-.26,2.14v13.46Z"/>
    <path class="cls-2" d="M267.5,27.19c0,1.03.04,1.11,1.03,1.11h2.54c1.92,0,2.32-.26,2.73-2.03l.18-.92c.26-.29,1.18-.29,1.37.04-.07,1.18-.11,2.51-.11,3.91s.04,2.73.11,3.91c-.18.33-1.11.37-1.37.04l-.18-.92c-.41-1.77-.81-2.07-2.73-2.07h-2.54c-1,0-1.03.04-1.03,1.14v4.39c0,1.7.15,2.87.59,3.5.48.66,1.18.96,3.87.96,3.21,0,4.46-.11,6.49-4.28.3-.41,1.22-.26,1.36.18-.15,1.92-1.03,4.91-1.55,5.9-1.95-.07-5.49-.11-8.52-.11h-4.79c-1.77,0-3.58.04-6.34.11-.3-.22-.3-1.11,0-1.29l1.73-.26c1.66-.22,1.88-.48,1.88-3.87v-13.75c0-3.35-.22-3.61-1.88-3.91l-.92-.19c-.33-.22-.3-1.07.07-1.29,1.73.07,3.54.11,5.31.11h7.82c2.36,0,4.46-.04,4.94-.11.04.59.29,3.24.48,5.71-.15.41-1,.48-1.36.15-.41-1.29-.92-2.4-1.4-2.91-.7-.7-1.81-1.14-3.61-1.14h-2.95c-1.22,0-1.22.07-1.22,1.44v6.45Z"/>
    <path class="cls-2" d="M103.42,10.28c.04-6.33-.08-7.02-2.71-7.41l-1.94-.26c-.56-.32-.55-1.69.14-2.13C103.05.18,107.94-.03,113.39,0c5.33.04,8.83.69,11.46,1.7,3.81,1.47,7.61,4.81,7.57,10.89-.07,10.27-10.42,11.71-13.74,11.69-.75,0-1.31,0-2-.08-.5-.32-.62-1.32-.18-1.69,5.21-1.6,6.3-5.28,6.33-9.92s-2.32-9.66-7.95-9.7c-2.32-.01-2.45.68-2.47,3.18l-.18,26.43c-.04,5.83.33,6.27,3.15,6.79l2,.33c.69.32.67,1.76-.02,2.13-3.5-.15-6.57-.23-9.58-.25-3.01-.02-6.01.02-9.4.12-.69-.38-.8-1.82-.11-2.13l1.75-.3c2.83-.48,3.2-.91,3.24-6.74l.15-22.17Z"/>
    <g>
      <path class="cls-1" d="M8.61,15.02c0-.93-.03-2.66-.29-3.11-.11-.18-.38-.29-.75-.32l-.38-.03c-.09-.1-.06-.3.03-.36.57.03,1.13.04,1.71.04.63,0,1.04-.01,1.58-.04.12.07.11.27.03.36l-.36.03c-.38.03-.68.17-.75.36-.23.5-.21,2.22-.21,3.06v1.7c0,1.31-.21,2.69-1.05,3.59-.65.71-1.76,1.1-2.87,1.1-1.04,0-2.07-.2-2.81-.83-.8-.66-1.17-1.76-1.17-3.54v-3.54c0-1.56-.03-1.82-.9-1.89l-.38-.03c-.09-.06-.06-.31.03-.36.75.03,1.26.04,1.86.04s1.11-.01,1.85-.04c.09.04.12.3.03.36l-.36.03c-.87.07-.9.33-.9,1.89v3.24c0,2.42.75,4.01,3.05,4.01,2.18,0,3-1.71,3-3.99v-1.73Z"/>
      <path class="cls-1" d="M19.21,19.15c0,.35,0,1.76.04,2.07-.02.07-.09.13-.22.13-.14-.2-.49-.62-1.52-1.79l-2.75-3.13c-.32-.37-1.12-1.34-1.37-1.6h-.02c-.05.14-.06.41-.06.77v2.58c0,.56.02,2.1.21,2.45.08.13.31.2.6.23l.37.03c.07.09.06.24-.02.3-.53-.02-.95-.04-1.38-.04-.5,0-.82.01-1.23.04-.08-.06-.09-.23-.02-.3l.32-.03c.27-.02.46-.11.52-.24.17-.43.15-1.87.15-2.44v-3.42c0-.33-.01-.58-.26-.85-.17-.17-.45-.25-.73-.28l-.2-.02c-.07-.07-.07-.25.02-.3.5.04,1.12.04,1.34.04.19,0,.39-.01.54-.04.24.6,1.65,2.17,2.02,2.6l1.15,1.29c.81.92,1.4,1.58,1.95,2.14h.02c.05-.06.05-.25.05-.5v-2.53c0-.56-.01-2.1-.24-2.45-.07-.11-.26-.18-.73-.24l-.2-.02c-.08-.07-.07-.26.02-.3.54.02.95.04,1.4.04.51,0,.82-.01,1.22-.04.09.06.09.23.02.3l-.17.02c-.38.06-.62.15-.66.25-.2.43-.18,1.89-.18,2.44v2.83Z"/>
      <path class="cls-1" d="M22.59,15.15c0-1.26-.02-1.46-.72-1.52l-.3-.02c-.07-.05-.05-.26.02-.3.59.02.99.04,1.49.04s.88-.01,1.47-.04c.07.04.09.25.02.3l-.3.02c-.7.06-.72.26-.72,1.52v4.21c0,1.25.02,1.42.72,1.5l.3.03c.07.05.05.26-.02.3-.59-.02-.99-.04-1.47-.04-.5,0-.9.01-1.49.04-.07-.04-.09-.23-.02-.3l.3-.03c.7-.08.72-.25.72-1.5v-4.21Z"/>
      <path class="cls-1" d="M26.73,14.6c-.27-.66-.45-.91-.96-.97l-.21-.02c-.08-.07-.07-.24.02-.3.34.02.72.04,1.23.04s.94-.01,1.43-.04c.08.05.11.23.02.3l-.18.02c-.45.06-.54.13-.56.23.02.12.22.76.59,1.66.54,1.37,1.09,2.73,1.68,4.08.37-.78.88-2,1.14-2.63.36-.81.9-2.14,1.1-2.65.09-.25.11-.38.11-.46s-.12-.18-.53-.23l-.21-.02c-.08-.07-.06-.25.02-.3.33.02.78.04,1.23.04.39,0,.76-.01,1.15-.04.08.05.08.24.02.3l-.36.02c-.28.02-.46.17-.62.41-.33.56-.79,1.52-1.33,2.72l-.64,1.46c-.47,1.09-1.03,2.46-1.23,3.09-.04.02-.08.04-.13.04-.06,0-.12-.01-.18-.04-.13-.5-.33-1.08-.54-1.57l-2.08-5.14Z"/>
      <path class="cls-1" d="M35.54,15.12c0-1.23-.02-1.41-.72-1.49l-.19-.02c-.07-.05-.05-.26.02-.3.51.02.91.04,1.4.04h2.23c.76,0,1.46,0,1.6-.04.07.2.14,1.05.19,1.58-.05.07-.24.09-.3.02-.18-.56-.28-.97-.9-1.12-.25-.06-.63-.07-1.15-.07h-.85c-.36,0-.36.02-.36.47v2.37c0,.33.04.33.39.33h.69c.5,0,.86-.02,1.01-.07.14-.05.22-.12.28-.41l.09-.49c.06-.07.26-.07.31.01,0,.28-.05.75-.05,1.2,0,.43.05.88.05,1.14-.05.08-.25.08-.31.01l-.11-.46c-.05-.21-.13-.39-.37-.45-.17-.05-.45-.06-.91-.06h-.69c-.36,0-.39.01-.39.32v1.67c0,.63.04,1.03.22,1.23.14.14.39.27,1.43.27.91,0,1.25-.05,1.52-.18.21-.12.53-.53.84-1.15.08-.06.25-.02.3.08-.08.41-.38,1.33-.53,1.65-1.07-.02-2.12-.04-3.17-.04h-1.07c-.51,0-.91.01-1.61.04-.07-.04-.09-.23-.02-.3l.39-.03c.68-.06.73-.24.73-1.48v-4.26Z"/>
      <path class="cls-1" d="M42.93,15.14c0-1.12-.04-1.33-.52-1.39l-.38-.05c-.08-.06-.08-.25.01-.3.66-.06,1.48-.09,2.64-.09.73,0,1.43.06,1.98.36.57.3.98.83.98,1.66,0,1.12-.89,1.74-1.48,1.98-.06.07,0,.19.06.28.95,1.53,1.57,2.48,2.38,3.15.2.18.5.31.82.33.06.02.07.12.01.17-.11.03-.3.06-.52.06-1.01,0-1.61-.3-2.45-1.49-.31-.44-.79-1.25-1.16-1.79-.18-.26-.37-.38-.84-.38-.53,0-.56.01-.56.26v1.49c0,1.24.02,1.39.71,1.48l.25.03c.07.06.05.26-.02.3-.53-.02-.94-.04-1.41-.04-.5,0-.92.01-1.48.04-.07-.04-.09-.21-.02-.3l.3-.03c.69-.08.71-.24.71-1.48v-4.25ZM43.91,16.83c0,.21,0,.34.04.39.04.04.21.06.82.06.43,0,.88-.05,1.22-.31.32-.25.59-.66.59-1.47,0-.93-.58-1.82-1.89-1.82-.73,0-.77.05-.77.38v2.77Z"/>
      <path class="cls-1" d="M52.18,21.35c-.99,0-1.62-.31-1.85-.44-.14-.26-.3-1.1-.32-1.66.06-.08.24-.11.28-.04.18.6.66,1.76,2.04,1.76.99,0,1.48-.65,1.48-1.36,0-.52-.11-1.1-.97-1.66l-1.12-.73c-.59-.39-1.28-1.07-1.28-2.04,0-1.12.88-2.04,2.42-2.04.37,0,.79.06,1.1.15.15.04.32.07.41.07.11.28.21.95.21,1.44-.05.07-.24.11-.3.04-.15-.57-.47-1.34-1.61-1.34s-1.41.77-1.41,1.31c0,.69.57,1.17,1.01,1.46l.95.59c.75.46,1.48,1.15,1.48,2.27,0,1.3-.98,2.19-2.52,2.19Z"/>
      <path class="cls-1" d="M57.31,15.15c0-1.26-.02-1.46-.72-1.52l-.3-.02c-.07-.05-.05-.26.02-.3.59.02.99.04,1.49.04s.88-.01,1.47-.04c.07.04.09.25.02.3l-.3.02c-.7.06-.72.26-.72,1.52v4.21c0,1.25.02,1.42.72,1.5l.3.03c.07.05.05.26-.02.3-.59-.02-.99-.04-1.47-.04-.5,0-.9.01-1.49.04-.07-.04-.09-.23-.02-.3l.3-.03c.7-.08.72-.25.72-1.5v-4.21Z"/>
      <path class="cls-1" d="M64.63,19.38c0,1.24.02,1.41.71,1.48l.38.03c.07.05.05.26-.02.3-.68-.02-1.08-.04-1.55-.04s-.89.01-1.65.04c-.07-.04-.09-.24,0-.3l.43-.03c.67-.06.73-.24.73-1.48v-5.29c0-.37,0-.38-.36-.38h-.65c-.51,0-1.16.02-1.46.3-.28.26-.4.52-.53.82-.09.07-.26.01-.31-.08.19-.53.37-1.29.45-1.76.04-.02.19-.04.23,0,.07.38.46.37,1.01.37h4.8c.64,0,.75-.02.92-.33.06-.02.19-.01.21.04-.13.49-.21,1.44-.18,1.8-.05.09-.25.09-.31.02-.04-.3-.12-.73-.3-.86-.27-.2-.72-.3-1.37-.3h-.84c-.35,0-.34.01-.34.4v5.27Z"/>
      <path class="cls-1" d="M72.69,19.36c0,1.27.07,1.46.71,1.5l.45.03c.07.07.05.26-.02.3-.73-.02-1.14-.04-1.61-.04-.5,0-.92.01-1.55.04-.07-.04-.09-.23-.02-.3l.37-.03c.69-.07.71-.24.71-1.5v-.6c0-.65-.04-.81-.38-1.47l-1.4-2.72c-.4-.78-.58-.84-.94-.9l-.33-.06c-.07-.08-.06-.25.02-.3.38.02.81.04,1.37.04s.97-.01,1.27-.04c.11.04.11.23.04.3l-.15.02c-.41.07-.5.12-.5.21,0,.12.31.79.37.91.44.88.88,1.81,1.34,2.63.37-.63.76-1.31,1.11-2,.33-.62.77-1.42.77-1.56,0-.07-.21-.15-.5-.19l-.21-.02c-.08-.08-.07-.25.02-.3.43.02.77.04,1.14.04s.7-.01,1.1-.04c.09.06.11.23.02.3l-.33.06c-.62.09-.97.85-1.56,1.87l-.75,1.29c-.53.89-.56,1.01-.56,1.92v.62Z"/>
      <path class="cls-1" d="M79.96,17.34c0-2.37,1.78-4.18,4.21-4.18,2.74,0,4.11,1.98,4.11,4.06,0,2.39-1.82,4.13-4.11,4.13-2.63,0-4.21-1.88-4.21-4.01ZM87.1,17.59c0-1.95-.86-4.06-3.13-4.06-1.23,0-2.83.84-2.83,3.43,0,1.75.85,4.03,3.18,4.03,1.42,0,2.77-1.07,2.77-3.4Z"/>
      <path class="cls-1" d="M91.79,16.69c0,.32.04.32.39.32h.81c.49,0,.86-.02,1.01-.07.13-.05.23-.11.3-.41l.11-.47c.06-.07.26-.07.31,0,0,.28-.05.76-.05,1.2s.05.88.05,1.15c-.05.07-.23.07-.31,0l-.12-.46c-.05-.21-.15-.38-.38-.45-.17-.05-.46-.06-.91-.06h-.81c-.36,0-.39.01-.39.32v1.65c0,1.24.02,1.42.72,1.48l.4.03c.07.05.05.26-.02.3-.7-.02-1.1-.04-1.57-.04-.52,0-.92.01-1.48.04-.07-.04-.09-.23-.02-.3l.3-.03c.69-.08.71-.24.71-1.48v-4.26c0-1.24-.02-1.41-.71-1.49l-.19-.02c-.07-.05-.05-.26.02-.3.5.02.9.04,1.37.04h2.18c.76,0,1.44,0,1.6-.04,0,.55.01,1.11.04,1.56-.04.07-.2.11-.28.04-.09-.53-.24-.96-.83-1.12-.26-.06-.65-.07-1.15-.07h-.72c-.36,0-.36.02-.36.47v2.5Z"/>
    </g>
    <g>
      <path class="cls-1" d="M15.01,27.35c-.09-.09-.08-.3.04-.36.41.03,1.08.04,1.55.04.42,0,1.19-.01,1.71-.04.14.04.12.26.03.36l-.34.03c-.32.03-.5.12-.5.26,0,.18.32.95.78,2.01.84,1.88,1.73,3.75,2.6,5.6.36-.75.75-1.59,1.16-2.43.12-.29.24-.54.24-.62s-.04-.21-.12-.39c-.53-1.2-1.08-2.4-1.65-3.6-.23-.47-.45-.78-.96-.83l-.36-.03c-.11-.12-.09-.3.03-.36.43.03,1.01.04,1.61.04.75,0,1.31-.01,1.65-.04.11.04.12.24.03.36l-.39.03c-.59.04-.62.15-.32.83.3.74.74,1.68,1.16,2.61.28-.59.55-1.16.89-1.97.54-1.28.47-1.44-.01-1.47l-.45-.03c-.11-.15-.07-.31.03-.36.41.03.86.04,1.41.04.5,0,1.1-.01,1.44-.04.11.04.12.24.03.36l-.43.03c-.63.04-.9.72-1.23,1.34-.32.56-.95,1.86-1.17,2.39-.08.15-.14.3-.14.36s.03.18.11.36c.51,1.15,1.04,2.28,1.53,3.42.47-1.05.9-2.1,1.35-3.17.29-.72,1.1-2.72,1.2-2.99.19-.54.45-1.19.45-1.37,0-.21-.18-.33-.5-.35l-.44-.03c-.12-.14-.11-.3.01-.36.57.03.98.04,1.44.04.57,0,1.01-.01,1.4-.04.12.04.14.24.03.36l-.29.03c-.75.08-.89.53-1.79,2.61l-1.1,2.54c-.65,1.53-1.26,3-1.88,4.61-.05.03-.11.04-.18.04s-.15-.01-.21-.04c-.48-1.34-1.35-3.21-1.82-4.26-.54,1.1-1.44,3.02-1.88,4.26-.05.03-.11.04-.18.04s-.15-.01-.23-.04c-.26-.63-.84-1.98-1.04-2.42-.96-2.09-1.89-4.17-2.87-6.26-.29-.62-.47-1.02-1.1-1.08l-.36-.03Z"/>
      <path class="cls-1" d="M31.58,30.92c0-1.25-.02-1.46-.72-1.52l-.3-.02c-.07-.05-.05-.26.02-.3.59.02.99.04,1.49.04s.88-.01,1.47-.04c.07.04.09.25.02.3l-.3.02c-.7.06-.72.26-.72,1.52v4.21c0,1.26.02,1.42.72,1.5l.3.04c.07.05.05.26-.02.3-.59-.02-.99-.04-1.47-.04-.5,0-.9.01-1.49.04-.07-.04-.09-.23-.02-.3l.3-.04c.7-.08.72-.25.72-1.5v-4.21Z"/>
      <path class="cls-1" d="M37.19,37.13c-.99,0-1.62-.31-1.85-.44-.14-.26-.3-1.1-.32-1.66.06-.08.24-.11.28-.04.18.6.66,1.76,2.04,1.76.99,0,1.48-.65,1.48-1.36,0-.52-.11-1.1-.97-1.66l-1.12-.73c-.59-.39-1.28-1.07-1.28-2.04,0-1.12.88-2.04,2.42-2.04.37,0,.79.06,1.1.15.15.04.32.07.41.07.11.28.21.95.21,1.44-.05.07-.24.11-.3.04-.15-.57-.47-1.34-1.61-1.34s-1.41.77-1.41,1.31c0,.69.57,1.17,1.01,1.46l.95.59c.75.46,1.48,1.15,1.48,2.27,0,1.3-.98,2.19-2.52,2.19Z"/>
      <path class="cls-1" d="M42.82,29.94c.86-.67,1.97-1.01,3.2-1.01.64,0,1.54.13,2.1.28.14.04.23.06.33.05.01.27.07,1.02.17,1.74-.06.08-.24.09-.32.02-.18-.81-.71-1.73-2.43-1.73-1.81,0-3.35,1.15-3.35,3.6s1.57,3.86,3.52,3.86c1.53,0,2.2-.99,2.47-1.69.08-.06.26-.04.31.05-.08.62-.39,1.4-.57,1.62-.14.02-.28.07-.41.12-.26.09-1.11.27-1.87.27-1.07,0-2.08-.21-2.95-.79-.95-.65-1.68-1.73-1.68-3.26,0-1.31.59-2.44,1.49-3.14Z"/>
      <path class="cls-1" d="M50.07,33.11c0-2.37,1.78-4.18,4.21-4.18,2.74,0,4.11,1.98,4.11,4.06,0,2.39-1.82,4.13-4.11,4.13-2.63,0-4.21-1.88-4.21-4.01ZM57.21,33.36c0-1.95-.86-4.06-3.13-4.06-1.23,0-2.83.84-2.83,3.43,0,1.75.85,4.03,3.18,4.03,1.42,0,2.77-1.07,2.77-3.4Z"/>
      <path class="cls-1" d="M67.3,34.92c0,.36,0,1.76.04,2.07-.02.07-.09.13-.22.13-.14-.2-.49-.62-1.52-1.79l-2.75-3.13c-.32-.37-1.12-1.34-1.37-1.6h-.02c-.05.14-.06.41-.06.77v2.58c0,.56.02,2.1.21,2.45.08.13.31.2.6.23l.37.04c.07.09.06.24-.02.3-.53-.02-.95-.04-1.38-.04-.5,0-.82.01-1.23.04-.08-.06-.09-.23-.02-.3l.32-.04c.27-.02.46-.11.52-.24.17-.43.15-1.87.15-2.44v-3.42c0-.33-.01-.58-.26-.85-.17-.17-.45-.25-.73-.28l-.2-.02c-.07-.07-.07-.25.02-.3.5.04,1.12.04,1.34.04.19,0,.39-.01.54-.04.24.6,1.65,2.17,2.02,2.6l1.15,1.29c.81.92,1.4,1.57,1.95,2.14h.02c.05-.06.05-.25.05-.5v-2.53c0-.56-.01-2.1-.24-2.45-.07-.11-.26-.18-.73-.24l-.2-.02c-.08-.07-.07-.26.02-.3.54.02.95.04,1.4.04.51,0,.82-.01,1.22-.04.09.06.09.23.02.3l-.17.02c-.38.06-.62.15-.66.25-.2.43-.18,1.89-.18,2.44v2.83Z"/>
      <path class="cls-1" d="M71.81,37.13c-.99,0-1.62-.31-1.85-.44-.14-.26-.3-1.1-.32-1.66.06-.08.24-.11.28-.04.18.6.66,1.76,2.04,1.76.99,0,1.48-.65,1.48-1.36,0-.52-.11-1.1-.97-1.66l-1.12-.73c-.59-.39-1.28-1.07-1.28-2.04,0-1.12.88-2.04,2.42-2.04.37,0,.79.06,1.1.15.15.04.32.07.41.07.11.28.21.95.21,1.44-.05.07-.24.11-.3.04-.15-.57-.47-1.34-1.61-1.34s-1.41.77-1.41,1.31c0,.69.57,1.17,1.01,1.46l.95.59c.75.46,1.48,1.15,1.48,2.27,0,1.3-.98,2.19-2.52,2.19Z"/>
      <path class="cls-1" d="M76.94,30.92c0-1.25-.02-1.46-.72-1.52l-.3-.02c-.07-.05-.05-.26.02-.3.59.02.99.04,1.49.04s.88-.01,1.47-.04c.07.04.09.25.02.3l-.3.02c-.7.06-.72.26-.72,1.52v4.21c0,1.26.02,1.42.72,1.5l.3.04c.07.05.05.26-.02.3-.59-.02-.99-.04-1.47-.04-.5,0-.9.01-1.49.04-.07-.04-.09-.23-.02-.3l.3-.04c.7-.08.72-.25.72-1.5v-4.21Z"/>
      <path class="cls-1" d="M87.79,34.92c0,.36,0,1.76.04,2.07-.02.07-.09.13-.22.13-.14-.2-.49-.62-1.52-1.79l-2.75-3.13c-.32-.37-1.12-1.34-1.37-1.6h-.02c-.05.14-.06.41-.06.77v2.58c0,.56.02,2.1.21,2.45.08.13.31.2.6.23l.37.04c.07.09.06.24-.02.3-.53-.02-.95-.04-1.39-.04-.5,0-.82.01-1.23.04-.08-.06-.09-.23-.02-.3l.32-.04c.27-.02.46-.11.52-.24.17-.43.15-1.87.15-2.44v-3.42c0-.33-.01-.58-.26-.85-.17-.17-.45-.25-.73-.28l-.2-.02c-.07-.07-.07-.25.02-.3.5.04,1.12.04,1.34.04.19,0,.39-.01.54-.04.24.6,1.65,2.17,2.02,2.6l1.15,1.29c.81.92,1.4,1.57,1.95,2.14h.02c.05-.06.05-.25.05-.5v-2.53c0-.56-.01-2.1-.24-2.45-.07-.11-.26-.18-.73-.24l-.2-.02c-.08-.07-.07-.26.02-.3.54.02.95.04,1.4.04.51,0,.82-.01,1.22-.04.09.06.09.23.02.3l-.17.02c-.38.06-.62.15-.66.25-.2.43-.18,1.89-.18,2.44v2.83Z"/>
    </g>
  </g>
  <path class="cls-2" d="M163.85,38.28l4.15,3.46s-2.09-1.12-4.52-2.26c-.44-.21-.69-1.38-.69-1.38l1.06.18Z"/>
<!-- Code injected by live-server -->
<script>
	// <![CDATA[  <-- For SVG support
	if ('WebSocket' in window) {
		(function () {
			function refreshCSS() {
				var sheets = [].slice.call(document.getElementsByTagName("link"));
				var head = document.getElementsByTagName("head")[0];
				for (var i = 0; i < sheets.length; ++i) {
					var elem = sheets[i];
					var parent = elem.parentElement || head;
					parent.removeChild(elem);
					var rel = elem.rel;
					if (elem.href && typeof rel != "string" || rel.length == 0 || rel.toLowerCase() == "stylesheet") {
						var url = elem.href.replace(/(&|\?)_cacheOverride=\d+/, '');
						elem.href = url + (url.indexOf('?') >= 0 ? '&' : '?') + '_cacheOverride=' + (new Date().valueOf());
					}
					parent.appendChild(elem);
				}
			}
			var protocol = window.location.protocol === 'http:' ? 'ws://' : 'wss://';
			var address = protocol + window.location.host + window.location.pathname + '/ws';
			var socket = new WebSocket(address);
			socket.onmessage = function (msg) {
				if (msg.data == 'reload') window.location.reload();
				else if (msg.data == 'refreshcss') refreshCSS();
			};
			if (sessionStorage && !sessionStorage.getItem('IsThisFirstTime_Log_From_LiveServer')) {
				console.log('Live reload enabled.');
				sessionStorage.setItem('IsThisFirstTime_Log_From_LiveServer', true);
			}
		})();
	}
	else {
		console.error('Upgrade your browser. This Browser is NOT supported WebSocket for Live-Reloading.');
	}
	// ]]>
</script>
</svg>