<?xml version="1.0" encoding="UTF-8"?> <svg xmlns="http://www.w3.org/2000/svg" viewBox="0 0 100.18 81"><polygon points="69.92 52.97 61.14 52.97 61.12 31.09 61.62 27 64.27 29.58 64.43 49.69 66.63 49.69 66.63 30.4 76.69 18.7 79.18 20.85 69.92 31.62 69.92 52.97" fill="#009e99"></polygon><path d="M42.65,49.69h-11V25.41l11-6.24Zm13.62-32-7.21-6L28.4,23.5V53H45.93V17.29l2.79-1.59,6.2,5.11,6.13,5.07v27h3.29V24.33Z" fill="#009e99"></path><polygon points="51.95 38.54 57 39.72 57 52.88 51.95 52.88 51.95 38.54" fill="#009e99"></polygon><path d="M88.54,22.18a7.66,7.66,0,0,0,3-5.91c0-4.54-4.31-8.21-9.64-8.21-.3,0-.59,0-.89,0a10.23,10.23,0,0,0-3.4-1.64,1.27,1.27,0,0,0,0-.2C77.58,2.8,73.33,0,68.09,0s-9.5,2.8-9.5,6.25v.06l-.4,0c-3.76,0-6.8,2.39-6.8,5.33a4.77,4.77,0,0,0,1.91,3.69,9.08,9.08,0,0,0-2.45,2.15l10.2,8.42V30a10.21,10.21,0,0,0,1.49-.41l-1-2.45L63,25.54l2.73,2.58,9.3-10.72,1.68,1.45-10,11.53v3.09a11.09,11.09,0,0,0,8.28.39,10.48,10.48,0,0,0,6.85,2.45c5.33,0,9.64-3.68,9.64-8.21a7.68,7.68,0,0,0-3-5.92" fill="#009e99"></path><path d="M5.47,66.87l-.61-1.46a18,18,0,0,1-.58-1.71s-.29,1-.56,1.71l-.61,1.46ZM4.23,60.13h.16l4.4,9.69H6.71l-.53-1.3H2.44l-.53,1.3H0Z"></path><path d="M9.48,66.34V60.21h2v6c0,1.4.61,1.94,1.93,1.94s1.89-.54,1.89-1.94v-6h2v6.13c0,2.44-1.68,3.61-3.87,3.61s-3.91-1.17-3.91-3.61"></path><path d="M18.32,67.93,19.93,67a2.14,2.14,0,0,0,1.95,1.21c.82,0,1.34-.41,1.34-1s-.53-.92-1.44-1.31l-.49-.22c-1.43-.6-2.38-1.37-2.38-3a2.64,2.64,0,0,1,2.9-2.61,2.92,2.92,0,0,1,2.81,1.58l-1.54,1a1.35,1.35,0,0,0-1.27-.85.87.87,0,0,0-.95.85c0,.59.37.83,1.22,1.2l.49.21c1.68.72,2.63,1.46,2.63,3.11S23.8,70,21.92,70a3.8,3.8,0,0,1-3.6-2"></path><polygon points="28.65 61.95 25.91 61.95 25.91 60.21 33.37 60.21 33.37 61.95 30.63 61.95 30.63 69.82 28.65 69.82 28.65 61.95"></polygon><rect x="34.87" y="60.21" width="1.98" height="9.61"></rect><path d="M41.74,65.35A14.62,14.62,0,0,1,40.59,64a17.07,17.07,0,0,1,.14,1.75v4H38.88V60.13h.2l4.85,4.55A13.72,13.72,0,0,1,45.06,66s-.13-1.09-.13-1.75v-4h1.85v9.7h-.19Z"></path><path d="M51.08,67.93,52.69,67a2.16,2.16,0,0,0,2,1.21c.82,0,1.34-.41,1.34-1s-.53-.92-1.44-1.31l-.49-.22c-1.43-.6-2.38-1.37-2.38-3a2.64,2.64,0,0,1,2.9-2.61,2.92,2.92,0,0,1,2.81,1.58l-1.54,1a1.34,1.34,0,0,0-1.27-.85.87.87,0,0,0-1,.85c0,.59.37.83,1.22,1.2l.49.21C57,64.8,58,65.54,58,67.19S56.56,70,54.68,70a3.81,3.81,0,0,1-3.6-2"></path><polygon points="61.41 61.95 58.67 61.95 58.67 60.21 66.13 60.21 66.13 61.95 63.39 61.95 63.39 69.82 61.41 69.82 61.41 61.95"></polygon><path d="M71.09,64.82c1,0,1.6-.38,1.6-1.44S72,62,71.09,62H69.57v2.87Zm-3.5-4.61h3.56c2,0,3.58.92,3.58,3.17a2.84,2.84,0,0,1-1.88,2.81L75,69.82H72.78l-2-3.33H69.57v3.33h-2Z"></path><polygon points="76.48 60.21 82.84 60.21 82.84 61.95 78.46 61.95 78.46 64.15 82.32 64.15 82.32 65.85 78.46 65.85 78.46 68.08 83.04 68.08 83.04 69.82 76.48 69.82 76.48 60.21"></polygon><polygon points="84.88 60.21 91.23 60.21 91.23 61.95 86.85 61.95 86.85 64.15 90.71 64.15 90.71 65.85 86.85 65.85 86.85 68.08 91.43 68.08 91.43 69.82 84.88 69.82 84.88 60.21"></polygon><polygon points="95.46 61.95 92.72 61.95 92.72 60.21 100.18 60.21 100.18 61.95 97.44 61.95 97.44 69.82 95.46 69.82 95.46 61.95"></polygon><path d="M26.72,77.83a3.11,3.11,0,0,1,3.18-3.16,2.69,2.69,0,0,1,2.47,1.26l-1,.69a1.69,1.69,0,0,0-1.5-.81,2,2,0,0,0,0,4,1.77,1.77,0,0,0,1.59-.9l1,.68A2.92,2.92,0,0,1,29.9,81a3.12,3.12,0,0,1-3.18-3.17"></path><polygon points="35.24 74.74 39.33 74.74 39.33 75.86 36.51 75.86 36.51 77.28 38.99 77.28 38.99 78.37 36.51 78.37 36.51 79.8 39.46 79.8 39.46 80.92 35.24 80.92 35.24 74.74"></polygon><path d="M44.29,78.05a9,9,0,0,1-.74-.85,10.94,10.94,0,0,1,.09,1.13v2.59H42.46V74.69h.12l3.12,2.92a8,8,0,0,1,.72.85s-.08-.7-.08-1.13V74.74h1.19V81h-.12Z"></path><polygon points="52.05 75.86 50.29 75.86 50.29 74.74 55.08 74.74 55.08 75.86 53.32 75.86 53.32 80.92 52.05 80.92 52.05 75.86"></polygon><polygon points="57.84 74.74 61.92 74.74 61.92 75.86 59.11 75.86 59.11 77.28 61.59 77.28 61.59 78.37 59.11 78.37 59.11 79.8 62.05 79.8 62.05 80.92 57.84 80.92 57.84 74.74"></polygon><path d="M67.3,77.7c.63,0,1-.24,1-.92s-.42-.92-1-.92h-1V77.7Zm-2.25-3h2.29c1.26,0,2.3.59,2.3,2a1.81,1.81,0,0,1-1.21,1.8l1.41,2.34H68.38l-1.25-2.14h-.81v2.14H65.05Z"></path></svg> 