<svg xmlns="http://www.w3.org/2000/svg" xmlns:xlink="http://www.w3.org/1999/xlink" id="Layer_1" x="0px" y="0px" viewBox="0 0 350 150.2" style="enable-background:new 0 0 350 150.2;" xml:space="preserve"><style type="text/css">	.st0{fill:#BD1E51;}	.st1{fill:#DB0632;}	.st2{fill:#818286;}</style><g>	<g>		<g>			<g>				<path class="st0" d="M181.4,78.3c0,0-0.1-45.7-51.8-63.9c0,0,10.6-3.7,23.9-3.3c36.1,1.1,70.6,38.1,75.2,67.1H181.4L181.4,78.3z     "></path>				<path class="st1" d="M68.6,131.4c0,0-14.4-128.3,88.1-124.2c0,0-49.8-22-102.3,11.3C0.7,52.4-0.4,112.2,0.1,131.3L68.6,131.4     L68.6,131.4z"></path>			</g>			<path class="st2" d="M96.4,125.8c0,2.2,0,3.7,1.9,4.9v0.1H91v-0.1c1.8-0.7,1.6-3.5,1.6-5.3v-17.1h-3.2c-1.6,0-3.3,0.4-4.4,1.5    h-0.1l1.3-4.6h0.1c0.4,0.2,0.9,0.2,1.4,0.3h14.7c0.6,0,1.2,0,1.7-0.3h0.1l-1.2,4.6h-0.1c-0.5-1.3-2-1.5-3.2-1.5h-3.3V125.8    L96.4,125.8z"></path>			<path class="st2" d="M114.5,118.5v7c0,1.7-0.2,4.5,1.6,5.3v0.1h-7v-0.1c1.8-0.7,1.6-3.5,1.6-5.3v-14.5c0-1.7,0.3-4.5-1.6-5.3    v-0.1h7v0.1c-1.8,0.7-1.6,3.5-1.6,5.3v4.8h13.3V111c0-1.8,0.3-4.6-1.6-5.3v-0.1h7v0.1c-1.9,0.7-1.7,3.5-1.7,5.3v14.5    c0,1.7-0.2,4.5,1.7,5.3v0.1h-7v-0.1c1.9-0.7,1.6-3.5,1.6-5.3v-7H114.5L114.5,118.5z"></path>			<path class="st2" d="M145.4,127.6l4.7,0.5c2.4,0.2,5-0.6,6.8-2.3h0.1l-1.7,5H140v-0.1c1.9-0.7,1.7-3.5,1.7-5.3V111    c0-1.8,0.2-4.6-1.7-5.3v-0.1h11.8c0.6,0,1.3,0.1,1.7-0.2h0.1v4.5h-0.1c-1.2-1.4-2.7-1.5-4.4-1.5c-1.3,0-2.6,0-3.8,0.3v7.1h4.4    c0.6,0,1.2,0,1.6-0.2h0.1v4.1h-0.1c-0.6-1.1-2.1-1.1-3.3-1.1h-2.7V127.6L145.4,127.6z"></path>			<path class="st2" d="M175.4,126.8c4.4,0.4,8.9-1.7,8.9-7c0-5.5-5.1-7.8-9.8-7.5l-3.8,0.2v13.9L175.4,126.8L175.4,126.8z     M172.5,108.7c3.5,0,8.5-1.2,8.5-5.8c0-3.9-3.5-5.9-6.7-5.6l-3.6,0.4v11H172.5L172.5,108.7z M165.2,101.7c0-2.5,0.4-6.6-2.4-7.7    v-0.2h12.8c7.1,0,11.3,3.1,11.3,8.1c0,3.8-2.3,5.9-5.4,7.3c4.9,1.1,8.8,4.4,8.8,9.9c0,4.3-2.9,8-6.5,9.8c-3.8,1.9-8,1.7-12.1,1.7    h-8.9v-0.2c2.7-1.1,2.4-5.2,2.4-7.8V101.7L165.2,101.7z"></path>			<path class="st2" d="M207.6,93.8c7.2,0,11.2,3.9,11.2,9c0,4.9-4.2,8.8-8.6,9.9l7.8,10.2c2.3,2.9,5.7,5.8,8.8,7.9h-5    c-2.9,0-4.6-0.7-6.3-2.8l-6.6-8.5l-5-7.9c4.3-0.7,9.3-2.8,9.3-8c0-4-3.4-6.4-7-6.2c-1.2,0.1-2.4,0.2-3.7,0.4v25.2    c0,2.6-0.3,6.7,2.4,7.7v0.2h-10.3v-0.2c2.8-1,2.4-5.2,2.4-7.7v-21.2c0-2.6,0.4-6.7-2.4-7.8v-0.2H207.6L207.6,93.8z"></path>			<path class="st2" d="M232.1,101.8c0-2.6,0.4-6.7-2.4-7.8v-0.2H240V94c-2.7,1.1-2.4,5.2-2.4,7.8v21.2c0,2.5-0.3,6.6,2.4,7.7v0.2    h-10.3v-0.2c2.7-1,2.4-5.2,2.4-7.7V101.8L232.1,101.8z"></path>			<path class="st2" d="M254.6,126.4c1.3,0.3,2.6,0.4,3.9,0.4c8,0,15.2-4.4,15.2-14.1c0-9.8-5.3-14.8-14.3-14.8    c-1.6,0-3.2,0.2-4.9,0.6V126.4L254.6,126.4z M249,101.5c0-2.6,0.4-6.7-2.4-7.5v-0.2h13.2c12.3,0,20,7,20,18.1    c0,11.1-8.2,18.8-20.3,18.8h-13v-0.2c2.7-1.9,2.4-4.6,2.4-7.9V101.5L249,101.5z"></path>			<path class="st2" d="M315,99.5h-0.2c-2.2-2.6-6.3-3.4-9.6-3.4c-8.4,0-14.9,5.7-14.9,14.8c0,9,6.9,15.9,15.5,15.9    c2.5,0,5.1-0.3,7.5-1.1v-8.1c0-2.6-0.1-5.3-2.5-6.3v-0.2h8.3v0.2c-0.3,0.7-0.3,1.6-0.3,2.4v12.9c0,0.8-0.1,1.7,0.3,2.5    c-4.3,0.8-8.5,1.7-12.9,1.7c-13.8,0-22-7.9-22-19.2c0-12.1,9.2-19.6,22.3-19.6c2.9,0,5.7,0.3,8.5,1V99.5L315,99.5z"></path>			<path class="st2" d="M333,126.1l6.9,0.7c3.6,0.3,7.3-0.8,10-3.3h0.2l-2.4,7.4H325v-0.2c2.8-1,2.4-5.2,2.4-7.7v-21.2    c0-2.6,0.3-6.7-2.4-7.8v-0.2h17.3c0.9,0,1.8,0.1,2.5-0.3h0.2v6.6h-0.2c-1.7-2-3.9-2.2-6.4-2.2c-1.9,0-3.8,0.1-5.5,0.4v10.5h6.4    c0.9,0,1.7,0,2.4-0.3h0.2v6h-0.2c-0.9-1.6-3.1-1.6-4.8-1.6h-4V126.1L333,126.1z"></path>		</g>	</g>	<g>		<path class="st2" d="M90.7,142.3h0.9v3.5h4.5v-3.5H97v7.8h-0.9v-3.5h-4.5v3.5h-0.9V142.3z"></path>		<path class="st2" d="M102.3,146.2L102.3,146.2c0-2.2,1.6-4,4-4c2.4,0,4,1.9,4,4v0c0,2.1-1.6,4-4,4   C103.9,150.2,102.3,148.3,102.3,146.2z M109.3,146.2L109.3,146.2c0-1.8-1.3-3.2-3.1-3.2c-1.8,0-3,1.4-3,3.2v0   c0,1.8,1.3,3.2,3.1,3.2C108,149.4,109.3,148,109.3,146.2z"></path>		<path class="st2" d="M115.5,142.3h0.9l2.8,4.2l2.8-4.2h0.9v7.8h-0.9v-6.3l-2.8,4.2h0l-2.8-4.2v6.3h-0.9V142.3z"></path>		<path class="st2" d="M128.7,142.3h5.6v0.8h-4.7v2.7h4.2v0.8h-4.2v2.7h4.8v0.8h-5.7V142.3z"></path>		<path class="st2" d="M139.4,142.3h0.9v7h4.4v0.8h-5.2V142.3z"></path>		<path class="st2" d="M149.6,142.3h5.6v0.8h-4.7v2.7h4.2v0.8h-4.2v2.7h4.8v0.8h-5.7V142.3z"></path>		<path class="st2" d="M160,148.9l0.5-0.6c0.8,0.7,1.6,1.1,2.7,1.1c1,0,1.7-0.6,1.7-1.3v0c0-0.7-0.4-1.1-2-1.5   c-1.8-0.4-2.6-1-2.6-2.2v0c0-1.2,1.1-2.1,2.6-2.1c1.1,0,1.9,0.3,2.7,1l-0.5,0.7c-0.7-0.6-1.4-0.8-2.2-0.8c-1,0-1.7,0.6-1.7,1.3v0   c0,0.7,0.4,1.1,2.1,1.5c1.7,0.4,2.5,1,2.5,2.2v0c0,1.3-1.1,2.2-2.7,2.2C161.9,150.2,160.9,149.8,160,148.9z"></path>		<path class="st2" d="M170.5,148.9l0.5-0.6c0.8,0.7,1.6,1.1,2.7,1.1c1,0,1.7-0.6,1.7-1.3v0c0-0.7-0.4-1.1-2-1.5   c-1.8-0.4-2.6-1-2.6-2.2v0c0-1.2,1.1-2.1,2.6-2.1c1.1,0,1.9,0.3,2.7,1l-0.5,0.7c-0.7-0.6-1.4-0.8-2.2-0.8c-1,0-1.7,0.6-1.7,1.3v0   c0,0.7,0.4,1.1,2.1,1.5c1.7,0.4,2.5,1,2.5,2.2v0c0,1.3-1.1,2.2-2.7,2.2C172.5,150.2,171.5,149.8,170.5,148.9z"></path>		<path class="st2" d="M188.4,142.3h3.3c1,0,1.7,0.3,2.2,0.8c0.4,0.4,0.6,0.9,0.6,1.5v0c0,1.3-0.9,2-2.1,2.3l2.4,3.2h-1.1l-2.3-3   h-2.2v3h-0.9V142.3z M191.6,146.3c1.2,0,2-0.6,2-1.6v0c0-1-0.7-1.5-2-1.5h-2.4v3.2H191.6z"></path>		<path class="st2" d="M199.8,142.3h5.6v0.8h-4.7v2.7h4.2v0.8h-4.2v2.7h4.8v0.8h-5.7V142.3z"></path>		<path class="st2" d="M210.1,146.2L210.1,146.2c0-2.2,1.6-4,3.9-4c1.4,0,2.3,0.5,3,1.2l-0.6,0.6c-0.7-0.6-1.4-1.1-2.4-1.1   c-1.7,0-3,1.4-3,3.2v0c0,1.8,1.3,3.2,3,3.2c1.1,0,1.8-0.4,2.5-1.1l0.6,0.6c-0.8,0.8-1.7,1.4-3.1,1.4   C211.7,150.2,210.1,148.4,210.1,146.2z"></path>		<path class="st2" d="M221.5,146.2L221.5,146.2c0-2.2,1.6-4,4-4c2.4,0,4,1.9,4,4v0c0,2.1-1.6,4-4,4   C223.1,150.2,221.5,148.3,221.5,146.2z M228.5,146.2L228.5,146.2c0-1.8-1.3-3.2-3.1-3.2c-1.8,0-3,1.4-3,3.2v0   c0,1.8,1.3,3.2,3.1,3.2C227.2,149.4,228.5,148,228.5,146.2z"></path>		<path class="st2" d="M233.5,142.3h1l2.8,6.7l2.8-6.7h0.9l-3.3,7.8h-0.8L233.5,142.3z"></path>		<path class="st2" d="M245.9,142.3h5.6v0.8h-4.7v2.7h4.2v0.8h-4.2v2.7h4.8v0.8h-5.7V142.3z"></path>		<path class="st2" d="M256.7,142.3h3.3c1,0,1.7,0.3,2.2,0.8c0.4,0.4,0.6,0.9,0.6,1.5v0c0,1.3-0.9,2-2.1,2.3l2.4,3.2H262l-2.3-3   h-2.2v3h-0.9V142.3z M259.9,146.3c1.2,0,2-0.6,2-1.6v0c0-1-0.7-1.5-2-1.5h-2.4v3.2H259.9z"></path>		<path class="st2" d="M270.2,147l-3.2-4.7h1.1l2.6,3.9l2.6-3.9h1l-3.2,4.7v3.1h-0.9V147z"></path>		<path class="st2" d="M285.6,146.2L285.6,146.2c0-2.2,1.6-4,3.9-4c1.4,0,2.3,0.5,3,1.2L292,144c-0.7-0.6-1.4-1.1-2.4-1.1   c-1.7,0-3,1.4-3,3.2v0c0,1.8,1.3,3.2,3,3.2c1.1,0,1.8-0.4,2.5-1.1l0.6,0.6c-0.8,0.8-1.7,1.4-3.1,1.4   C287.3,150.2,285.6,148.4,285.6,146.2z"></path>		<path class="st2" d="M297.6,142.3h5.6v0.8h-4.7v2.7h4.2v0.8h-4.2v2.7h4.8v0.8h-5.7V142.3z"></path>		<path class="st2" d="M308.3,142.3h0.8l4.9,6.2v-6.2h0.9v7.8h-0.7l-5-6.4v6.4h-0.9V142.3z"></path>		<path class="st2" d="M322.5,143.1h-2.6v-0.8h6.1v0.8h-2.6v7h-0.9V143.1z"></path>		<path class="st2" d="M330.9,142.3h5.6v0.8h-4.7v2.7h4.2v0.8h-4.2v2.7h4.8v0.8h-5.7V142.3z"></path>		<path class="st2" d="M341.7,142.3h3.3c1,0,1.7,0.3,2.2,0.8c0.4,0.4,0.6,0.9,0.6,1.5v0c0,1.3-0.9,2-2.1,2.3l2.4,3.2H347l-2.3-3   h-2.2v3h-0.9V142.3z M345,146.3c1.2,0,2-0.6,2-1.6v0c0-1-0.7-1.5-2-1.5h-2.4v3.2H345z"></path>	</g></g></svg>