<svg id="Layer_1" data-name="Layer 1" xmlns="http://www.w3.org/2000/svg" viewBox="0 0 92.95 92.62"><defs><style>.cls-1{fill:#135eab;}.cls-2{fill:#52aeca;}</style></defs><polygon class="cls-1" points="38.95 86.24 36.72 86.24 36.72 84.81 42.8 84.81 42.8 86.24 40.58 86.24 40.58 92.44 38.95 92.44 38.95 86.24"/><polygon class="cls-1" points="44.7 84.81 50.09 84.81 50.09 86.2 46.32 86.2 46.32 87.86 50.01 87.86 50.01 89.26 46.32 89.26 46.32 91.03 50.09 91.03 50.09 92.44 44.7 92.44 44.7 84.81"/><polygon class="cls-1" points="56.72 87.2 55.39 92.44 53.66 92.44 51.48 84.81 53.3 84.81 54.63 90.32 56.09 84.81 57.36 84.81 58.8 90.32 60.12 84.81 61.95 84.81 59.78 92.44 58.05 92.44 56.72 87.2"/><path class="cls-1" d="M270.1,287.28h-1.73v2.11h1.73a1.06,1.06,0,1,0,0-2.11m-3.35-1.39h3.56a2.45,2.45,0,1,1,0,4.89h-1.94v2.73h-1.62Z" transform="translate(-203.17 -201.08)"/><path class="cls-1" d="M278.35,287.2a2.51,2.51,0,1,0,2.32,2.51,2.31,2.31,0,0,0-2.32-2.51m0-1.44a3.95,3.95,0,1,1-4,3.95,3.83,3.83,0,0,1,4-3.95" transform="translate(-203.17 -201.08)"/><polygon class="cls-1" points="82.2 86.24 79.97 86.24 79.97 84.81 86.06 84.81 86.06 86.24 83.84 86.24 83.84 92.44 82.2 92.44 82.2 86.24"/><path class="cls-1" d="M213.07,286.11l-.51,1.67h1.21l-.11.33h-1.2l-1.06,3.73a2.56,2.56,0,0,0-.17.75c0,.26.13.43.36.43.43,0,.78-.42,1.11-1.53h.39c-.47,1.71-1.13,2.21-2.16,2.21-.87,0-1.33-.39-1.33-1.35a9.19,9.19,0,0,1,.43-2.22l.55-2h-1l.1-.33h1l.48-1.67Z" transform="translate(-203.17 -201.08)"/><path class="cls-1" d="M217.51,288.82l0,0a2.75,2.75,0,0,1,2.12-1.25,1.18,1.18,0,0,1,1.26,1.3,4.64,4.64,0,0,1-.33,1.48l-.54,1.68a3.51,3.51,0,0,0-.14.58c0,.23.11.38.33.38s.59-.43.88-1.18h.4a6.14,6.14,0,0,1-.64,1.23,1.58,1.58,0,0,1-1.32.63,1.31,1.31,0,0,1-1.42-1.39,3.41,3.41,0,0,1,.17-.92l.61-1.94a2,2,0,0,0,.09-.5.36.36,0,0,0-.39-.37c-.64,0-1.34,1.07-1.75,2.53l-.67,2.4h-1.87l2-6.92a4.54,4.54,0,0,0,.19-.9c0-.34-.15-.35-.53-.37h-.23l.1-.33h1a10.64,10.64,0,0,0,1.88-.18Z" transform="translate(-203.17 -201.08)"/><path class="cls-1" d="M224.72,290.41c.13,0,.51,0,.66,0a1,1,0,0,0,.83-.4,2.87,2.87,0,0,0,.5-1.53.48.48,0,0,0-.45-.53c-.51,0-.88.58-1.2,1.47Zm3.69-1.41c0,.85-.85,1.86-2.84,1.86-.4,0-.74,0-1,0a4.25,4.25,0,0,0-.21,1.29c0,.79.32,1.18.92,1.18a2.3,2.3,0,0,0,1.86-1.62h.43a2.87,2.87,0,0,1-2.66,2,2.2,2.2,0,0,1-2.33-2.37,3.64,3.64,0,0,1,3.61-3.73c1.29,0,2.18.49,2.18,1.4" transform="translate(-203.17 -201.08)"/><path class="cls-1" d="M233.54,291.2a3.34,3.34,0,0,0,2.42,1c.9,0,1.33-.42,1.33-.85s-.66-.77-1.54-1c-1.25-.28-2.85-.63-2.85-2.33,0-1.27,1.1-2.3,2.89-2.3a4.31,4.31,0,0,1,3,1.06l-.91,1.19a3.24,3.24,0,0,0-2.18-.83c-.73,0-1.12.32-1.12.78s.64.67,1.52.88c1.26.28,2.86.66,2.86,2.35,0,1.4-1,2.45-3.06,2.45a4.39,4.39,0,0,1-3.23-1.21Z" transform="translate(-203.17 -201.08)"/><path class="cls-2" d="M249.65,218.91c16.27-11.84,10.91-17.24,6.29-17.76s-6.29,4.07-6.29,4.07a5.31,5.31,0,0,0-6.29-4.07c-4.63.64-10,5.92,6.29,17.76" transform="translate(-203.17 -201.08)"/><path class="cls-1" d="M296.12,229.8h-93a46.56,46.56,0,0,0,93,0" transform="translate(-203.17 -201.08)"/></svg>